<?xml version="1.0" encoding="utf-8"?>
<!-- Generator: Adobe Illustrator 25.2.3, SVG Export Plug-In . SVG Version: 6.00 Build 0)  -->
<svg version="1.1" id="Слой_1" xmlns="http://www.w3.org/2000/svg" xmlns:xlink="http://www.w3.org/1999/xlink" x="0px" y="0px"
	 width="367.7px" height="392.9px" viewBox="0 0 367.7 392.9" style="enable-background:new 0 0 367.7 392.9;" xml:space="preserve"
	>
<style type="text/css">
	.st0{fill:#726B86;}
	.st1{fill:#E14135;}
	.st2{fill:#A8A3BC;}
	.st3{fill:#C9C6DD;}
	.st4{fill:url(#SVGID_1_);}
	.st5{fill:#58506C;}
	.st6{fill:#E14135;stroke:#E14135;stroke-width:3;stroke-miterlimit:10;}
</style>
<g>
	<g>
		<path class="st0" d="M309.3,246.7c-0.8,0-1.5-0.7-1.5-1.5v-59.3l13-10.2v-41.7c0-0.8,0.7-1.5,1.5-1.5c0.8,0,1.5,0.7,1.5,1.5v43.1
			l-13,10.2v57.8C310.8,246,310.1,246.7,309.3,246.7z"/>
		<g>
			<polygon class="st0" points="314.9,140.1 316.2,141.3 322.2,134.9 328.2,141.3 329.5,140.1 322.2,132.2 			"/>
		</g>
	</g>
</g>
<path class="st1" d="M293.3,268.3c-0.8,0-1.5-0.7-1.5-1.5v-37.3c0-0.8,0.7-1.5,1.5-1.5c0.8,0,1.5,0.7,1.5,1.5v37.3
	C294.8,267.7,294.1,268.3,293.3,268.3z"/>
<path class="st2" d="M342.3,234.3c-4.3,0-7.7-3.5-7.7-7.7c0-4.3,3.5-7.7,7.7-7.7c4.3,0,7.7,3.5,7.7,7.7
	C350,230.8,346.5,234.3,342.3,234.3z M342.3,221.8c-2.6,0-4.7,2.1-4.7,4.7c0,2.6,2.1,4.7,4.7,4.7c2.6,0,4.7-2.1,4.7-4.7
	C347,224,344.9,221.8,342.3,221.8z"/>
<g>
	<g>
		<path class="st0" d="M30.3,243.7c-0.8,0-1.5-0.7-1.5-1.5v-74.6c0-0.8,0.7-1.5,1.5-1.5c0.8,0,1.5,0.7,1.5,1.5v74.6
			C31.8,243,31.1,243.7,30.3,243.7z"/>
		<g>
			<polygon class="st0" points="24.4,172.5 25.5,173.5 30.5,168.1 35.5,173.5 36.6,172.5 30.5,165.9 			"/>
		</g>
	</g>
</g>
<g>
	<g>
		<path class="st2" d="M153.8,85.6c-0.6,0-1.1-0.5-1.1-1.1c0-0.6,0.5-1.1,1.1-1.1l14.4,0c0,0,0,0,0,0c0.6,0,1.1,0.5,1.1,1.1
			c0,0.6-0.5,1.1-1.1,1.1L153.8,85.6C153.8,85.6,153.8,85.6,153.8,85.6z"/>
		<path class="st2" d="M161,92.8c-0.6,0-1.1-0.5-1.1-1.1l0-14.4c0-0.6,0.5-1.1,1.1-1.1c0,0,0,0,0,0c0.6,0,1.1,0.5,1.1,1.1l0,14.4
			C162.1,92.3,161.6,92.8,161,92.8C161,92.8,161,92.8,161,92.8z"/>
	</g>
</g>
<g>
	<g>
		<path class="st0" d="M279.2,319.5c-0.6,0-1.1-0.5-1.1-1.1c0-0.6,0.5-1.1,1.1-1.1l14.4,0c0.6,0,1.1,0.5,1.1,1.1
			c0,0.6-0.5,1.1-1.1,1.1L279.2,319.5C279.2,319.5,279.2,319.5,279.2,319.5z"/>
		<path class="st0" d="M286.4,326.7c-0.6,0-1.1-0.5-1.1-1.1l0-14.4c0-0.6,0.5-1.1,1.1-1.1c0,0,0,0,0,0c0.6,0,1.1,0.5,1.1,1.1l0,14.4
			C287.6,326.2,287.1,326.7,286.4,326.7C286.4,326.7,286.4,326.7,286.4,326.7z"/>
	</g>
</g>
<g>
	<g>
		<path class="st2" d="M120.3,128.1c-0.8,0-1.5-0.7-1.5-1.5V93l-14-10.4V59.5c0-0.8,0.7-1.5,1.5-1.5c0.8,0,1.5,0.7,1.5,1.5v21.7
			l14,10.4v35C121.8,127.4,121.1,128.1,120.3,128.1z"/>
		<g>
			<polygon class="st2" points="99.5,65.1 100.8,66.3 106.8,59.9 112.8,66.3 114.2,65.1 106.8,57.2 			"/>
		</g>
	</g>
</g>
<path class="st0" d="M94,149.7l-9.9-9.9l9.9-9.9l9.9,9.9L94,149.7z M87.2,139.8l6.7,6.7l6.7-6.7l-6.7-6.7L87.2,139.8z"/>
<path class="st0" d="M180.1,275.8l0-58l-119,0L61,255.1l-3,0l0.1-38.8c0-0.8,0.7-1.5,1.5-1.5c0,0,0,0,0,0l122,0
	c0.8,0,1.5,0.7,1.5,1.5l0,59.5H180.1z"/>
<path class="st1" d="M83.6,252.3c0,2.3-1.9,4.2-4.2,4.2s-4.2-1.9-4.2-4.2c0-2.3,1.9-4.2,4.2-4.2S83.6,250,83.6,252.3z"/>
<path class="st1" d="M161.9,253.4c0,2.3-1.9,4.2-4.2,4.2c-2.3,0-4.2-1.9-4.2-4.2c0-2.3,1.9-4.2,4.2-4.2
	C160,249.2,161.9,251.1,161.9,253.4z"/>
<path class="st0" d="M60.6,238.9l-0.2-2.9c0.8-0.1,18.9-2.2,18.9-20.2h3C82.2,236.8,60.8,238.9,60.6,238.9z"/>
<rect x="88.8" y="297" class="st0" width="80" height="3"/>
<rect x="135.1" y="251.6" transform="matrix(2.177376e-03 -1 1 2.177376e-03 -149.3935 421.6036)" class="st0" width="3" height="68.2"/>
<rect x="88.8" y="309.8" class="st0" width="74" height="3"/>
<rect x="83.4" y="323.9" class="st0" width="67.9" height="3"/>
<rect x="91.2" y="282" transform="matrix(1.241368e-02 -0.9999 0.9999 1.241368e-02 -194.0727 374.8316)" class="st0" width="3" height="7.4"/>
<rect x="59" y="284.8" class="st0" width="3" height="42"/>
<path class="st0" d="M181.7,241.9c-0.2,0-21.7-2-21.7-23h3c0,18,18.1,20.1,18.9,20.2L181.7,241.9z"/>
<polygon class="st3" points="222.4,36.1 282.1,29 283,93.4 263.8,77.3 222,123.2 170.5,121.7 236.1,49.7 "/>
<linearGradient id="SVGID_1_" gradientUnits="userSpaceOnUse" x1="185.2345" y1="362.7664" x2="185.2345" y2="138.3771">
	<stop  offset="0" style="stop-color:#C9C6DD;stop-opacity:0"/>
	<stop  offset="1" style="stop-color:#C9C6DD"/>
</linearGradient>
<path class="st4" d="M156.1,138.4c0,0.5-0.2,41.7-0.2,41.7l108.1,88.6c0,0-65.1,92.5-68.1,94s-33.5-28-33.5-28l40.3-55l-19.3-17.3
	l-1.3-46.7l-62.7,0.7l-13.1-16.1L156.1,138.4z"/>
<path class="st5" d="M186.3,107.2c-0.4,0-0.7-0.1-1-0.4c-0.6-0.5-0.7-1.5-0.1-2.1l48.4-54.6L217.9,36c-0.4-0.4-0.6-1-0.4-1.6
	c0.2-0.6,0.7-1,1.3-1l63.8-6.4c0.4,0,0.8,0.1,1.2,0.4c0.3,0.3,0.5,0.7,0.5,1.1L283.9,92c0,0.6-0.4,1.1-0.9,1.4
	c-0.5,0.2-1.2,0.1-1.6-0.3l-17.6-15.8l-23.2,26.6c-0.5,0.6-1.5,0.7-2.1,0.1c-0.6-0.5-0.7-1.5-0.1-2.1l24.2-27.7
	c0.3-0.3,0.6-0.5,1-0.5c0.4,0,0.8,0.1,1.1,0.4l16.2,14.6l0.3-58.5l-58.8,5.9l14.3,12.9c0.6,0.5,0.7,1.5,0.1,2.1l-49.4,55.7
	C187.1,107.1,186.7,107.2,186.3,107.2z"/>
<path class="st5" d="M200.9,359.9l-2.5-1.7l62.4-90l-102.7-84.4l1.9-2.3l103.8,85.3c0.6,0.5,0.7,1.4,0.3,2L200.9,359.9z"/>
<path class="st5" d="M112.2,208.2c-0.3,0-0.6-0.1-0.9-0.3l-8-6.2c-0.3-0.2-0.5-0.6-0.6-1c0-0.4,0.1-0.8,0.3-1.1l26.8-31.7
	c0.5-0.6,1.5-0.7,2.1-0.2c0.6,0.5,0.7,1.5,0.2,2.1l-25.8,30.5l6.8,5.3c0.7,0.5,0.8,1.4,0.3,2.1C113.1,208,112.7,208.2,112.2,208.2z"
	/>
<path class="st5" d="M169.7,326.9c-0.3,0-0.6-0.1-0.9-0.3c-0.7-0.5-0.8-1.4-0.4-2.1l33.1-46.6l-6.8-6.2c-0.6-0.6-0.7-1.5-0.1-2.1
	c0.6-0.6,1.5-0.7,2.1-0.1l7.8,7c0.6,0.5,0.7,1.4,0.2,2l-33.8,47.7C170.6,326.7,170.1,326.9,169.7,326.9z"/>
<rect x="212.8" y="202.8" class="st0" width="61" height="3"/>
<rect x="221.8" y="213.8" class="st0" width="52" height="3"/>
<rect x="194.8" y="190.8" class="st0" width="66" height="3"/>
<path class="st0" d="M278.2,189.8l0-64.4l-119,0.1l-0.1,37.3l-3,0l0.1-38.7c0-0.8,0.5-1.5,1.5-1.5v0l121.9,0c0.8,0,1.5,0.5,1.5,1.3
	l0,65.9H278.2z"/>
<g>
	<g>
		<path class="st6" d="M210.5,159.1c-2,0-3.6-0.6-4.8-1.7c-2-1.9-2.2-5-2.2-7.9v-0.7c0.3-5.6,2.9-8.2,8.4-8.2h16.5
			c0.8,0,1.5,0.7,1.5,1.5s-0.7,1.5-1.5,1.5h-16.5c-3.3,0-5.2,0.8-5.4,5.3l0,0.6c0,3.1,0.4,4.8,1.3,5.7c0.6,0.6,1.6,0.9,3,0.8h5.6
			c0.8,0,1.5,0.7,1.5,1.5s-0.7,1.5-1.5,1.5h-5.5C210.8,159.1,210.7,159.1,210.5,159.1z"/>
		<path class="st6" d="M222.9,174.6h-16.8c-0.8,0-1.5-0.7-1.5-1.5c0-0.8,0.7-1.5,1.5-1.5h16.8c3.4,0,5.4-1.8,5.4-4.9v-2.8
			c0-3.1-2-4.9-5.4-4.9h-6.5c-0.8,0-1.5-0.7-1.5-1.5s0.7-1.5,1.5-1.5h6.5c5.1,0,8.4,3.1,8.4,7.8v2.8
			C231.3,171.4,227.9,174.6,222.9,174.6z"/>
		<rect x="216.3" y="173.4" class="st6" width="3" height="7"/>
		<rect x="216.3" y="134.4" class="st6" width="3" height="8"/>
	</g>
</g>
<rect x="145.8" y="131" class="st0" width="3" height="22.1"/>
<path class="st1" d="M181.7,160.1c0,2.3-1.9,4.2-4.2,4.2c-2.3,0-4.2-1.9-4.2-4.2c0-2.3,1.9-4.2,4.2-4.2
	C179.8,155.9,181.7,157.8,181.7,160.1z"/>
<path class="st1" d="M260,161.2c0,2.3-1.9,4.2-4.2,4.2c-2.3,0-4.2-1.9-4.2-4.2c0-2.3,1.9-4.2,4.2-4.2C258.1,157,260,158.9,260,161.2
	z"/>
<path class="st0" d="M158.7,146.3l-0.2-3.1c0.8-0.1,18.9-1.4,18.9-20.4h3C180.4,144.8,158.9,146.3,158.7,146.3z"/>
<path class="st0" d="M279.9,149.3c-0.2,0-21.7-1.4-21.7-23.4h3c0,19,18.1,20.3,18.9,20.4L279.9,149.3z"/>
<path class="st1" d="M132.2,250.6c2.1-1.9,3.5-4.7,3.5-7.7c0-4.3-2.7-8-6.4-9.6V230c0-1.4-1.2-2.6-2.6-2.6c-1.4,0-2.6,1.2-2.6,2.6
	v2.6h-5.2V230c0-1.4-1.2-2.6-2.6-2.6c-1.4,0-2.6,1.2-2.6,2.6v2.6h-5.2c-1.4,0-2.6,1.2-2.6,2.6s1.2,2.6,2.6,2.6h2.6v12.9v12.9h-2.6
	c-1.4,0-2.6,1.2-2.6,2.6s1.2,2.6,2.6,2.6h5.2v2.6c0,1.4,1.2,2.6,2.6,2.6c1.4,0,2.6-1.2,2.6-2.6v-2.6h5.2v2.6c0,1.4,1.2,2.6,2.6,2.6
	c1.4,0,2.6-1.2,2.6-2.6v-3.3c3.8-1.5,6.4-5.2,6.4-9.6C135.7,255.2,134.3,252.5,132.2,250.6z M116.3,237.7h9c2.8,0,5.2,2.3,5.2,5.2
	c0,2.8-2.3,5.2-5.2,5.2h-9V237.7z M125.4,263.5h-9v-10.3h9c2.8,0,5.2,2.3,5.2,5.2C130.5,261.1,128.2,263.5,125.4,263.5z"/>
</svg>
