<?xml version="1.0" encoding="utf-8"?>
<!-- Generator: Adobe Illustrator 25.1.0, SVG Export Plug-In . SVG Version: 6.00 Build 0)  -->
<svg version="1.1" id="Слой_1" xmlns="http://www.w3.org/2000/svg" xmlns:xlink="http://www.w3.org/1999/xlink" x="0px" y="0px"
	 viewBox="0 0 300.2 288.1" style="enable-background:new 0 0 300.2 288.1;" xml:space="preserve">
<style type="text/css">
	.st0{opacity:0.2;fill:url(#SVGID_1_);}
	.st1{opacity:0.2;fill:url(#SVGID_2_);}
	.st2{opacity:0.6;}
	.st3{fill:#FFFFFF;}
	.st4{opacity:0.6;fill:#FFFFFF;}
	.st5{fill:#E14135;}
</style>
<linearGradient id="SVGID_1_" gradientUnits="userSpaceOnUse" x1="166.1915" y1="191.5151" x2="166.1915" y2="12.2392">
	<stop  offset="0.2737" style="stop-color:#221837;stop-opacity:0"/>
	<stop  offset="1" style="stop-color:#221837;stop-opacity:0.6"/>
</linearGradient>
<path class="st0" d="M234.9,94l-67.4-81.2c-0.7-0.8-2-0.8-2.7,0L97.4,94c-0.4,0.5-0.5,1-0.2,1.6c0.3,0.6,0.9,0.8,1.6,0.8h34.6v94.7
	l64,0.3V96.4h36.2c0.7,0,1.3-0.2,1.6-0.8C235.5,95,235.4,94.5,234.9,94z"/>
<linearGradient id="SVGID_2_" gradientUnits="userSpaceOnUse" x1="211.4786" y1="288.0844" x2="211.4786" y2="143.2392">
	<stop  offset="0.2737" style="stop-color:#221837;stop-opacity:0"/>
	<stop  offset="1" style="stop-color:#221837;stop-opacity:0.6"/>
</linearGradient>
<path class="st1" d="M252.7,192.2l-40.4-48.6c-0.4-0.5-1.2-0.5-1.6,0l-40.4,48.6c-0.3,0.3-0.3,1-0.1,1.4c0.2,0.4,0.5,0.8,0.9,0.8
	h20.3v93.4l39,0.2v-93.6h21.5c0.4,0,0.8-0.5,0.9-0.8C253,193.2,252.9,192.6,252.7,192.2z"/>
<g class="st2">
	<g>
		<path class="st3" d="M278.7,236.8c-1,0-1.7-0.8-1.7-1.7v-59.7l13.1-10.3v-41.7c0-1,0.8-1.7,1.7-1.7c1,0,1.7,0.8,1.7,1.7v43.4
			l-13.1,10.3v58C280.4,236,279.6,236.8,278.7,236.8z"/>
		<g>
			<polygon class="st3" points="283.1,129.5 284.6,131 291.6,123.4 298.7,131 300.2,129.5 291.6,120.3 			"/>
		</g>
	</g>
</g>
<g class="st2">
	<g>
		<path class="st3" d="M7.2,219.4c-1,0-1.7-0.8-1.7-1.7v-25.3c0-1,0.8-1.7,1.7-1.7c1,0,1.7,0.8,1.7,1.7v25.3
			C9,218.6,8.2,219.4,7.2,219.4z"/>
		<g>
			<polygon class="st3" points="0,197.2 1.3,198.4 7.1,192.1 13,198.4 14.3,197.2 7.1,189.5 			"/>
		</g>
	</g>
</g>
<g class="st2">
	<g>
		<path class="st3" d="M64.8,156.5c-1,0-1.7-0.8-1.7-1.7v-34l-12.2-10.5V86.7c0-1,0.8-1.7,1.7-1.7c1,0,1.7,0.8,1.7,1.7v22.1
			l12.2,10.5v35.6C66.6,155.7,65.8,156.5,64.8,156.5z"/>
		<g>
			<polygon class="st3" points="44.1,92.9 45.7,94.3 52.7,86.7 59.7,94.3 61.3,92.9 52.7,83.7 			"/>
		</g>
	</g>
</g>
<path class="st4" d="M135.5,172.2c-1,0-1.7-0.8-1.7-1.7V97.2H99.1c-0.7,0-1.3-0.4-1.6-1c-0.3-0.6-0.2-1.3,0.2-1.9l67.4-81.2
	c0.7-0.8,2-0.8,2.7,0l67.4,81.2c0.4,0.5,0.5,1.2,0.2,1.9c-0.3,0.6-0.9,1-1.6,1h-36.5v43.6c0,1-0.8,1.7-1.7,1.7c-1,0-1.7-0.8-1.7-1.7
	V95.4c0-1,0.8-1.7,1.7-1.7h34.5L166.5,17l-63.7,76.7h32.7c1,0,1.7,0.8,1.7,1.7v75.1C137.3,171.5,136.5,172.2,135.5,172.2z"/>
<path class="st4" d="M191.4,280.7c-1,0-1.7-0.8-1.7-1.7v-84.9h-20.7c-0.7,0-1.3-0.4-1.6-1c-0.3-0.6-0.2-1.4,0.3-1.9l43.6-47.8
	c0.3-0.4,0.8-0.6,1.3-0.6c0.5,0,1,0.2,1.3,0.6l42.6,47.8c0.5,0.5,0.6,1.2,0.3,1.9c-0.3,0.6-0.9,1-1.6,1h-23.6v45.4
	c0,1-0.8,1.7-1.7,1.7c-1,0-1.7-0.8-1.7-1.7v-47.1c0-1,0.8-1.7,1.7-1.7h21.4l-38.7-43.5l-39.6,43.5h18.5c1,0,1.7,0.8,1.7,1.7V279
	C193.1,279.9,192.3,280.7,191.4,280.7z"/>
<path class="st5" d="M83.9,226.5c0,2.4-1.9,4.3-4.3,4.3c-2.4,0-4.3-1.9-4.3-4.3s1.9-4.3,4.3-4.3C82,222.2,83.9,224.1,83.9,226.5z"/>
<circle class="st5" cx="157.6" cy="227.5" r="4.3"/>
<rect x="57.8" y="268.4" class="st4" width="87.3" height="3.5"/>
<rect x="76.2" y="257.8" class="st4" width="86.4" height="3.5"/>
<rect x="103.5" y="234.9" transform="matrix(1.046146e-03 -1 1 1.046146e-03 -175.519 385.597)" class="st4" width="3.5" height="91.5"/>
<rect x="46.5" y="206.3" class="st4" width="3.5" height="62.8"/>
<g class="st2">
	<path class="st3" d="M218.4,37.8c-1,0-1.7-0.8-1.7-1.7V2.9c0-1,0.8-1.7,1.7-1.7c1,0,1.7,0.8,1.7,1.7v33.2
		C220.2,37,219.4,37.8,218.4,37.8z"/>
	<g>
		<polygon class="st3" points="211.3,7.7 212.6,8.9 218.4,2.6 224.3,8.9 225.6,7.7 218.4,0 		"/>
	</g>
</g>
<path class="st4" d="M262.1,266.5c-1,0-1.7-0.8-1.7-1.7v-37.5c0-1,0.8-1.7,1.7-1.7c1,0,1.7,0.8,1.7,1.7v37.5
	C263.8,265.7,263,266.5,262.1,266.5z"/>
<path class="st4" d="M263.9,76.4c-7.1,0-12.9-5.8-12.9-12.9c0-7.1,5.8-12.9,12.9-12.9c7.1,0,12.9,5.8,12.9,12.9
	C276.8,70.6,271,76.4,263.9,76.4z M263.9,54.1c-5.2,0-9.4,4.2-9.4,9.4c0,5.2,4.2,9.4,9.4,9.4c5.2,0,9.4-4.2,9.4-9.4
	C273.3,58.3,269.1,54.1,263.9,54.1z"/>
<g class="st2">
	<path class="st3" d="M87.2,153c-0.7,0-1.3-0.5-1.3-1.2c0-0.7,0.6-1.3,1.3-1.3l14.5,0c0,0,0,0,0,0c0.7,0,1.3,0.6,1.3,1.4
		c0,0.7-0.6,1.3-1.3,1.3L87.2,153C87.2,153,87.2,153,87.2,153z"/>
	<path class="st3" d="M94.5,160c-0.7,0-1.3-0.4-1.3-1.1l0-14.3c0-0.7,0.6-1.1,1.3-1.1c0,0,0,0,0,0c0.7,0,1.3,0.5,1.3,1.2l0,14.3
		C95.8,159.7,95.2,160,94.5,160C94.5,160,94.5,160,94.5,160z"/>
</g>
<path class="st4" d="M29.4,166.2l-10.2-10.2l10.2-10.2l10.2,10.2L29.4,166.2z M22.8,155.9l6.5,6.5l6.5-6.5l-6.5-6.5L22.8,155.9z"/>
<path class="st4" d="M59.7,214.7l-0.3-3.4l0.1,1.8l-0.1-1.9c0.8-0.1,18.9-1.2,18.9-20.4h3.5C81.8,212.6,59.9,214.7,59.7,214.7z"/>
<path class="st4" d="M79.7,258c-0.1-0.6-1.8-15.2-20.1-15.2v-3.5c21.8,0,23.5,18.2,23.6,18.4L79.7,258l1.7-0.2L79.7,258z"/>
<path class="st4" d="M67.9,261l-9.3,0c-1,0-1.7-0.8-1.7-1.7l0.1-69.1c0-1,0.7-1.7,1.6-1.7l99.7,0v3.5l-97.9,0l0,65.6l7.6,0L67.9,261
	z"/>
<path class="st5" d="M130,226.5c2.1-1.9,3.5-4.7,3.5-7.7c0-4.3-2.7-8-6.4-9.6v-3.3c0-1.4-1.2-2.6-2.6-2.6s-2.6,1.2-2.6,2.6v2.6h-5.2
	v-2.6c0-1.4-1.2-2.6-2.6-2.6s-2.6,1.2-2.6,2.6v2.6h-5.2c-1.4,0-2.6,1.2-2.6,2.6c0,1.4,1.2,2.6,2.6,2.6h2.6v12.9v12.9h-2.6
	c-1.4,0-2.6,1.2-2.6,2.6s1.2,2.6,2.6,2.6h5.2v2.6c0,1.4,1.2,2.6,2.6,2.6s2.6-1.2,2.6-2.6v-2.6h5.2v2.6c0,1.4,1.2,2.6,2.6,2.6
	s2.6-1.2,2.6-2.6v-3.3c3.8-1.5,6.4-5.2,6.4-9.6C133.5,231.1,132.1,228.3,130,226.5z M114.1,213.6h9c2.8,0,5.2,2.3,5.2,5.2
	c0,2.8-2.3,5.2-5.2,5.2h-9V213.6z M123.1,239.3h-9V229h9c2.8,0,5.2,2.3,5.2,5.2C128.3,237,126,239.3,123.1,239.3z"/>
</svg>
