<?xml version="1.0" encoding="utf-8"?>
<!-- Generator: Adobe Illustrator 25.2.3, SVG Export Plug-In . SVG Version: 6.00 Build 0)  -->
<svg version="1.1" id="Слой_1" xmlns="http://www.w3.org/2000/svg" xmlns:xlink="http://www.w3.org/1999/xlink" x="0px" y="0px"
	 width="321.7px" height="289.5px" viewBox="0 0 321.7 289.5" style="enable-background:new 0 0 321.7 289.5;" xml:space="preserve"
	>
<style type="text/css">
	.st0{fill:#C9C6DD;}
	.st1{fill:#FFFFFF;}
	.st2{fill:#E14135;}
	.st3{fill:#58506C;}
	.st4{fill:#A8A3BC;}
</style>
<path class="st0" d="M131.1,232.4H42.4c-4.7,0-8.5-3.8-8.5-8.5V89c0-4.7,3.8-8.5,8.5-8.5h88.7c4.7,0,8.5,3.8,8.5,8.5v134.9
	C139.6,228.6,135.8,232.4,131.1,232.4z"/>
<rect x="48.2" y="96.9" class="st1" width="77" height="26"/>
<g>
	<g>
		<path class="st2" d="M284.5,146.9c-1,0-1.7-0.8-1.7-1.7v-44.5c0-1,0.8-1.7,1.7-1.7c1,0,1.7,0.8,1.7,1.7v44.5
			C286.2,146.1,285.4,146.9,284.5,146.9z"/>
		<g>
			<polygon class="st2" points="277.3,105 278.6,106.2 284.4,99.9 290.3,106.2 291.6,105 284.4,97.4 			"/>
		</g>
	</g>
</g>
<path class="st3" d="M63.6,265.6c-0.2,0-0.3,0-0.5,0c-4.7-0.3-8.3-4.3-8-9c0.3-4.7,4.3-8.3,9-8c2.3,0.1,4.4,1.2,5.9,2.9
	c1.5,1.7,2.3,3.9,2.1,6.2C71.9,262.1,68.1,265.6,63.6,265.6z M63.6,252.1c-2.7,0-4.9,2.1-5,4.7c-0.2,2.8,2,5.2,4.7,5.3
	c2.8,0.2,5.2-2,5.3-4.7c0.1-1.3-0.4-2.6-1.3-3.6c-0.9-1-2.1-1.6-3.5-1.7C63.8,252.1,63.7,252.1,63.6,252.1z"/>
<g>
	<g>
		<path class="st3" d="M233.5,38.6c-0.7,0-1.3-0.6-1.3-1.3c0-0.7,0.6-1.3,1.3-1.3l16.6,0h0c0.7,0,1.3,0.6,1.3,1.3
			c0,0.7-0.6,1.3-1.3,1.3L233.5,38.6L233.5,38.6z"/>
		<path class="st3" d="M241.8,46.5c-0.7,0-1.3-0.4-1.3-1.1l0-16.7c0-0.7,0.6-1.4,1.3-1.4h0c0.7,0,1.3,0.8,1.3,1.5l0,16.5
			C243.1,46,242.5,46.5,241.8,46.5L241.8,46.5z"/>
	</g>
</g>
<path class="st2" d="M299,190l-11.4-11.4l11.4-11.4l11.4,11.4L299,190z M291.3,178.5l7.7,7.7l7.7-7.7l-7.7-7.7L291.3,178.5z"/>
<path class="st3" d="M253.9,185.3h-3.5v-97l-24.8-29.5H113.8c-4.7,0-8.3,3.5-8.3,8v8.6H102v-8.6c0-6.3,5.3-11.5,11.8-11.5h113.4
	L253.9,87V185.3z"/>
<path class="st3" d="M209.4,257.7h-95.6c-6.4,0-11.8-5.6-11.8-12.3v-7.8h3.5v7.8c0,4.7,3.9,8.8,8.3,8.8h95.6V257.7z"/>
<path class="st3" d="M243.4,90.1h-21.8V67.4c0-1,0.8-1.7,1.7-1.7c1,0,1.7,0.8,1.7,1.7v19.2h18.3c1,0,1.7,0.8,1.7,1.7
	C245.2,89.3,244.4,90.1,243.4,90.1z"/>
<path class="st3" d="M131.1,232.4H42.4c-4.7,0-8.5-3.8-8.5-8.5V89c0-4.7,3.8-8.5,8.5-8.5h88.7c4.7,0,8.5,3.8,8.5,8.5v134.9
	C139.6,228.6,135.8,232.4,131.1,232.4z M42.4,84c-2.7,0-5,2.2-5,5v134.9c0,2.7,2.2,5,5,5h88.7c2.7,0,5-2.2,5-5V89c0-2.7-2.2-5-5-5
	H42.4z"/>
<g>
	<g>
		<path class="st4" d="M254.3,278c-19.7,0-35.8-16.1-35.8-35.8c0-19.7,16.1-35.8,35.8-35.8c19.7,0,35.8,16.1,35.8,35.8
			C290.1,262,274,278,254.3,278z M254.3,209.9c-17.8,0-32.3,14.5-32.3,32.3c0,17.8,14.5,32.3,32.3,32.3c17.8,0,32.3-14.5,32.3-32.3
			C286.6,224.4,272.1,209.9,254.3,209.9z"/>
	</g>
	<path class="st4" d="M252.2,251.9l-15.8-12.8c-0.7-0.6-0.9-1.7-0.3-2.5c0.6-0.8,1.7-0.9,2.5-0.3l13.1,10.6l17.6-22.3
		c0.6-0.8,1.7-0.9,2.5-0.3c0.8,0.6,0.9,1.7,0.3,2.5L252.2,251.9z"/>
	<path class="st4" d="M264.4,204.5h-20.9c-1,0-1.7-0.8-1.7-1.7V194c0-1,0.8-1.7,1.7-1.7h20.9c1,0,1.7,0.8,1.7,1.7v8.7
		C266.1,203.7,265.3,204.5,264.4,204.5z M245.2,201h17.5v-5.2h-17.5V201z"/>
</g>
<g>
	<g>
		<path class="st2" d="M168.6,153.2c-8.3,0-15.1-6.8-15.1-15.1c0-8.3,6.8-15.1,15.1-15.1c8.3,0,15.1,6.8,15.1,15.1
			C183.7,146.4,176.9,153.2,168.6,153.2z M168.6,126.5c-6.4,0-11.6,5.2-11.6,11.6c0,6.4,5.2,11.6,11.6,11.6
			c6.4,0,11.6-5.2,11.6-11.6C180.2,131.7,175,126.5,168.6,126.5z"/>
		<path class="st2" d="M209,193.6c-8.3,0-15.1-6.8-15.1-15.1c0-8.3,6.8-15.1,15.1-15.1c8.3,0,15.1,6.8,15.1,15.1
			C224,186.8,217.3,193.6,209,193.6z M209,166.9c-6.4,0-11.6,5.2-11.6,11.6c0,6.4,5.2,11.6,11.6,11.6c6.4,0,11.6-5.2,11.6-11.6
			C220.6,172.1,215.4,166.9,209,166.9z"/>
		
			<rect x="151.2" y="156.1" transform="matrix(0.6832 -0.7302 0.7302 0.6832 -55.0224 188.8706)" class="st2" width="78" height="3.5"/>
	</g>
</g>
<g>
	<g>
		<path class="st2" d="M157.9,94.5c-1,0-1.7-0.8-1.7-1.7V47.6l-14-11V11.6c0-1,0.8-1.7,1.7-1.7c1,0,1.7,0.8,1.7,1.7v23.4l14,11v46.8
			C159.6,93.7,158.9,94.5,157.9,94.5z"/>
		<g>
			<polygon class="st2" points="135.3,17.8 136.8,19.3 143.9,11.7 150.9,19.3 152.4,17.8 143.9,8.6 			"/>
		</g>
	</g>
</g>
<path class="st3" d="M98.5,118.1c-1,0-1.7-0.8-1.7-1.7v-13.1c0-1,0.8-1.7,1.7-1.7c1,0,1.7,0.8,1.7,1.7v13.1
	C100.3,117.3,99.5,118.1,98.5,118.1z"/>
<path class="st3" d="M84.6,118.1c-1,0-1.7-0.8-1.7-1.7v-13.1c0-1,0.8-1.7,1.7-1.7c1,0,1.7,0.8,1.7,1.7v13.1
	C86.3,117.3,85.5,118.1,84.6,118.1z"/>
<path class="st3" d="M112.5,118.1c-1,0-1.7-0.8-1.7-1.7v-13.1c0-1,0.8-1.7,1.7-1.7c1,0,1.7,0.8,1.7,1.7v13.1
	C114.2,117.3,113.5,118.1,112.5,118.1z"/>
<g>
	<g>
		<path class="st3" d="M15.6,252.5c-1,0-1.7-0.8-1.7-1.7v-48c0-1,0.8-1.7,1.7-1.7s1.7,0.8,1.7,1.7v48
			C17.4,251.7,16.6,252.5,15.6,252.5z"/>
		<g>
			<polygon class="st3" points="8.5,207.6 9.8,208.7 15.6,202.4 21.5,208.7 22.8,207.6 15.6,199.9 			"/>
		</g>
	</g>
</g>
<path class="st3" d="M125.6,218.4H47v-81.2h78.6V218.4z M50.5,214.9h71.6v-74.2H50.5V214.9z"/>
<path class="st3" d="M102,218.4H70.6v-81.2H102V218.4z M74.1,214.9h24.4v-74.2H74.1V214.9z"/>
<path class="st3" d="M123,164.3H48.8c-1,0-1.7-0.8-1.7-1.7c0-1,0.8-1.7,1.7-1.7H123c1,0,1.7,0.8,1.7,1.7
	C124.7,163.5,123.9,164.3,123,164.3z"/>
<path class="st3" d="M99.4,191.4H48.8c-1,0-1.7-0.8-1.7-1.7c0-1,0.8-1.7,1.7-1.7h50.6c1,0,1.7,0.8,1.7,1.7
	C101.2,190.6,100.4,191.4,99.4,191.4z"/>
<path class="st3" d="M126.5,125.9H47V93.6h79.4V125.9z M50.5,122.4H123V97.1H50.5V122.4z"/>
<g>
	<g>
		<path class="st3" d="M61.9,108.5c-1,0-1.7-0.8-1.7-1.7v-48c0-1,0.8-1.7,1.7-1.7c1,0,1.7,0.8,1.7,1.7v48
			C63.6,107.7,62.8,108.5,61.9,108.5z"/>
		<g>
			<polygon class="st3" points="54.8,63.5 56.1,64.7 61.9,58.4 67.8,64.7 69.1,63.5 61.9,55.9 			"/>
		</g>
	</g>
</g>
</svg>
