<?xml version="1.0" encoding="utf-8"?>
<!-- Generator: Adobe Illustrator 25.2.3, SVG Export Plug-In . SVG Version: 6.00 Build 0)  -->
<svg version="1.1" id="Слой_1" xmlns="http://www.w3.org/2000/svg" xmlns:xlink="http://www.w3.org/1999/xlink" x="0px" y="0px"
	 width="346.5px" height="324.4px" viewBox="0 0 346.5 324.4" style="enable-background:new 0 0 346.5 324.4;" xml:space="preserve"
	>
<style type="text/css">
	.st0{fill:#E14135;}
	.st1{opacity:0.6;fill:#FFFFFF;}
	.st2{fill:#FFFFFF;}
	.st3{opacity:0.6;}
	.st4{opacity:0.2;fill:url(#SVGID_1_);}
</style>
<g>
	<path class="st0" d="M167.6,152.5c0-20.3-16.5-36.9-36.9-36.9c-20.3,0-36.9,16.5-36.9,36.9c0,11.9,5.6,22.4,14.3,29.2
		c1.4-0.4,2.9-0.6,4.3-0.8c-9.3-6-15.5-16.5-15.5-28.4c0-18.6,15.1-33.7,33.7-33.7c18.6,0,33.7,15.1,33.7,33.7
		c0,14.3-8.9,26.5-21.5,31.4c1.9,0.2,3.9,0.4,5.9,0.7C160,178.3,167.6,166.3,167.6,152.5z"/>
	<path class="st1" d="M153.4,90.5c0.9,0,1.6,0.7,1.6,1.6c0,0.2,0,0.5,0,1.1c0,0.8,0,2,0,3.3c6.6,5.1,23,7.8,38.6,7.8
		c20.2,0,41.6-4.5,41.6-12.8c0-8.3-21.4-12.8-41.6-12.8c-20.2,0-41.6,4.5-41.6,12.8c0,0.1,0,0.1,0,0.2
		C152.1,90.9,152.7,90.5,153.4,90.5z M193.5,81.6c23.9,0,38.5,5.7,38.5,9.7c0,4.1-14.6,9.7-38.5,9.7c-23.9,0-38.5-5.6-38.5-9.7
		C155,87.3,169.7,81.6,193.5,81.6z"/>
	<path class="st1" d="M153.4,102.1C153.4,102.1,153.4,102.1,153.4,102.1c0.9,0,1.6-0.8,1.6-1.6c0-0.9,0-2.5,0-4.1c0-1.2,0-2.5,0-3.3
		c0-0.5,0-0.9,0-1.1c0-0.9-0.7-1.6-1.6-1.6c-0.7,0-1.3,0.4-1.5,1.1c-0.1,0.2-0.1,0.3-0.1,0.5c0,0.2,0,0.5,0,1c0,2.1,0,5.9,0,7.6
		C151.9,101.5,152.6,102.1,153.4,102.1z"/>
	<path class="st1" d="M234.2,109.4c-0.4-0.8-1.3-1.1-2.1-0.8c-7.9,3.7-22.2,6-36.4,6c-0.9,0-1.6,0.7-1.6,1.6c0,0.9,0.7,1.6,1.6,1.6
		c14.6,0,29.4-2.5,37.7-6.3C234.2,111.1,234.6,110.1,234.2,109.4z"/>
	<path class="st1" d="M233.9,123.7c-0.4-0.8-1.3-1.1-2.1-0.8c-7.3,3.4-21.1,5.5-36.1,5.5c-0.9,0-1.6,0.7-1.6,1.6
		c0,0.9,0.7,1.6,1.6,1.6c15.3,0,29.7-2.2,37.4-5.8C233.9,125.4,234.3,124.5,233.9,123.7z"/>
	<path class="st1" d="M233.9,151c-0.4-0.8-1.3-1.1-2.1-0.8c-7.3,3.4-21.2,5.5-36.1,5.5c-0.9,0-1.6,0.7-1.6,1.6
		c0,0.9,0.7,1.6,1.6,1.6c15.3,0,29.6-2.2,37.4-5.8C233.9,152.7,234.3,151.8,233.9,151z"/>
	<path class="st1" d="M233.9,137.6c-0.4-0.8-1.3-1.1-2.1-0.8c-5,2.3-13.1,4.1-22.7,4.9c-0.9,0.1-1.5,0.8-1.4,1.7
		c0.1,0.8,0.8,1.4,1.6,1.4c0,0,0.1,0,0.1,0c10-0.9,18.4-2.7,23.7-5.2C233.9,139.3,234.3,138.3,233.9,137.6z"/>
	<path class="st1" d="M230.8,176.5c-4.6,2.1-19.7,5.7-32.3,5c-0.8-0.1-1.6,0.6-1.7,1.5c0,0.9,0.6,1.6,1.5,1.7
		c1.2,0.1,2.4,0.1,3.7,0.1c12.4,0,25.7-3.3,30.2-5.3c0.8-0.4,1.1-1.3,0.8-2.1C232.5,176.5,231.5,176.2,230.8,176.5z"/>
	<path class="st1" d="M232.9,164.4c-0.4-0.8-1.3-1.1-2.1-0.8c-5,2.3-13.1,4.1-22.7,4.9c-0.9,0.1-1.5,0.8-1.4,1.7
		c0.1,0.8,0.8,1.4,1.6,1.4c0,0,0.1,0,0.1,0c10-0.9,18.4-2.7,23.7-5.2C232.9,166.1,233.3,165.2,232.9,164.4z"/>
	<path class="st0" d="M84.2,152.3c0-25.6,20.8-46.4,46.4-46.4c25.6,0,46.4,20.8,46.4,46.4c0,13.3-5.7,25.4-14.7,33.9
		c1.4,0.2,2.7,0.3,4,0.4c8.6-8.9,13.8-21,13.8-34.3c0-27.3-22.2-49.6-49.6-49.6c-27.3,0-49.6,22.2-49.6,49.6c0,13.7,5.6,26,14.5,35
		c0.9-0.6,1.9-1.1,2.8-1.6C89.7,177.2,84.2,165.4,84.2,152.3z"/>
</g>
<path class="st1" d="M224.4,295.1l-11-11l11-10.9l11,10.9L224.4,295.1z M216.8,284.2l7.6,7.6l7.6-7.6l-7.6-7.6L216.8,284.2z"/>
<g>
	<rect x="317.8" y="175.3" transform="matrix(0.7072 -0.707 0.707 0.7072 -34.1969 284.0619)" class="st2" width="16" height="16"/>
	<path class="st1" d="M325.8,196.2L325.8,196.2c-0.4,0-0.8-0.2-1.1-0.5l-11.3-11.3c-0.6-0.6-0.6-1.6,0-2.2l11.3-11.3
		c0.6-0.6,1.6-0.6,2.2,0l11.3,11.3c0.6,0.6,0.6,1.6,0,2.2L327,195.8C326.7,196.1,326.3,196.2,325.8,196.2z M316.7,183.3l9.1,9.1
		l9.1-9.1l-9.1-9.1L316.7,183.3z"/>
</g>
<path class="st1" d="M97.7,284.8c-0.5,0-0.9-0.2-1.2-0.6c-0.5-0.7-0.4-1.7,0.2-2.2l19.3-15.7c0.2-0.2,0.5-0.3,0.7-0.3l108.4-19.4
	c3-3.8,24.1-30.7,41.4-56.3c1.2-5.2-1.3-10.5-6.3-13c-5.4-2.7-14.1-2.1-22.1,8c-10.3,12.9-18.1,23.8-18.2,23.9
	c-0.3,0.4-0.6,0.6-1.1,0.6l-20.1,2.7c-0.9,0.1-1.6-0.5-1.8-1.3c-0.1-0.9,0.5-1.6,1.3-1.8l19.4-2.6c1.7-2.4,8.9-12.2,17.9-23.5
	c9.2-11.5,19.4-12.1,26-8.8c6.4,3.2,9.6,10.1,7.9,16.8c0,0.2-0.1,0.3-0.2,0.5c-18.7,27.7-41.9,56.9-42.1,57.2
	c-0.2,0.3-0.6,0.5-0.9,0.6L117.7,269l-19,15.5C98.4,284.7,98.1,284.8,97.7,284.8z"/>
<path class="st1" d="M49.2,248.7c1.6,1.9,1.4,4.7-0.5,6.3c-1.9,1.6-4.7,1.4-6.3-0.5c-1.6-1.9-1.4-4.7,0.5-6.3
	C44.7,246.6,47.6,246.9,49.2,248.7z"/>
<path class="st1" d="M62.3,231.1c-0.4,0-0.9-0.2-1.2-0.5c-0.6-0.7-0.5-1.6,0.2-2.2l14.1-12c1.2-2.2,8.6-15.9,16.1-21
	c6.2-4.3,16.7-9.1,31.5-7.8c2.3,0.2,5.7,1,8.9,1.8c2.7,0.7,5.2,1.3,6.5,1.4c9.8,0.5,19.4,0.8,27.8,1c9.8,0.3,17.6,0.5,21,1
	c2.9,0,5.7,1.6,7.9,4.3c2.5,3.1,3.8,7.4,3.2,10.2c-1,4.6-2.7,12.3-16.5,12.5c-18,0.3-38.2,1.3-38.4,1.3c-0.9,0.1-1.6-0.6-1.6-1.5
	c0-0.9,0.6-1.6,1.5-1.6c0.2,0,20.5-1.1,38.5-1.3c11.3-0.2,12.5-5.4,13.5-10c0.4-1.7-0.5-5-2.6-7.6c-1.1-1.4-3-3.1-5.6-3.1
	c-0.1,0-0.1,0-0.2,0c-3.1-0.4-10.9-0.7-20.8-0.9c-8.5-0.2-18-0.5-28-1c-1.6-0.1-4.1-0.8-7-1.5c-3-0.7-6.3-1.6-8.4-1.8
	c-13.8-1.2-23.6,3.3-29.4,7.2c-7.4,5.1-15.2,20-15.2,20.2c-0.1,0.2-0.2,0.3-0.4,0.5l-14.3,12.2C63,231,62.7,231.1,62.3,231.1z"/>
<path class="st1" d="M31.6,189.2c-5.7,0-10.4-4.7-10.4-10.4c0-5.8,4.7-10.4,10.4-10.4c5.8,0,10.4,4.7,10.4,10.4
	C42,184.5,37.3,189.2,31.6,189.2z M31.6,171.5c-4,0-7.3,3.3-7.3,7.3c0,4,3.3,7.3,7.3,7.3c4,0,7.3-3.3,7.3-7.3
	C38.9,174.8,35.6,171.5,31.6,171.5z"/>
<g class="st3">
	<path class="st2" d="M85.9,98.7c-0.9,0-1.6-0.7-1.6-1.6V55.7c0-0.9,0.7-1.6,1.6-1.6c0.9,0,1.6,0.7,1.6,1.6v41.5
		C87.4,98,86.7,98.7,85.9,98.7z"/>
	<g>
		<polygon class="st2" points="79.1,61.2 80.2,62.3 85.5,56.6 90.7,62.3 91.9,61.2 85.5,54.3 		"/>
	</g>
</g>
<g class="st3">
	<path class="st2" d="M302,137.1c-0.9,0-1.6-0.7-1.6-1.6v-18c0-0.9,0.7-1.6,1.6-1.6c0.9,0,1.6,0.7,1.6,1.6v18
		C303.6,136.4,302.8,137.1,302,137.1z"/>
	<g>
		<polygon class="st2" points="295.7,122.6 296.8,123.7 302.1,118 307.3,123.7 308.5,122.6 302.1,115.7 		"/>
	</g>
</g>
<g class="st3">
	<path class="st2" d="M278,255.4c-0.6,0-1.2-0.5-1.2-1.2c0-0.6,0.5-1.2,1.2-1.2l17.8,0c0,0,0,0,0,0c0.6,0,1.2,0.5,1.2,1.2
		c0,0.7-0.5,1.2-1.2,1.2L278,255.4C278,255.4,278,255.4,278,255.4z"/>
	<path class="st2" d="M287,264.3c-0.7,0-1.2-0.5-1.2-1.2l0-17.8c0-0.6,0.5-1.2,1.2-1.2c0,0,0,0,0,0c0.6,0,1.2,0.5,1.2,1.2l0,17.8
		C288.1,263.8,287.6,264.3,287,264.3L287,264.3z"/>
</g>
<g class="st3">
	<path class="st2" d="M129.7,44.8c-0.6,0-1.2-0.5-1.2-1.2c0-0.6,0.5-1.2,1.2-1.2l17.8,0h0c0.6,0,1.2,0.5,1.2,1.2
		c0,0.6-0.5,1.2-1.2,1.2L129.7,44.8C129.7,44.8,129.7,44.8,129.7,44.8z"/>
	<path class="st2" d="M138.6,53.7c-0.6,0-1.2-0.5-1.2-1.2l0-17.8c0-0.6,0.5-1.2,1.2-1.2h0c0.6,0,1.2,0.5,1.2,1.2l0,17.8
		C139.8,53.2,139.3,53.7,138.6,53.7L138.6,53.7z"/>
</g>
<g class="st3">
	<path class="st2" d="M64.9,182.4c-0.9,0-1.6-0.7-1.6-1.6V145l-13.6-11.2V97.9c0-0.9,0.7-1.6,1.6-1.6c0.9,0,1.6,0.7,1.6,1.6v34.3
		l13.6,11.2v37.4C66.5,181.7,65.8,182.4,64.9,182.4z"/>
	<g>
		<polygon class="st2" points="43.1,104.1 44.5,105.4 50.8,98.6 57.1,105.4 58.5,104.1 50.8,95.9 		"/>
	</g>
</g>
<g class="st3">
	<path class="st2" d="M266.2,114.8c-0.9,0-1.6-0.7-1.6-1.6V69.5L251,56.6V21.7c0-0.9,0.7-1.6,1.6-1.6c0.9,0,1.6,0.7,1.6,1.6v33.5
		l13.6,12.9v45.1C267.8,114.1,267.1,114.8,266.2,114.8z"/>
	<g>
		<polygon class="st2" points="245.3,27.7 246.6,29 252.9,22.2 259.2,29 260.6,27.7 252.9,19.4 		"/>
	</g>
</g>
<path class="st1" d="M68.3,318.6l-2.1-2.4l28.5-25c2.1-1.8,2.3-4.9,0.5-7l-43.1-50c-1.8-2.1-4.9-2.3-7-0.5l-17.6,16.7l44.1,49.7
	l-2.3,2.1l-46.1-52l19.9-18.8c3.4-3,8.6-2.6,11.5,0.8l43.1,50c2.9,3.4,2.5,8.5-0.9,11.4L68.3,318.6z"/>
<rect x="6.6" y="258.7" transform="matrix(0.7492 -0.6624 0.6624 0.7492 -167.9737 76.9555)" class="st1" width="22" height="3.1"/>
<linearGradient id="SVGID_1_" gradientUnits="userSpaceOnUse" x1="152.7277" y1="141.7012" x2="234.5675" y2="141.7012">
	<stop  offset="0.2737" style="stop-color:#221837;stop-opacity:0"/>
	<stop  offset="1" style="stop-color:#221837;stop-opacity:0.6"/>
</linearGradient>
<path class="st4" d="M186.1,150.9c0,14.7-5.9,26.8-15.6,36.4c2.7,0,6.6,0.4,9.3,0.7c4.3,0.5,11.1,0.9,14.9,3.3
	c5.5,3.4,7.9,8.4,7.9,14.2c7-0.8,5.7-0.5,13.1-2.6c2.8-3.2,6.5-8.3,9.3-11.5c2.8-3.4,9.6-10.6,9.7-10.7V91.8c0,0,1.8-13.3-34.7-13.9
	c-35.9-0.5-47.1,13.4-47.1,13.4v10.5C172.3,109.6,186.1,128.6,186.1,150.9z"/>
<path class="st0" d="M142,153.6c2.1-1.9,3.5-4.7,3.5-7.7c0-4.3-2.7-8-6.4-9.6V133c0-1.4-1.2-2.6-2.6-2.6c-1.4,0-2.6,1.2-2.6,2.6v2.6
	h-5.2V133c0-1.4-1.2-2.6-2.6-2.6s-2.6,1.2-2.6,2.6v2.6h-5.2c-1.4,0-2.6,1.2-2.6,2.6c0,1.4,1.2,2.6,2.6,2.6h2.6v12.9v12.9h-2.6
	c-1.4,0-2.6,1.2-2.6,2.6c0,1.4,1.2,2.6,2.6,2.6h5.2v2.6c0,1.4,1.2,2.6,2.6,2.6s2.6-1.2,2.6-2.6v-2.6h5.2v2.6c0,1.4,1.2,2.6,2.6,2.6
	c1.4,0,2.6-1.2,2.6-2.6v-3.3c3.8-1.5,6.4-5.2,6.4-9.6C145.5,158.2,144.2,155.5,142,153.6z M126.2,140.7h9c2.8,0,5.2,2.3,5.2,5.2
	s-2.3,5.2-5.2,5.2h-9V140.7z M135.2,166.5h-9v-10.3h9c2.8,0,5.2,2.3,5.2,5.2C140.4,164.2,138.1,166.5,135.2,166.5z"/>
</svg>
