<?xml version="1.0" encoding="utf-8"?>
<!-- Generator: Adobe Illustrator 25.1.0, SVG Export Plug-In . SVG Version: 6.00 Build 0)  -->
<svg version="1.1" id="Layer_1" xmlns="http://www.w3.org/2000/svg" xmlns:xlink="http://www.w3.org/1999/xlink" x="0px" y="0px"
	 viewBox="0 0 392.6 391.3" style="enable-background:new 0 0 392.6 391.3;" xml:space="preserve">
<style type="text/css">
	.st0{fill:#E14135;}
	.st1{fill:#827D95;}
</style>
<g>
	<g>
		<g>
			<g>
				<g>
					<g>
						<g>
							<g>
								<path class="st0" d="M102.8,282.2c-3.6,0-6.6-2.9-6.6-6.6c0-3.6,2.9-6.6,6.6-6.6c3.6,0,6.6,2.9,6.6,6.6
									C109.4,279.3,106.5,282.2,102.8,282.2z"/>
							</g>
						</g>
						<g>
							<path class="st0" d="M97.1,283.3h1.3l0,0l4.4,4.4l4.4-4.4l0,0h1.3c3.1,0,5.6,2.5,5.6,5.6l-6.6,4.7l-7.9,1l-8.1-5.7
								C91.5,285.8,94,283.3,97.1,283.3z"/>
						</g>
					</g>
				</g>
				<g>
					<g>
						<g>
							<g>
								<path class="st1" d="M25.4,257.4c-3.9,0-7.1-3.2-7.1-7.1s3.2-7.1,7.1-7.1s7.1,3.2,7.1,7.1C32.6,254.2,29.4,257.4,25.4,257.4
									z"/>
							</g>
						</g>
						<g>
							<path class="st1" d="M19.2,258.5h1.4l0,0l4.8,4.8l4.7-4.8l0,0h1.4c3.3,0,6.1,2.7,6.1,6.1l-8.8,6.2l-8.6-1l-7.2-5.1
								C13.2,261.2,15.9,258.5,19.2,258.5z"/>
						</g>
					</g>
				</g>
				<g>
					<g>
						<g>
							<g>
								<path class="st1" d="M259,318.7c-6.5,0-11.7-5.2-11.7-11.7s5.2-11.7,11.7-11.7c6.4,0,11.7,5.2,11.7,11.7
									S265.4,318.7,259,318.7z"/>
							</g>
						</g>
						<g>
							<path class="st1" d="M248.8,320.5h2.4l0,0l7.8,7.8l7.8-7.8l0,0h2.4c5.5,0,9.9,4.5,9.9,9.9l-8.6,7.3l-11.6,2.9l-12.5-3.1
								l-7.6-7C238.9,325,243.3,320.5,248.8,320.5z"/>
						</g>
					</g>
				</g>
				<g>
					<g>
						<g>
							<g>
								<path class="st1" d="M126.3,137.8c-4.5,0-8.2-3.7-8.2-8.2s3.7-8.2,8.2-8.2s8.2,3.7,8.2,8.2
									C134.5,134.1,130.8,137.8,126.3,137.8z"/>
							</g>
						</g>
						<g>
							<path class="st1" d="M119.1,139.1h1.7l0,0l5.5,5.5l5.5-5.5l0,0h1.7c3.9,0,7,3.1,7,7l-6.5,5.6l-6.7,1.3l-7.5-0.7l-7.5-6.2
								C112.2,142.2,115.3,139.1,119.1,139.1z"/>
						</g>
					</g>
				</g>
				<g>
					<g>
						<g>
							<path class="st1" d="M86.1,201.6H88l0,0l6.3,6.3l6.3-6.3l0,0h1.9c4.5,0,8.1,3.6,8.1,8.1l-9.7,7.2H86.4l-8.5-7.2
								C78,205.2,81.7,201.6,86.1,201.6z"/>
						</g>
						<g>
							<g>
								<path class="st1" d="M94.4,200.1c-5.2,0-9.5-4.3-9.5-9.5c0-5.3,4.2-9.5,9.5-9.5s9.5,4.3,9.5,9.5
									C103.9,195.9,99.6,200.1,94.4,200.1z"/>
							</g>
						</g>
					</g>
				</g>
				<g>
					<g>
						<g>
							<g>
								<path class="st0" d="M46.1,106.8c5.2,0,9.5-4.3,9.5-9.5c0-5.3-4.2-9.5-9.5-9.5s-9.5,4.3-9.5,9.5
									C36.5,102.6,40.8,106.8,46.1,106.8z"/>
							</g>
						</g>
						<g>
							<path class="st0" d="M54.3,108.3h-1.9l0,0l-6.3,6.3l-6.3-6.3l0,0h-1.9c-4.5,0-8.1,3.6-8.1,8.1l7.6,6.4l7.2,2l7-1.2l5.9-2.3
								l5-4.9C62.4,111.9,58.8,108.3,54.3,108.3z"/>
						</g>
					</g>
				</g>
				<g>
					<g>
						<g>
							<g>
								<path class="st1" d="M102.8,45.4c4.1,0,7.5-3.3,7.5-7.5c0-4.1-3.3-7.5-7.5-7.5c-4.1,0-7.5,3.3-7.5,7.5S98.7,45.4,102.8,45.4
									z"/>
							</g>
						</g>
						<g>
							<path class="st1" d="M109.3,46.6h-1.5l0,0l-5,5l-5-5l0,0h-1.5c-3.5,0-6.4,2.8-6.4,6.4l6.8,5.1l10.9,1l8-6.1
								C115.7,49.5,112.9,46.6,109.3,46.6z"/>
						</g>
					</g>
				</g>
				<g>
					<g>
						<g>
							<g>
								<path class="st0" d="M189.7,264c4.7,0,8.6-3.8,8.6-8.6c0-4.7-3.9-8.6-8.6-8.6c-4.7,0-8.6,3.8-8.6,8.6
									C181.1,260.2,184.9,264,189.7,264z"/>
							</g>
						</g>
						<g>
							<path class="st0" d="M197.1,265.3h-1.7l0,0l-5.7,5.7l-5.7-5.7l0,0h-1.8c-4,0-7.3,3.3-7.3,7.3l8.6,6.6h12.7l8.2-6.6
								C204.4,268.6,201.2,265.3,197.1,265.3z"/>
						</g>
					</g>
				</g>
				<g>
					<g>
						<g>
							<g>
								<path class="st1" d="M286.6,236.9c4.8,0,8.6-3.8,8.6-8.6c0-4.7-3.9-8.6-8.6-8.6s-8.6,3.8-8.6,8.6
									C278.1,233.1,281.9,236.9,286.6,236.9z"/>
							</g>
						</g>
						<g>
							<path class="st1" d="M294.1,238.3h-1.7l0,0l-5.7,5.7l-5.7-5.7l0,0h-1.8c-4,0-7.3,3.3-7.3,7.3l8.8,6.5l12.4,0.3l8.3-6.8
								C301.4,241.6,298.1,238.3,294.1,238.3z"/>
						</g>
					</g>
				</g>
				<g>
					<g>
						<g>
							<g>
								<path class="st1" d="M304.5,54.6c4.1,0,7.4-3.3,7.4-7.4s-3.3-7.4-7.4-7.4s-7.4,3.3-7.4,7.4S300.4,54.6,304.5,54.6z"/>
							</g>
						</g>
						<g>
							<path class="st1" d="M311,55.8h-1.5l0,0l-5,4.9l-4.9-4.9l0,0h-1.5c-3.5,0-6.3,2.8-6.3,6.3l9.1,6.4l8.9-1.1l7.5-5.3
								C317.3,58.6,314.5,55.8,311,55.8z"/>
						</g>
					</g>
				</g>
				<g>
					<g>
						<g>
							<g>
								<path class="st1" d="M363.6,133c4.1,0,7.4-3.3,7.4-7.4c0-4.1-3.3-7.4-7.4-7.4s-7.4,3.3-7.4,7.4S359.5,133,363.6,133z"/>
							</g>
						</g>
						<g>
							<path class="st1" d="M370.1,134.2h-1.5l0,0l-5,4.9l-4.9-4.9l0,0h-1.5c-3.5,0-6.3,2.8-6.3,6.3l9.1,6.4l8.9-1.1l7.5-5.3
								C376.4,137,373.6,134.2,370.1,134.2z"/>
						</g>
					</g>
				</g>
				<g>
					<g>
						<g>
							<g>
								<path class="st1" d="M330.6,179c3.3,0,6-2.7,6-6s-2.7-6-6-6s-6,2.7-6,6S327.3,179,330.6,179z"/>
							</g>
						</g>
						<g>
							<path class="st1" d="M335.8,179.9h-1.2l0,0l-4,4l-4-4l0,0h-1.2c-2.8,0-5.1,2.3-5.1,5.1l7.3,5.2l7.2-0.9l6-4.3
								C340.8,182.2,338.6,179.9,335.8,179.9z"/>
						</g>
					</g>
				</g>
				<g>
					<g>
						<g>
							<g>
								<path class="st1" d="M342.4,304.6c4,0,7.3-3.2,7.3-7.2s-3.3-7.3-7.3-7.3s-7.2,3.2-7.2,7.3
									C335.1,301.4,338.3,304.6,342.4,304.6z"/>
							</g>
						</g>
						<g>
							<path class="st1" d="M348.7,305.7h-1.5l0,0l-4.8,4.8l-4.8-4.8l0,0h-1.5c-3.4,0-6.2,2.8-6.2,6.2l8.9,6.3l8.7-1.1l7.3-5.2
								C354.8,308.5,352.1,305.7,348.7,305.7z"/>
						</g>
					</g>
				</g>
				<g>
					<g>
						<g>
							<g>
								<path class="st0" d="M161.5,194c2.8,0,5.2-2.3,5.2-5.1s-2.3-5.1-5.2-5.1c-2.8,0-5.1,2.3-5.1,5.1
									C156.3,191.7,158.6,194,161.5,194z"/>
							</g>
						</g>
						<g>
							<path class="st0" d="M165.9,194.8h-1l0,0l-3.4,3.4l-3.4-3.4l0,0h-1c-2.4,0-4.4,2-4.4,4.4l6.3,4.5l6.2-0.8l5.2-3.7
								C170.3,196.7,168.4,194.8,165.9,194.8z"/>
						</g>
					</g>
				</g>
				<g>
					<g>
						<g>
							<g>
								<path class="st0" d="M211.2,381c2.8,0,5.2-2.3,5.2-5.1c0-2.8-2.3-5.1-5.2-5.1c-2.8,0-5.1,2.3-5.1,5.1S208.4,381,211.2,381z"
									/>
							</g>
						</g>
						<g>
							<path class="st0" d="M215.7,381.8h-1l0,0l-3.4,3.4l-3.4-3.4l0,0h-1c-2.4,0-4.4,2-4.4,4.4l6.3,4.5l6.2-0.8l5.2-3.7
								C220,383.8,218.1,381.8,215.7,381.8z"/>
						</g>
					</g>
				</g>
				<g>
					<g>
						<g>
							<g>
								<path class="st1" d="M250.3,21.7c2.8,0,5.2-2.3,5.2-5.1s-2.3-5.1-5.2-5.1c-2.8,0-5.1,2.3-5.1,5.1S247.5,21.7,250.3,21.7z"/>
							</g>
						</g>
						<g>
							<path class="st1" d="M254.8,22.5h-1l0,0l-3.4,3.4l-3.4-3.4l0,0h-1c-2.4,0-4.4,2-4.4,4.4l6.3,4.5l6.2-0.8l5.2-3.7
								C259.2,24.4,257.2,22.5,254.8,22.5z"/>
						</g>
					</g>
				</g>
				<g>
					<g>
						<g>
							<g>
								<path class="st1" d="M144.1,84.6c2.8,0,5.2-2.3,5.2-5.1s-2.3-5.1-5.2-5.1c-2.8,0-5.1,2.3-5.1,5.1
									C138.9,82.3,141.2,84.6,144.1,84.6z"/>
							</g>
						</g>
						<g>
							<path class="st1" d="M148.5,85.4h-1l0,0l-3.4,3.4l-3.4-3.4l0,0h-1c-2.4,0-4.4,2-4.4,4.4l6.3,4.5l6.2-0.8l5.2-3.7
								C152.9,87.4,151,85.4,148.5,85.4z"/>
						</g>
					</g>
				</g>
				<g>
					<g>
						<g>
							<g>
								<path class="st1" d="M223.1,108.6c3.8,0,6.9-3.1,6.9-6.9c0-3.8-3.1-6.9-6.9-6.9c-3.8,0-6.9,3.1-6.9,6.9
									S219.3,108.6,223.1,108.6z"/>
							</g>
						</g>
						<g>
							<path class="st1" d="M229.1,109.7h-1.4l0,0l-4.6,4.6l-4.6-4.6l0,0h-1.4c-3.2,0-5.9,2.6-5.9,5.9l6.3,4.7l10.1,0.8l7.4-5.5
								C235,112.3,232.3,109.7,229.1,109.7z"/>
						</g>
					</g>
				</g>
				<g>
					<g>
						<g>
							<g>
								<path class="st1" d="M216.2,186.5c5.2,0,9.5-4.3,9.5-9.5c0-5.3-4.3-9.5-9.5-9.5s-9.5,4.3-9.5,9.5S210.9,186.5,216.2,186.5z"
									/>
							</g>
						</g>
						<g>
							<path class="st1" d="M224.4,188h-1.9l0,0l-6.3,6.3l-6.3-6.3l0,0H208c-4.5,0-8.1,3.6-8.1,8.1l9.2,7.2h14.4l9.1-7.2
								C232.5,191.6,228.9,188,224.4,188z"/>
						</g>
					</g>
				</g>
				<g>
					<g>
						<g>
							<g>
								<path class="st0" d="M369.6,229.2c5.2,0,9.5-4.3,9.5-9.5c0-5.3-4.3-9.5-9.5-9.5s-9.5,4.3-9.5,9.5S364.3,229.2,369.6,229.2z"
									/>
							</g>
						</g>
						<g>
							<path class="st0" d="M377.8,230.7h-1.9l0,0l-6.3,6.3l-6.4-6.3l0,0h-1.9c-4.5,0-8.1,3.6-8.1,8.1l7.9,6.6l12.1,1.4l7.1-2.8
								l5.5-5.1C385.9,234.3,382.3,230.7,377.8,230.7z"/>
						</g>
					</g>
				</g>
				<g>
					<g>
						<g>
							<g>
								<path class="st0" d="M296.1,125c-5.2,0-9.5-4.3-9.5-9.5c0-5.3,4.3-9.5,9.5-9.5s9.5,4.3,9.5,9.5
									C305.7,120.7,301.4,125,296.1,125z"/>
							</g>
						</g>
						<g>
							<path class="st0" d="M287.9,126.5h1.9l0,0l6.3,6.3l6.3-6.3l0,0h1.9c4.5,0,8.1,3.6,8.1,8.1l-8.8,7.2l-14.2,0.3l-9.7-7.4
								C279.8,130.1,283.4,126.5,287.9,126.5z"/>
						</g>
					</g>
				</g>
				<g>
					<g>
						<g>
							<g>
								<path class="st1" d="M18.6,182.9c4.5,0,8.1-3.6,8.1-8.1c0-4.4-3.6-8.1-8.1-8.1c-4.4,0-8.1,3.6-8.1,8.1
									C10.6,179.3,14.2,182.9,18.6,182.9z"/>
							</g>
						</g>
						<g>
							<path class="st1" d="M25.6,184.1H24l0,0l-5.4,5.4l-5.4-5.4l0,0h-1.6c-3.8,0-6.8,3.1-6.8,6.9l3.8,3.4l6.1,3.6l9.7-1.2l8.1-5.8
								C32.5,187.2,29.4,184.1,25.6,184.1z"/>
						</g>
					</g>
				</g>
				<g>
					<g>
						<g>
							<g>
								<path class="st0" d="M161.5,21.8c4.3,0,7.9-3.5,7.9-7.9c0-4.3-3.5-7.9-7.9-7.9c-4.3,0-7.9,3.5-7.9,7.9
									C153.6,18.3,157.2,21.8,161.5,21.8z"/>
							</g>
						</g>
						<g>
							<path class="st0" d="M168.3,23.1h-1.6l0,0l-5.2,5.2l-5.2-5.2l0,0h-1.6c-3.7,0-6.7,3-6.7,6.7l8.1,6l11-0.4l7.9-5.6
								C175,26.1,172,23.1,168.3,23.1z"/>
						</g>
					</g>
				</g>
				<g>
					<g>
						<g>
							<g>
								<path class="st1" d="M157.6,334.3c4.3,0,7.9-3.5,7.9-7.8s-3.5-7.9-7.9-7.9c-4.3,0-7.9,3.5-7.9,7.9
									C149.7,330.8,153.2,334.3,157.6,334.3z"/>
							</g>
						</g>
						<g>
							<path class="st1" d="M164.4,335.5h-1.6l0,0l-5.2,5.2l-5.2-5.2l0,0h-1.6c-3.7,0-6.7,3-6.7,6.7l8.3,6.2l10.8-0.6l7.9-5.6
								C171.1,338.5,168.1,335.5,164.4,335.5z"/>
						</g>
					</g>
				</g>
				<g>
					<g>
						<g>
							<g>
								<path class="st1" d="M93.5,347.6c3.6,0,6.6-2.9,6.6-6.5s-2.9-6.5-6.6-6.5c-3.6,0-6.5,2.9-6.5,6.5
									C86.9,344.6,89.9,347.6,93.5,347.6z"/>
							</g>
						</g>
						<g>
							<path class="st1" d="M99.2,348.6h-1.3l0,0l-4.4,4.4l-4.4-4.4l0,0h-1.3c-3.1,0-5.6,2.5-5.6,5.6l8,5.7l7.9-1l6.6-4.7
								C104.7,351.1,102.2,348.6,99.2,348.6z"/>
						</g>
					</g>
				</g>
			</g>
		</g>
	</g>
</g>
<g>
	<g>
		<path class="st1" d="M102.9,295.1c-8.5,0-15.4-6.9-15.4-15.4s6.9-15.4,15.4-15.4s15.4,6.9,15.4,15.4
			C118.2,288.2,111.3,295.1,102.9,295.1z M102.9,265.9c-7.6,0-13.9,6.2-13.9,13.9c0,7.6,6.2,13.9,13.9,13.9
			c7.6,0,13.9-6.2,13.9-13.9C116.7,272.1,110.5,265.9,102.9,265.9z"/>
	</g>
</g>
<g>
	<g>
		<path class="st1" d="M25.5,271.3c-9.2,0-16.6-7.4-16.6-16.6c0-9.2,7.5-16.6,16.6-16.6c9.2,0,16.6,7.4,16.6,16.6
			C42,263.8,34.6,271.3,25.5,271.3z M25.5,239.6c-8.3,0-15.1,6.8-15.1,15.1c0,8.3,6.8,15.1,15.1,15.1s15.1-6.8,15.1-15.1
			C40.5,246.3,33.8,239.6,25.5,239.6z"/>
	</g>
</g>
<g>
	<g>
		<path class="st1" d="M259,341c-14.8,0-26.8-12-26.8-26.7s12-26.7,26.8-26.7c14.7,0,26.7,12,26.7,26.7S273.7,341,259,341z M259,289
			c-13.9,0-25.3,11.3-25.3,25.2c0,13.9,11.3,25.2,25.3,25.2c13.9,0,25.2-11.3,25.2-25.2C284.2,300.3,272.9,289,259,289z"/>
	</g>
</g>
<g>
	<g>
		<path class="st1" d="M126.3,153.6c-10.5,0-19-8.5-19-19s8.5-19,19-19s19,8.5,19,19S136.8,153.6,126.3,153.6z M126.3,117.1
			c-9.7,0-17.5,7.9-17.5,17.5s7.9,17.5,17.5,17.5c9.7,0,17.5-7.9,17.5-17.5C143.8,125,135.9,117.1,126.3,117.1z"/>
	</g>
</g>
<g>
	<g>
		<path class="st1" d="M94.4,218.4c-12.1,0-21.9-9.8-21.9-21.9c0-12.1,9.8-21.9,21.9-21.9c12.1,0,21.9,9.8,21.9,21.9
			C116.3,208.6,106.5,218.4,94.4,218.4z M94.4,176.1c-11.2,0-20.4,9.1-20.4,20.4c0,11.2,9.1,20.4,20.4,20.4
			c11.2,0,20.4-9.1,20.4-20.4C114.8,185.3,105.6,176.1,94.4,176.1z"/>
	</g>
</g>
<g>
	<g>
		<path class="st1" d="M46.1,125.1c-12.1,0-21.9-9.8-21.9-21.9S34,81.3,46.1,81.3S68,91.1,68,103.2C68,115.3,58.1,125.1,46.1,125.1z
			 M46.1,82.8c-11.2,0-20.4,9.1-20.4,20.4c0,11.2,9.2,20.4,20.4,20.4s20.4-9.1,20.4-20.4C66.5,92,57.3,82.8,46.1,82.8z"/>
	</g>
</g>
<g>
	<g>
		<path class="st1" d="M102.9,60c-9.6,0-17.4-7.8-17.4-17.4s7.8-17.4,17.4-17.4c9.6,0,17.4,7.8,17.4,17.4
			C120.3,52.2,112.4,60,102.9,60z M102.9,26.7c-8.8,0-15.9,7.1-15.9,15.9s7.1,15.9,15.9,15.9s15.9-7.1,15.9-15.9
			C118.8,33.8,111.6,26.7,102.9,26.7z"/>
	</g>
</g>
<g>
	<g>
		<path class="st1" d="M189.7,280.6c-10.9,0-19.8-8.9-19.8-19.8c0-10.9,8.9-19.9,19.8-19.9c11,0,19.9,8.9,19.9,19.9
			C209.5,271.7,200.6,280.6,189.7,280.6z M189.7,242.4c-10.1,0-18.3,8.2-18.3,18.4c0,10.1,8.2,18.3,18.3,18.3s18.4-8.2,18.4-18.3
			C208,250.6,199.8,242.4,189.7,242.4z"/>
	</g>
</g>
<g>
	<g>
		<path class="st1" d="M286.7,253.5c-10.9,0-19.8-8.9-19.8-19.8s8.9-19.9,19.8-19.9c11,0,19.9,8.9,19.9,19.9
			C306.5,244.6,297.6,253.5,286.7,253.5z M286.7,215.3c-10.1,0-18.3,8.2-18.3,18.4c0,10.1,8.2,18.3,18.3,18.3
			c10.1,0,18.4-8.2,18.4-18.3C305,223.6,296.8,215.3,286.7,215.3z"/>
	</g>
</g>
<g>
	<g>
		<path class="st1" d="M304.6,69.1c-9.5,0-17.3-7.7-17.3-17.3c0-9.5,7.7-17.3,17.3-17.3c9.5,0,17.3,7.7,17.3,17.3
			C321.8,61.3,314.1,69.1,304.6,69.1z M304.6,36c-8.7,0-15.8,7.1-15.8,15.8s7.1,15.8,15.8,15.8c8.7,0,15.8-7.1,15.8-15.8
			C320.3,43.1,313.3,36,304.6,36z"/>
	</g>
</g>
<g>
	<g>
		<path class="st1" d="M363.6,147.5c-9.5,0-17.3-7.7-17.3-17.3c0-9.5,7.7-17.3,17.3-17.3c9.5,0,17.3,7.7,17.3,17.3
			C380.9,139.7,373.2,147.5,363.6,147.5z M363.6,114.4c-8.7,0-15.8,7.1-15.8,15.8s7.1,15.8,15.8,15.8c8.7,0,15.8-7.1,15.8-15.8
			C379.4,121.5,372.3,114.4,363.6,114.4z"/>
	</g>
</g>
<g>
	<g>
		<path class="st1" d="M330.6,190.7c-7.7,0-14-6.3-14-14s6.3-14,14-14s14,6.3,14,14S338.3,190.7,330.6,190.7z M330.6,164.2
			c-6.9,0-12.5,5.6-12.5,12.5s5.6,12.5,12.5,12.5s12.5-5.6,12.5-12.5S337.5,164.2,330.6,164.2z"/>
	</g>
</g>
<g>
	<g>
		<path class="st1" d="M342.4,318.7c-9.3,0-16.9-7.6-16.9-16.9s7.6-16.9,16.9-16.9s16.9,7.6,16.9,16.9
			C359.2,311.1,351.7,318.7,342.4,318.7z M342.4,286.5c-8.5,0-15.4,6.9-15.4,15.4s6.9,15.4,15.4,15.4s15.4-6.9,15.4-15.4
			C357.7,293.4,350.8,286.5,342.4,286.5z"/>
	</g>
</g>
<g>
	<g>
		<path class="st1" d="M161.5,204.2c-6.7,0-12.2-5.5-12.2-12.2s5.5-12.2,12.2-12.2s12.2,5.5,12.2,12.2S168.2,204.2,161.5,204.2z
			 M161.5,181.3c-5.9,0-10.7,4.8-10.7,10.7s4.8,10.7,10.7,10.7s10.7-4.8,10.7-10.7C172.2,186.1,167.4,181.3,161.5,181.3z"/>
	</g>
</g>
<g>
	<g>
		<path class="st1" d="M211.2,391.3c-6.7,0-12.2-5.5-12.2-12.2s5.5-12.2,12.2-12.2s12.2,5.5,12.2,12.2S217.9,391.3,211.2,391.3z
			 M211.2,368.4c-5.9,0-10.7,4.8-10.7,10.7c0,5.9,4.8,10.7,10.7,10.7s10.7-4.8,10.7-10.7S217.1,368.4,211.2,368.4z"/>
	</g>
</g>
<g>
	<g>
		<path class="st1" d="M250.3,31.9c-6.7,0-12.2-5.5-12.2-12.2s5.5-12.2,12.2-12.2c6.7,0,12.2,5.5,12.2,12.2
			C262.5,26.4,257,31.9,250.3,31.9z M250.3,9c-5.9,0-10.7,4.8-10.7,10.7s4.8,10.7,10.7,10.7c5.9,0,10.7-4.8,10.7-10.7
			C261,13.8,256.2,9,250.3,9z"/>
	</g>
</g>
<g>
	<g>
		<path class="st1" d="M144.1,94.9c-6.7,0-12.2-5.5-12.2-12.2s5.5-12.2,12.2-12.2s12.2,5.5,12.2,12.2
			C156.3,89.4,150.8,94.9,144.1,94.9z M144.1,72c-5.9,0-10.7,4.8-10.7,10.7c0,5.9,4.8,10.7,10.7,10.7s10.7-4.8,10.7-10.7
			C154.8,76.8,150,72,144.1,72z"/>
	</g>
</g>
<g>
	<g>
		<path class="st1" d="M223.1,122.1c-8.9,0-16.1-7.2-16.1-16.1c0-8.9,7.2-16.1,16.1-16.1c8.9,0,16.1,7.2,16.1,16.1
			C239.2,114.9,232,122.1,223.1,122.1z M223.1,91.4c-8.1,0-14.6,6.6-14.6,14.6c0,8.1,6.6,14.6,14.6,14.6c8.1,0,14.6-6.6,14.6-14.6
			C237.7,97.9,231.1,91.4,223.1,91.4z"/>
	</g>
</g>
<g>
	<g>
		<path class="st1" d="M216.2,204.8c-12.1,0-21.9-9.8-21.9-21.9c0-12.1,9.8-21.9,21.9-21.9c12.1,0,21.9,9.8,21.9,21.9
			C238.1,194.9,228.3,204.8,216.2,204.8z M216.2,162.5c-11.2,0-20.4,9.1-20.4,20.4c0,11.2,9.1,20.4,20.4,20.4
			c11.2,0,20.4-9.1,20.4-20.4C236.6,171.6,227.4,162.5,216.2,162.5z"/>
	</g>
</g>
<g>
	<g>
		<path class="st1" d="M369.6,247.4c-12.1,0-21.9-9.8-21.9-21.9s9.8-21.9,21.9-21.9s21.9,9.8,21.9,21.9
			C391.5,237.6,381.7,247.4,369.6,247.4z M369.6,205.2c-11.2,0-20.4,9.1-20.4,20.4c0,11.2,9.1,20.4,20.4,20.4
			c11.2,0,20.4-9.1,20.4-20.4S380.8,205.2,369.6,205.2z"/>
	</g>
</g>
<g>
	<g>
		<path class="st1" d="M296.2,143.2c-12.1,0-21.9-9.8-21.9-21.9c0-12.1,9.8-21.9,21.9-21.9s21.9,9.8,21.9,21.9
			S308.2,143.2,296.2,143.2z M296.2,101c-11.2,0-20.4,9.1-20.4,20.4c0,11.2,9.1,20.4,20.4,20.4c11.2,0,20.4-9.1,20.4-20.4
			C316.6,110.1,307.4,101,296.2,101z"/>
	</g>
</g>
<g>
	<g>
		<path class="st1" d="M18.7,198.4C8.4,198.4,0,190,0,179.7S8.4,161,18.7,161s18.7,8.4,18.7,18.7C37.3,190.1,28.9,198.4,18.7,198.4z
			 M18.7,162.6c-9.5,0-17.2,7.7-17.2,17.2S9.2,197,18.7,197s17.2-7.7,17.2-17.2C35.8,170.3,28.1,162.6,18.7,162.6z"/>
	</g>
</g>
<g>
	<g>
		<path class="st1" d="M161.5,37.1c-10,0-18.2-8.2-18.2-18.2s8.2-18.2,18.2-18.2s18.2,8.2,18.2,18.2S171.6,37.1,161.5,37.1z
			 M161.5,2.1c-9.2,0-16.7,7.5-16.7,16.7s7.5,16.7,16.7,16.7s16.7-7.5,16.7-16.7S170.7,2.1,161.5,2.1z"/>
	</g>
</g>
<g>
	<g>
		<path class="st1" d="M157.6,349.5c-10,0-18.2-8.2-18.2-18.2s8.2-18.2,18.2-18.2s18.2,8.2,18.2,18.2
			C175.8,341.3,167.6,349.5,157.6,349.5z M157.6,314.6c-9.2,0-16.7,7.5-16.7,16.7s7.5,16.7,16.7,16.7s16.7-7.5,16.7-16.7
			C174.3,322.1,166.8,314.6,157.6,314.6z"/>
	</g>
</g>
<g>
	<g>
		<path class="st1" d="M93.5,360.4c-8.4,0-15.3-6.9-15.3-15.3s6.9-15.3,15.3-15.3s15.3,6.9,15.3,15.3
			C108.8,353.5,101.9,360.4,93.5,360.4z M93.5,331.3c-7.6,0-13.8,6.2-13.8,13.8c0,7.6,6.2,13.8,13.8,13.8s13.8-6.2,13.8-13.8
			C107.3,337.5,101.1,331.3,93.5,331.3z"/>
	</g>
</g>
<g>
	<g>
		<g>
			<g>
				<path class="st1" d="M143.9,130.7c-0.3,0-0.6-0.2-0.7-0.6c-0.1-0.4,0.2-0.8,0.6-0.9l66.3-15.6c0.4-0.1,0.8,0.2,0.9,0.6
					c0.1,0.4-0.2,0.8-0.6,0.9l-66.3,15.6C144,130.7,144,130.7,143.9,130.7z"/>
			</g>
			<g>
				<path class="st1" d="M112.1,269.1c-0.1,0-0.3,0-0.4-0.1c-0.3-0.2-0.4-0.7-0.2-1l22.7-34.2c0.2-0.3,0.7-0.4,1-0.2
					c0.3,0.2,0.4,0.7,0.2,1l-22.7,34.2C112.5,269,112.3,269.1,112.1,269.1z"/>
			</g>
			<g>
				<path class="st1" d="M141.1,225.4c-0.1,0-0.3,0-0.4-0.1c-0.3-0.2-0.4-0.7-0.2-1l15-22.6c0.2-0.3,0.7-0.4,1-0.2s0.4,0.7,0.2,1
					l-15,22.6C141.6,225.3,141.3,225.4,141.1,225.4z"/>
			</g>
			<g>
				<path class="st1" d="M218.3,162.6L218.3,162.6c-0.5,0-0.8-0.4-0.7-0.8l3.6-40.6c0-0.4,0.4-0.7,0.8-0.7c0.4,0,0.7,0.4,0.7,0.8
					l-3.6,40.6C219,162.3,218.7,162.6,218.3,162.6z"/>
			</g>
			<g>
				<path class="st1" d="M169.1,184.2c-0.2,0-0.3,0-0.4-0.1c-0.3-0.2-0.4-0.7-0.2-1l18.5-25.7c0.2-0.3,0.7-0.4,1-0.2s0.4,0.7,0.2,1
					l-18.5,25.7C169.5,184.1,169.3,184.2,169.1,184.2z"/>
			</g>
			<g>
				<path class="st1" d="M192.5,151.9c-0.2,0-0.3,0-0.4-0.1c-0.3-0.2-0.4-0.7-0.2-1l23-31.8c0.2-0.3,0.7-0.4,1-0.2s0.4,0.7,0.2,1
					l-23,31.8C192.9,151.7,192.7,151.9,192.5,151.9z"/>
			</g>
			<g>
				<path class="st1" d="M51.3,191.1c-0.1,0-0.1,0-0.2,0L35,187.4c-0.4-0.1-0.7-0.5-0.6-0.9c0.1-0.4,0.5-0.7,0.9-0.6l16.1,3.7
					c0.4,0.1,0.7,0.5,0.6,0.9C51.9,190.8,51.6,191.1,51.3,191.1z"/>
			</g>
			<g>
				<path class="st1" d="M73.3,196.1c-0.1,0-0.1,0-0.2,0l-17.4-4c-0.4-0.1-0.7-0.5-0.6-0.9s0.5-0.7,0.9-0.6l17.4,4
					c0.4,0.1,0.7,0.5,0.6,0.9C73.9,195.8,73.6,196.1,73.3,196.1z"/>
			</g>
			<g>
				<path class="st1" d="M101.1,266c-0.4,0-0.7-0.3-0.7-0.7l-4.9-47.7c0-0.4,0.3-0.8,0.7-0.8s0.8,0.3,0.8,0.7l4.9,47.7
					C101.9,265.6,101.6,265.9,101.1,266C101.2,266,101.1,266,101.1,266z"/>
			</g>
			<g>
				<path class="st1" d="M88.6,277.5L88.6,277.5c-0.1,0-0.2,0-0.2,0L39,263.4c-0.3-0.1-0.6-0.4-0.6-0.7c0-0.5,0.5-0.9,1-0.7
					l49.4,14.1c0.3,0.1,0.6,0.4,0.6,0.7C89.3,277.2,89,277.5,88.6,277.5z"/>
			</g>
			<g>
				<path class="st1" d="M284.9,313.5c-0.4,0-0.7-0.3-0.7-0.7c0-0.4,0.3-0.8,0.7-0.8l42.6-4.7c0.4-0.1,0.8,0.3,0.8,0.7
					c0,0.4-0.3,0.8-0.7,0.8L284.9,313.5C285,313.5,285,313.5,284.9,313.5z"/>
			</g>
			<g>
				<path class="st1" d="M338.5,166.8c-0.2,0-0.3-0.1-0.5-0.2c-0.3-0.3-0.4-0.7-0.1-1.1l17.7-21.1c0.3-0.3,0.7-0.4,1.1-0.1
					c0.3,0.3,0.4,0.7,0.1,1.1l-17.7,21.1C339,166.7,338.8,166.8,338.5,166.8z"/>
			</g>
			<g>
				<path class="st1" d="M322.4,167c-0.2,0-0.5-0.1-0.6-0.3l-16.6-26.2c-0.2-0.3-0.1-0.8,0.2-1c0.3-0.2,0.8-0.1,1,0.2l16.6,26.1
					c0.2,0.3,0.1,0.8-0.2,1C322.7,166.9,322.6,167,322.4,167z"/>
			</g>
			<g>
				<path class="st1" d="M208.7,259.4c-0.3,0-0.6-0.2-0.7-0.5c-0.1-0.4,0.1-0.8,0.5-0.9l22-6.1c0.4-0.1,0.8,0.1,0.9,0.5
					s-0.1,0.8-0.5,0.9l-22,6.1C208.8,259.4,208.8,259.4,208.7,259.4z"/>
			</g>
			<g>
				<path class="st1" d="M240.1,250.7c-0.3,0-0.6-0.2-0.7-0.5c-0.1-0.4,0.1-0.8,0.5-0.9l29.3-8.2c0.4-0.1,0.8,0.1,0.9,0.5
					s-0.1,0.8-0.5,0.9l-29.3,8.2C240.2,250.7,240.2,250.7,240.1,250.7z"/>
			</g>
			<g>
				<path class="st1" d="M305.6,236.5c-0.4,0-0.7-0.3-0.7-0.7c-0.1-0.4,0.2-0.8,0.7-0.8l43.4-5.3c0.4-0.1,0.8,0.2,0.8,0.7
					c0.1,0.4-0.2,0.8-0.7,0.8L305.6,236.5C305.7,236.5,305.7,236.5,305.6,236.5z"/>
			</g>
			<g>
				<path class="st1" d="M196.8,243.8c-0.1,0-0.2,0-0.2,0c-0.4-0.1-0.6-0.6-0.5-1l13.6-39.8c0.1-0.4,0.6-0.6,1-0.5s0.6,0.6,0.5,1
					l-13.6,39.8C197.5,243.6,197.2,243.8,196.8,243.8z"/>
			</g>
			<g>
				<path class="st1" d="M57.9,86.4c-0.2,0-0.5-0.1-0.6-0.3c-0.2-0.3-0.2-0.8,0.2-1l38.1-27.9c0.3-0.2,0.8-0.2,1,0.2
					c0.2,0.3,0.2,0.8-0.2,1L58.3,86.3C58.2,86.4,58,86.4,57.9,86.4z"/>
			</g>
			<g>
				<path class="st1" d="M108.8,130.2c-0.1,0-0.1,0-0.2,0l-45.4-14.3c-0.4-0.1-0.6-0.5-0.5-0.9s0.5-0.6,0.9-0.5l45.3,14.2
					c0.4,0.1,0.6,0.5,0.5,0.9C109.4,130,109.1,130.2,108.8,130.2z"/>
			</g>
			<g>
				<path class="st1" d="M228.4,92.3c-0.1,0-0.1,0-0.2,0c-0.4-0.1-0.6-0.5-0.5-0.9l19-60.6c0.1-0.4,0.5-0.6,0.9-0.5s0.6,0.5,0.5,0.9
					l-19,60.6C229,92.1,228.7,92.3,228.4,92.3z"/>
			</g>
			<g>
				<path class="st1" d="M199.2,51.6c-0.2,0-0.3,0-0.4-0.1l-26.4-18.8c-0.3-0.2-0.4-0.7-0.2-1s0.7-0.4,1-0.2l26.4,18.8
					c0.3,0.2,0.4,0.7,0.2,1C199.7,51.5,199.5,51.6,199.2,51.6z"/>
			</g>
			<g>
				<path class="st1" d="M215.4,93.5c-0.3,0-0.6-0.2-0.7-0.5l-12.5-34.3c-0.1-0.4,0.1-0.8,0.4-1c0.4-0.1,0.8,0.1,1,0.4l12.5,34.3
					c0.1,0.4-0.1,0.8-0.4,1C215.5,93.4,215.5,93.5,215.4,93.5z"/>
			</g>
			<g>
				<path class="st1" d="M296.4,101c-0.1,0-0.1,0-0.2,0c-0.4-0.1-0.6-0.5-0.5-0.9l8.1-31.9c0.1-0.4,0.5-0.6,0.9-0.5
					c0.4,0.1,0.6,0.5,0.5,0.9l-8.1,31.9C297,100.7,296.7,101,296.4,101z"/>
			</g>
			<g>
				<path class="st1" d="M289.9,45c-0.1,0-0.2,0-0.4-0.1l-31.3-16.6c-0.4-0.2-0.5-0.6-0.3-1s0.6-0.5,1-0.3l31.3,16.6
					c0.4,0.2,0.5,0.6,0.3,1C290.4,44.8,290.2,45,289.9,45z"/>
			</g>
			<g>
				<path class="st1" d="M134.9,76.6c-0.2,0-0.4-0.1-0.5-0.2l-21.5-20.5c-0.3-0.3-0.3-0.8,0-1.1c0.3-0.3,0.8-0.3,1.1,0l21.5,20.5
					c0.3,0.3,0.3,0.8,0,1.1C135.3,76.6,135.1,76.6,134.9,76.6z"/>
			</g>
			<g>
				<path class="st1" d="M146.2,72c-0.1,0-0.2,0-0.2,0c-0.4-0.1-0.6-0.6-0.5-0.9L157,36.4c0.1-0.4,0.6-0.6,0.9-0.5
					c0.4,0.1,0.6,0.6,0.5,0.9l-11.5,34.7C146.8,71.8,146.5,72,146.2,72z"/>
			</g>
			<g>
				<path class="st1" d="M155.5,183c-0.2,0-0.5-0.1-0.6-0.3l-22.3-30.8c-0.2-0.3-0.2-0.8,0.2-1c0.3-0.2,0.8-0.2,1,0.2l22.3,30.8
					c0.2,0.3,0.2,0.8-0.2,1C155.8,183,155.7,183,155.5,183z"/>
			</g>
			<g>
				<path class="st1" d="M172.9,193.2c-0.4,0-0.7-0.3-0.7-0.6c-0.1-0.4,0.2-0.8,0.6-0.8l23.1-3.2c0.4-0.1,0.8,0.2,0.8,0.6
					c0.1,0.4-0.2,0.8-0.6,0.8l-23.1,3.2C173,193.2,173,193.2,172.9,193.2z"/>
			</g>
			<g>
				<path class="st1" d="M348.8,287.8c-0.1,0-0.2,0-0.3,0c-0.4-0.1-0.6-0.6-0.5-1l14.7-41.3c0.1-0.4,0.6-0.6,1-0.5s0.6,0.6,0.5,1
					l-14.7,41.3C349.4,287.6,349.1,287.8,348.8,287.8z"/>
			</g>
			<g>
				<path class="st1" d="M219.2,371.6c-0.2,0-0.3,0-0.5-0.2c-0.3-0.2-0.4-0.7-0.1-1.1l26.1-34.6c0.2-0.3,0.7-0.4,1.1-0.1
					c0.3,0.2,0.4,0.7,0.1,1.1l-26.1,34.6C219.6,371.5,219.4,371.6,219.2,371.6z"/>
			</g>
			<g>
				<path class="st1" d="M201.6,373.7c-0.2,0-0.4-0.1-0.5-0.2l-32.3-28.7c-0.3-0.3-0.3-0.7-0.1-1.1c0.3-0.3,0.7-0.3,1.1-0.1
					l32.3,28.7c0.3,0.3,0.3,0.7,0.1,1.1C202,373.6,201.8,373.7,201.6,373.7z"/>
			</g>
			<g>
				<path class="st1" d="M108,345.3c-0.3,0-0.7-0.2-0.7-0.6c-0.1-0.4,0.2-0.8,0.6-0.9l33.3-6.9c0.4-0.1,0.8,0.2,0.9,0.6
					c0.1,0.4-0.2,0.8-0.6,0.9l-33.3,6.9C108.1,345.3,108.1,345.3,108,345.3z"/>
			</g>
			<g>
				<path class="st1" d="M39.3,303.1c-0.4,0-0.7-0.2-0.7-0.6l-6.4-33.7c-0.1-0.4,0.2-0.8,0.6-0.9c0.4-0.1,0.8,0.2,0.9,0.6l6.4,33.7
					c0.1,0.4-0.2,0.8-0.6,0.9C39.4,303.1,39.3,303.1,39.3,303.1z"/>
			</g>
			<g>
				<path class="st1" d="M84.4,334.5c-0.1,0-0.3,0-0.4-0.1l-39.8-23.2c-0.4-0.2-0.5-0.7-0.3-1c0.2-0.4,0.7-0.5,1-0.3l39.8,23.2
					c0.4,0.2,0.5,0.7,0.3,1C84.9,334.3,84.7,334.5,84.4,334.5z"/>
			</g>
			<g>
				<path class="st1" d="M38.2,246.1c-0.2,0-0.4-0.1-0.6-0.3c-0.3-0.3-0.2-0.8,0.1-1.1L79,210.8c0.3-0.3,0.8-0.2,1.1,0.1
					s0.2,0.8-0.1,1.1l-41.3,33.9C38.6,246,38.4,246.1,38.2,246.1z"/>
			</g>
			<g>
				<path class="st1" d="M21.9,240c-0.4,0-0.7-0.3-0.8-0.7l-0.4-41.8c0-0.4,0.3-0.8,0.7-0.8c0.5,0,0.8,0.3,0.8,0.7l0.4,41.8
					C22.6,239.6,22.3,240,21.9,240L21.9,240z"/>
			</g>
			<g>
				<path class="st1" d="M207.9,104.2c-0.1,0-0.2,0-0.2,0l-52.7-18c-0.4-0.1-0.6-0.6-0.5-1c0.1-0.4,0.6-0.6,1-0.5l52.7,18
					c0.4,0.1,0.6,0.6,0.5,1C208.5,104,208.3,104.2,207.9,104.2z"/>
			</g>
			<g>
				<path class="st1" d="M236.6,99.5c-0.2,0-0.5-0.1-0.6-0.3c-0.2-0.4-0.1-0.8,0.2-1l56.1-35.5c0.3-0.2,0.8-0.1,1,0.2
					c0.2,0.4,0.1,0.8-0.2,1L237,99.3C236.9,99.4,236.8,99.5,236.6,99.5z"/>
			</g>
			<g>
				<path class="st1" d="M133.2,117.3c-0.1,0-0.2,0-0.3-0.1c-0.4-0.2-0.6-0.6-0.4-1l9.6-22.4c0.2-0.4,0.6-0.6,1-0.4s0.6,0.6,0.4,1
					l-9.6,22.4C133.8,117.1,133.5,117.3,133.2,117.3z"/>
			</g>
			<g>
				<path class="st1" d="M109.4,182.3c-0.1,0-0.1,0-0.2,0c-0.4-0.1-0.7-0.5-0.6-0.9l7.1-31.6c0.1-0.4,0.5-0.7,0.9-0.6
					c0.4,0.1,0.7,0.5,0.6,0.9l-7.1,31.6C110,182.1,109.7,182.3,109.4,182.3z"/>
			</g>
			<g>
				<path class="st1" d="M29.9,166.6L29.9,166.6c-0.5-0.1-0.8-0.4-0.7-0.8l6.2-44.1c0.1-0.4,0.4-0.7,0.8-0.6
					c0.4,0.1,0.7,0.4,0.6,0.8L30.6,166C30.6,166.4,30.3,166.6,29.9,166.6z"/>
			</g>
			<g>
				<path class="st1" d="M86.7,177.5c-0.2,0-0.5-0.1-0.6-0.3L50.9,124c-0.2-0.3-0.1-0.8,0.2-1c0.3-0.2,0.8-0.1,1,0.2l35.2,53.2
					c0.2,0.3,0.1,0.8-0.2,1C87,177.5,86.9,177.5,86.7,177.5z"/>
			</g>
			<g>
				<path class="st1" d="M95.9,331.5L95.9,331.5c-0.5-0.1-0.8-0.4-0.7-0.8l2-14c0.1-0.4,0.4-0.7,0.8-0.6c0.4,0.1,0.7,0.4,0.6,0.8
					l-2,14C96.6,331.2,96.3,331.5,95.9,331.5z"/>
			</g>
			<g>
				<path class="st1" d="M99.3,307.8h-0.1c-0.4-0.1-0.7-0.4-0.6-0.8l1.8-12.7c0.1-0.4,0.4-0.7,0.8-0.6c0.4,0.1,0.7,0.4,0.6,0.8
					l-1.8,12.7C100,307.5,99.7,307.8,99.3,307.8z"/>
			</g>
			<g>
				<path class="st1" d="M347.2,131.7C347.1,131.7,347.1,131.7,347.2,131.7l-30.9-3.4c-0.4,0-0.7-0.4-0.7-0.8c0-0.4,0.4-0.7,0.8-0.7
					l30.8,3.4c0.4,0,0.7,0.4,0.7,0.8C347.9,131.4,347.5,131.7,347.2,131.7z"/>
			</g>
			<g>
				<path class="st1" d="M234.5,173.1c-0.4,0-0.8-0.3-0.8-0.8c0-0.3,0.2-0.5,0.4-0.7l46.7-35.9c0.3-0.3,0.8-0.2,1.1,0.1
					c0.3,0.3,0.2,0.8-0.1,1.1l-46.8,36C234.9,173.1,234.7,173.1,234.5,173.1z"/>
			</g>
			<g>
				<path class="st1" d="M269.7,225.6c-0.2,0-0.3,0-0.4-0.1L231,198.1c-0.3-0.2-0.4-0.7-0.2-1c0.2-0.3,0.7-0.4,1-0.2l38.3,27.4
					c0.3,0.2,0.4,0.7,0.2,1C270.2,225.5,270,225.6,269.7,225.6z"/>
			</g>
			<g>
				<path class="st1" d="M268.7,290.9c-0.1,0-0.2,0-0.2,0c-0.4-0.1-0.6-0.6-0.5-1l12.8-37.8c0.1-0.4,0.6-0.6,1-0.5s0.6,0.6,0.5,1
					l-12.8,37.8C269.3,290.7,269,290.9,268.7,290.9z"/>
			</g>
			<g>
				<path class="st1" d="M175,332.3c-0.4,0-0.7-0.3-0.7-0.6c-0.1-0.4,0.2-0.8,0.6-0.9l27.2-4.2c0.4-0.1,0.8,0.2,0.9,0.6
					c0.1,0.4-0.2,0.8-0.6,0.9l-27.2,4.2C175.1,332.3,175.1,332.3,175,332.3z"/>
			</g>
			<g>
				<path class="st1" d="M210.4,326.9c-0.4,0-0.7-0.3-0.7-0.6c-0.1-0.4,0.2-0.8,0.6-0.9l23.9-3.7c0.4-0.1,0.8,0.2,0.9,0.6
					s-0.2,0.8-0.6,0.9l-23.9,3.7C210.5,326.9,210.4,326.9,210.4,326.9z"/>
			</g>
			<g>
				<path class="st1" d="M117.4,279.9c-0.3,0-0.7-0.2-0.7-0.6c-0.1-0.4,0.2-0.8,0.6-0.9l54.5-11.5c0.5-0.1,0.9,0.3,0.9,0.7
					c0,0.4-0.3,0.7-0.7,0.7l-54.4,11.4C117.6,279.9,117.5,279.9,117.4,279.9z"/>
			</g>
			<g>
				<path class="st1" d="M166,316.7c-0.1,0-0.2,0-0.3-0.1c-0.4-0.2-0.5-0.6-0.4-1l17.1-37.4c0.2-0.4,0.6-0.5,1-0.4
					c0.4,0.2,0.5,0.6,0.4,1l-17.1,37.4C166.5,316.5,166.2,316.7,166,316.7z"/>
			</g>
			<g>
				<path class="st1" d="M280.9,301c-0.2,0-0.4-0.1-0.6-0.3c-0.3-0.3-0.2-0.8,0.1-1.1l32.3-27.1c0.3-0.3,0.8-0.2,1.1,0.1
					c0.3,0.3,0.2,0.8-0.1,1.1l-32.3,27.1C281.2,301,281.1,301,280.9,301z"/>
			</g>
			<g>
				<path class="st1" d="M319.5,268.5c-0.2,0-0.5-0.1-0.6-0.3c-0.2-0.3-0.2-0.8,0.2-1l35.8-26.7c0.3-0.2,0.8-0.2,1,0.2
					c0.2,0.3,0.2,0.8-0.2,1l-35.8,26.7C319.8,268.5,319.7,268.5,319.5,268.5z"/>
			</g>
			<g>
				<path class="st1" d="M236.9,187.8c-0.4,0-0.7-0.3-0.7-0.7s0.3-0.8,0.7-0.8l38.5-3.3c0.4,0,0.8,0.3,0.8,0.7s-0.3,0.8-0.7,0.8
					L236.9,187.8C237,187.8,236.9,187.8,236.9,187.8z"/>
			</g>
			<g>
				<path class="st1" d="M284.2,183.7c-0.4,0-0.7-0.3-0.7-0.7s0.3-0.8,0.7-0.8l33.6-2.9c0.4,0,0.8,0.3,0.8,0.7s-0.3,0.8-0.7,0.8
					L284.2,183.7L284.2,183.7z"/>
			</g>
			<g>
				<path class="st1" d="M357.4,209.1c-0.2,0-0.4-0.1-0.5-0.2l-21.1-19.6c-0.3-0.3-0.3-0.8,0-1.1s0.8-0.3,1.1,0l21.1,19.6
					c0.3,0.3,0.3,0.8,0,1.1C357.8,209,357.6,209.1,357.4,209.1z"/>
			</g>
			<g>
				<path class="st1" d="M236.6,301.8c-0.2,0-0.3-0.1-0.5-0.2L202.4,275c-0.3-0.3-0.4-0.7-0.1-1.1c0.3-0.3,0.7-0.4,1.1-0.1
					l33.7,26.6c0.3,0.3,0.4,0.7,0.1,1.1C237,301.7,236.8,301.8,236.6,301.8z"/>
			</g>
			<g>
				<path class="st1" d="M133.3,227c-0.1,0-0.3,0-0.4-0.1l-23.3-15.6c-0.3-0.2-0.4-0.7-0.2-1s0.7-0.4,1-0.2l23.3,15.6
					c0.3,0.2,0.4,0.7,0.2,1C133.8,226.9,133.6,227,133.3,227z"/>
			</g>
			<g>
				<path class="st1" d="M172.5,253.2c-0.2,0-0.4-0.1-0.5-0.2l-29.5-19.8c-0.3-0.2-0.4-0.7-0.2-1s0.7-0.4,1-0.2l29.6,19.8
					c0.2,0.1,0.3,0.4,0.3,0.6C173.2,252.9,172.9,253.2,172.5,253.2z"/>
			</g>
		</g>
	</g>
	<g>
		<path class="st1" d="M385.7,179.3c-3.3,0-6.2-2.4-6.8-5.6c-0.7-3.7,1.8-7.4,5.5-8.1c0.4-0.1,0.9-0.1,1.3-0.1
			c3.3,0,6.2,2.4,6.8,5.6c0.3,1.8,0,3.7-1.1,5.2c-1,1.5-2.6,2.5-4.4,2.9C386.6,179.2,386.1,179.3,385.7,179.3z M385.7,166.9
			c-0.3,0-0.7,0-1,0.1c-2.9,0.6-4.9,3.4-4.3,6.3c0.5,2.6,2.7,4.4,5.3,4.4c0.3,0,0.7,0,1-0.1c1.4-0.3,2.7-1.1,3.5-2.3s1.1-2.6,0.8-4
			C390.5,168.8,388.3,166.9,385.7,166.9z"/>
	</g>
	<g>
		<path class="st1" d="M343.6,176.8c-0.4,0-0.7-0.3-0.7-0.7s0.3-0.8,0.7-0.8l36-2.6c0.4,0,0.8,0.3,0.8,0.7s-0.3,0.8-0.7,0.8
			L343.6,176.8C343.7,176.8,343.7,176.8,343.6,176.8z"/>
	</g>
	<g>
		<path class="st1" d="M294.3,364.2c-1.7,0-3.3-0.6-4.5-1.7c-2.9-2.5-3.2-6.9-0.7-9.7c1.3-1.5,3.2-2.4,5.2-2.4
			c1.7,0,3.2,0.6,4.5,1.7c1.4,1.2,2.2,2.9,2.4,4.7c0.1,1.8-0.5,3.6-1.7,5C298.2,363.3,296.3,364.2,294.3,364.2z M294.3,351.9
			c-1.6,0-3.1,0.7-4.1,1.9c-1.9,2.3-1.7,5.7,0.6,7.6c1,0.8,2.2,1.3,3.5,1.3c1.6,0,3.1-0.7,4.1-1.9c0.9-1.1,1.4-2.5,1.3-3.9
			s-0.8-2.8-1.9-3.7C296.8,352.4,295.6,351.9,294.3,351.9z"/>
	</g>
	<g>
		<path class="st1" d="M289.6,354c-0.2,0-0.4-0.1-0.6-0.2l-16.3-17.7c-0.3-0.3-0.3-0.8,0-1.1c0.3-0.3,0.8-0.3,1.1,0l16.3,17.7
			c0.3,0.3,0.3,0.8,0,1.1C290,354,289.8,354,289.6,354z"/>
	</g>
	<g>
		<path class="st1" d="M141.3,384.5L141.3,384.5c-1.4,0-2.9-0.4-4.1-1.1c-3.8-2.3-5.1-7.2-2.9-11.1c1.5-2.5,4.1-4,7-4
			c1.4,0,2.9,0.4,4.1,1.1c3.8,2.3,5.1,7.2,2.9,11.1C146.8,383,144.1,384.5,141.3,384.5z M141.3,369.9c-2.3,0-4.5,1.2-5.7,3.2
			c-1.8,3.1-0.8,7.2,2.3,9c1,0.6,2.2,0.9,3.3,0.9c2.3,0,4.5-1.2,5.7-3.2c1.8-3.1,0.8-7.2-2.3-9C143.6,370.2,142.4,369.9,141.3,369.9
			z"/>
	</g>
	<g>
		<path class="st1" d="M60.1,292.6L60.1,292.6c-0.6,0-1.3-0.2-1.8-0.5c-1.7-1-2.3-3.2-1.3-4.9c0.6-1.1,1.8-1.7,3.1-1.7
			c0.6,0,1.3,0.2,1.8,0.5c0.8,0.5,1.4,1.3,1.6,2.2c0.2,0.9,0.1,1.9-0.4,2.7C62.5,291.9,61.3,292.6,60.1,292.6z M60.1,287
			c-0.7,0-1.4,0.4-1.8,1c-0.6,1-0.2,2.2,0.7,2.8c0.9,0.6,2.3,0.2,2.8-0.7c0.3-0.5,0.4-1,0.2-1.6c-0.1-0.5-0.5-1-0.9-1.3
			C60.8,287.1,60.4,287,60.1,287z"/>
	</g>
	<g>
		<path class="st1" d="M143.3,369.3c-0.1,0-0.2,0-0.2,0c-0.3-0.1-0.5-0.5-0.3-0.8l8.3-20.4c0.1-0.3,0.5-0.5,0.8-0.3
			c0.3,0.1,0.5,0.5,0.3,0.8l-8.3,20.4C143.8,369.2,143.5,369.3,143.3,369.3z"/>
	</g>
	<g>
		<path class="st1" d="M44.4,305.5c-0.2,0-0.4-0.1-0.5-0.2c-0.3-0.3-0.3-0.8,0-1.1L57,291.1c0.3-0.3,0.8-0.3,1.1,0
			c0.3,0.3,0.3,0.8,0,1.1L45,305.3C44.8,305.4,44.6,305.5,44.4,305.5z"/>
	</g>
</g>
<g>
	<path class="st1" d="M138,236c-3.6,0-6.5-2.9-6.5-6.5s2.9-6.5,6.5-6.5s6.5,2.9,6.5,6.5S141.6,236,138,236z M138,224.5
		c-2.7,0-5,2.2-5,5c0,2.7,2.2,5,5,5c2.7,0,5-2.2,5-5C143,226.8,140.8,224.5,138,224.5z"/>
</g>
<g>
	<path class="st1" d="M235.4,257c-3.1,0-5.6-2.5-5.6-5.6s2.5-5.6,5.6-5.6s5.6,2.5,5.6,5.6C241,254.4,238.5,257,235.4,257z
		 M235.4,247.2c-2.3,0-4.1,1.9-4.1,4.1c0,2.3,1.9,4.1,4.1,4.1c2.3,0,4.1-1.9,4.1-4.1C239.5,249,237.7,247.2,235.4,247.2z"/>
</g>
<g>
	<path class="st1" d="M98.5,317.5c-3.1,0-5.6-2.5-5.6-5.6s2.5-5.6,5.6-5.6c3.1,0,5.6,2.5,5.6,5.6C104.1,315,101.6,317.5,98.5,317.5z
		 M98.5,307.7c-2.3,0-4.1,1.9-4.1,4.1c0,2.3,1.9,4.1,4.1,4.1c2.3,0,4.1-1.9,4.1-4.1C102.6,309.6,100.8,307.7,98.5,307.7z"/>
</g>
<g>
	<path class="st1" d="M40.5,313.6c-3.1,0-5.6-2.5-5.6-5.6s2.5-5.6,5.6-5.6s5.6,2.5,5.6,5.6S43.6,313.6,40.5,313.6z M40.5,303.8
		c-2.3,0-4.1,1.9-4.1,4.1c0,2.3,1.9,4.1,4.1,4.1s4.1-1.9,4.1-4.1S42.8,303.8,40.5,303.8z"/>
</g>
<g>
	<path class="st1" d="M100.9,96.6c-0.1,0-0.2,0-0.3,0c-1.3-0.1-2.5-0.6-3.4-1.6c-0.9-1-1.3-2.2-1.3-3.5c0.1-2.7,2.4-4.8,5.2-4.7
		c2.7,0.1,4.8,2.4,4.7,5.2C105.7,94.5,103.5,96.6,100.9,96.6z M100.9,88.2c-1.8,0-3.3,1.4-3.4,3.2c0,0.9,0.3,1.8,0.9,2.5
		c0.6,0.7,1.4,1.1,2.4,1.1h0.2c1.8,0,3.3-1.4,3.4-3.2c0-0.9-0.3-1.8-0.9-2.5c-0.6-0.7-1.4-1.1-2.4-1.1H100.9z"/>
</g>
<g>
	<path class="st1" d="M201,59.5c-2.7,0-4.9-2.2-4.9-4.9c0-2.7,2.2-4.9,4.9-4.9s4.9,2.2,4.9,4.9C205.9,57.3,203.7,59.5,201,59.5z
		 M201,51.2c-1.9,0-3.4,1.5-3.4,3.4s1.5,3.4,3.4,3.4s3.4-1.5,3.4-3.4C204.4,52.8,202.9,51.2,201,51.2z"/>
</g>
<g>
	<path class="st1" d="M189.9,159.3c-2.7,0-4.9-2.2-4.9-4.9s2.2-4.9,4.9-4.9s4.9,2.2,4.9,4.9C194.8,157.1,192.6,159.3,189.9,159.3z
		 M189.9,151c-1.9,0-3.4,1.5-3.4,3.4s1.5,3.4,3.4,3.4s3.4-1.5,3.4-3.4C193.3,152.5,191.8,151,189.9,151z"/>
</g>
<g>
	<path class="st1" d="M206.3,331.3c-2.7,0-4.9-2.2-4.9-4.9c0-2.7,2.2-4.9,4.9-4.9s4.9,2.2,4.9,4.9S209,331.3,206.3,331.3z
		 M206.3,323c-1.9,0-3.4,1.5-3.4,3.4s1.5,3.4,3.4,3.4s3.4-1.5,3.4-3.4S208.1,323,206.3,323z"/>
</g>
<g>
	<path class="st1" d="M67.2,97.1c-0.4,0-0.7-0.3-0.7-0.7c0-0.4,0.3-0.8,0.7-0.8l29.4-3.3c0.4,0,0.8,0.3,0.8,0.7s-0.3,0.8-0.7,0.8
		L67.2,97.1C67.3,97.1,67.2,97.1,67.2,97.1z"/>
</g>
<g>
	<path class="st1" d="M105.1,91.6c-0.4,0-0.7-0.3-0.7-0.6c-0.1-0.4,0.2-0.8,0.6-0.9l27.6-4.2c0.4-0.1,0.8,0.2,0.9,0.6
		c0.1,0.4-0.2,0.8-0.6,0.9l-27.6,4.2C105.2,91.6,105.1,91.6,105.1,91.6z"/>
</g>
<g>
	<path class="st1" d="M253.6,134.4c-3.8,0-6.9-3.1-6.9-6.9c0-3.8,3.1-6.9,6.9-6.9c3.8,0,6.9,3.1,6.9,6.9
		C260.5,131.3,257.4,134.4,253.6,134.4z M253.6,122.1c-3,0-5.4,2.4-5.4,5.4s2.4,5.4,5.4,5.4c3,0,5.4-2.4,5.4-5.4
		C259,124.5,256.5,122.1,253.6,122.1z"/>
</g>
<g>
	<path class="st1" d="M253.6,134.4c-3.8,0-6.9-3.1-6.9-6.9c0-3.8,3.1-6.9,6.9-6.9c3.8,0,6.9,3.1,6.9,6.9
		C260.5,131.3,257.4,134.4,253.6,134.4z M253.6,122.1c-3,0-5.4,2.4-5.4,5.4s2.4,5.4,5.4,5.4c3,0,5.4-2.4,5.4-5.4
		C259,124.5,256.5,122.1,253.6,122.1z"/>
</g>
<g>
	<path class="st1" d="M279.8,188.7c-2.8,0-5.2-2.3-5.2-5.2c0-2.8,2.3-5.2,5.2-5.2c2.8,0,5.2,2.3,5.2,5.2
		C285,186.4,282.7,188.7,279.8,188.7z M279.8,179.9c-2,0-3.7,1.6-3.7,3.7c0,2,1.6,3.7,3.7,3.7c2,0,3.7-1.6,3.7-3.7
		C283.5,181.5,281.8,179.9,279.8,179.9z"/>
</g>
<g>
	<path class="st1" d="M259.7,128.2c-0.3,0-0.7-0.2-0.7-0.6c-0.1-0.4,0.2-0.8,0.6-0.9l15.3-3.3c0.4-0.1,0.8,0.2,0.9,0.6
		c0.1,0.4-0.2,0.8-0.6,0.9l-15.3,3.3C259.8,128.2,259.8,128.2,259.7,128.2z"/>
</g>
<g>
	<path class="st1" d="M248.3,125c-0.1,0-0.3,0-0.4-0.1l-13.2-8.5c-0.3-0.2-0.4-0.7-0.2-1c0.2-0.3,0.7-0.4,1-0.2l13.2,8.5
		c0.3,0.2,0.4,0.7,0.2,1C248.8,124.9,248.6,125,248.3,125z"/>
</g>
<g>
	<path class="st1" d="M316.2,275.2c-2.7,0-4.9-2.2-4.9-4.9s2.2-4.9,4.9-4.9c2.7,0,4.9,2.2,4.9,4.9S318.9,275.2,316.2,275.2z
		 M316.2,266.8c-1.9,0-3.4,1.5-3.4,3.4s1.5,3.4,3.4,3.4s3.4-1.5,3.4-3.4C319.6,268.4,318.1,266.8,316.2,266.8z"/>
</g>
<g>
	<path class="st1" d="M53.6,193.9c-1.7,0-3.1-1.4-3.1-3.1s1.4-3.1,3.1-3.1s3.1,1.4,3.1,3.1S55.3,193.9,53.6,193.9z M53.6,189.2
		c-0.9,0-1.6,0.7-1.6,1.6s0.7,1.6,1.6,1.6s1.6-0.7,1.6-1.6S54.5,189.2,53.6,189.2z"/>
</g>
<g>
	<path class="st1" d="M349.7,88.2c-1.8,0-3.5-0.7-4.8-2c-2.7-2.7-2.7-7,0-9.7c1.3-1.3,3-2,4.8-2s3.5,0.7,4.8,2s2,3,2,4.8
		s-0.7,3.5-2,4.8C353.2,87.5,351.5,88.2,349.7,88.2z M349.6,76c-1.4,0-2.8,0.6-3.8,1.6c-2.1,2.1-2.1,5.5,0,7.5c1,1,2.3,1.6,3.8,1.6
		c1.4,0,2.8-0.6,3.8-1.6s1.6-2.3,1.6-3.8s-0.6-2.8-1.6-3.8C352.4,76.6,351.1,76,349.6,76z"/>
</g>
<g>
	<path class="st1" d="M313.3,109.1c-0.2,0-0.5-0.1-0.6-0.3c-0.2-0.3-0.2-0.8,0.2-1L345,85.1c0.3-0.2,0.8-0.2,1,0.2
		c0.2,0.3,0.2,0.8-0.2,1L313.7,109C313.6,109.1,313.4,109.1,313.3,109.1z"/>
</g>
<g>
	<path class="st1" d="M220,6c-1.6,0-3-1.3-3-3c0-1.6,1.3-3,3-3s3,1.3,3,3C222.9,4.7,221.6,6,220,6z M220,1.6c-0.8,0-1.5,0.7-1.5,1.5
		c0,0.8,0.7,1.5,1.5,1.5s1.5-0.7,1.5-1.5C221.4,2.3,220.8,1.6,220,1.6z"/>
</g>
<g>
	<path class="st1" d="M203,51.8c-0.1,0-0.2,0-0.2,0c-0.4-0.1-0.6-0.6-0.5-1l15.8-46c0.1-0.4,0.6-0.6,1-0.5s0.6,0.6,0.5,1l-15.8,46
		C203.6,51.6,203.3,51.8,203,51.8z"/>
</g>
</svg>
