<svg xmlns="http://www.w3.org/2000/svg" viewBox="0 0 512 512"><path d="M256 0a10.678 10.678 0 00-10.063 7.135A10.667 10.667 0 00249.333 19l53.333 42.667c4.625 3.677 11.313 2.948 15-1.667 3.666-4.604 2.938-11.313-1.667-15l-26.646-21.302C403.021 39.948 490.667 137.927 490.667 256c0 77.385-38.146 149.76-102.042 193.615-4.854 3.333-6.083 9.969-2.75 14.823a10.611 10.611 0 008.792 4.635c2.083 0 4.188-.604 6.042-1.875C470.396 419.375 512 340.417 512 256 512 114.844 397.167 0 256 0zm6.666 493l-53.333-42.667c-4.604-3.646-11.312-2.938-15 1.667-3.667 4.604-2.938 11.313 1.666 15l26.646 21.302C108.979 472.052 21.333 374.073 21.333 256c0-77.385 38.146-149.76 102.042-193.625 4.854-3.333 6.083-9.969 2.75-14.833-3.313-4.854-9.938-6.073-14.833-2.75C41.604 92.625 0 171.583 0 256c0 141.156 114.833 256 256 256 4.521 0 8.563-2.865 10.063-7.135 1.5-4.271.145-9.032-3.397-11.865z"/><path d="M245.333 181.333h64A10.66 10.66 0 00320 170.666a10.66 10.66 0 00-10.667-10.667h-42.667v-21.333c0-5.896-4.771-10.667-10.667-10.667s-10.667 4.771-10.667 10.667V160C215.917 160 192 183.927 192 213.333s23.917 53.333 53.333 53.333h21.333c17.646 0 32 14.354 32 32s-14.354 32-32 32h-64a10.66 10.66 0 00-10.667 10.667A10.66 10.66 0 00202.666 352h42.667v21.333c0 5.896 4.771 10.667 10.667 10.667s10.667-4.771 10.667-10.667V352C296.083 352 320 328.073 320 298.667s-23.917-53.333-53.333-53.333h-21.333c-17.646 0-32-14.354-32-32-.001-17.646 14.354-32.001 31.999-32.001z"/></svg>