<svg height="368pt" viewBox="0 0 368 368" width="368pt" xmlns="http://www.w3.org/2000/svg"><path d="M184 0C82.535 0 0 82.543 0 184s82.535 184 184 184 184-82.543 184-184S285.465 0 184 0zm0 352c-92.633 0-168-75.36-168-168S91.367 16 184 16s168 75.36 168 168-75.367 168-168 168zm0 0"/><path d="M184 48c-17.84 0-34.848 3.543-50.48 9.824-.336.114-.665.207-.977.36C98.895 72 71.993 98.894 58.183 132.55c-.152.312-.246.64-.359.976C51.543 149.152 48 166.16 48 184c0 74.992 61.008 136 136 136s136-61.008 136-136S258.992 48 184 48zm-56 29.953V128H77.953A120.589 120.589 0 01128 77.953zM184 304c-66.168 0-120-53.832-120-120 0-14.04 2.55-27.465 7-40h57v40c0 30.879 25.129 56 56 56s56-25.121 56-56-25.129-56-56-56h-40V71c12.535-4.45 25.96-7 40-7 66.168 0 120 53.832 120 120s-53.832 120-120 120zm0-160c22.055 0 40 17.945 40 40s-17.945 40-40 40-40-17.945-40-40v-40zm0 0"/></svg>