<svg xmlns="http://www.w3.org/2000/svg" viewBox="0 0 512 512"><path d="M477.899 128.257c-21.639-37.511-52.679-69.173-89.763-91.563l-7.8 12.919c15.644 9.445 29.932 20.414 42.735 32.653l-29.159 29.159c-34.199-32.638-79.925-53.283-130.366-55.166V15.215c33.523 1.015 65.771 8.795 95.964 23.182l6.492-13.623C331.506 8.335 294.496 0 256 0 187.619 0 123.332 26.628 74.981 74.981 26.629 123.333 0 187.62 0 256s26.628 132.668 74.981 181.019C123.333 485.372 187.62 512 256 512s132.668-26.628 181.019-74.981S512 324.38 512 256c0-44.899-11.792-89.072-34.101-127.743zm-44.252-35.226c38.724 41.972 61.358 96.582 63.144 155.423h-41.05c-1.807-48.424-20.911-92.498-51.313-126.204l29.219-29.219zm-185.193-77.81v41.038c-49.433 1.844-94.328 21.719-128.292 53.232L91.161 80.489c41.416-38.922 96.556-63.39 157.293-65.268zM80.489 91.16l29.003 29.002c-31.513 33.965-51.388 78.859-53.232 128.292H15.221c1.878-60.737 26.346-115.878 65.268-157.294zM15.221 263.546h41.037c1.882 50.441 22.528 96.167 55.166 130.366l-28.985 28.985c-40.055-41.639-65.308-97.604-67.218-159.351zm233.233 233.233c-59.727-1.847-114.044-25.536-155.219-63.336l29.016-29.016c33.706 30.402 77.78 49.507 126.204 51.313v41.039zM71.194 256c0-101.903 82.904-184.806 184.806-184.806S440.806 154.098 440.806 256c0 101.903-82.904 184.806-184.806 184.806S71.194 357.903 71.194 256zm192.352 240.779v-41.038c49.433-1.844 94.328-21.719 128.292-53.232l29.003 29.002c-41.417 38.921-96.558 63.39-157.295 65.268zm167.965-75.94l-29.003-29.002c31.513-33.964 51.388-78.859 53.232-128.291h41.038c-1.877 60.737-26.346 115.877-65.267 157.293z"/><path d="M255.998 136.249c-66.031 0-119.75 53.72-119.75 119.751 0 31.518 12.151 61.277 34.214 83.795l10.779-10.562c-19.284-19.681-29.903-45.688-29.903-73.233 0-57.709 46.95-104.659 104.659-104.659S360.656 198.291 360.656 256s-46.95 104.659-104.659 104.659c-21.528 0-42.207-6.488-59.801-18.765l-8.635 12.377c20.139 14.052 43.804 21.479 68.436 21.479 66.031 0 119.751-53.72 119.751-119.751.001-66.03-53.719-119.75-119.75-119.75zm-8.007-40.077h16.029v15.091h-16.029zm0 304.563h16.029v15.091h-16.029zM95.709 248.453h16.03v15.091h-16.03zm40.073-112.199h16.029v15.091h-16.029zm232.426 8.009h16.029v15.091h-16.029zm0 208.381h16.029v15.091h-16.029zm-240.445 0h16.029v15.091h-16.029zm272.499-104.191h16.029v15.091h-16.029z"/><path d="M184.337 256h15.091c0-31.194 25.378-56.571 56.571-56.571v-15.091c-39.514-.001-71.662 32.147-71.662 71.662zM256 327.663c39.515 0 71.663-32.148 71.663-71.663h-15.091c0 31.194-25.379 56.571-56.571 56.571v15.092z"/></svg>