<svg height="512" viewBox="0 0 74 74" width="512" xmlns="http://www.w3.org/2000/svg"><path d="M37 71a34 34 0 1134-34 34.038 34.038 0 01-34 34zm0-66a32 32 0 1032 32A32.036 32.036 0 0037 5z"/><path d="M22.056 53.056a1 1 0 01-.707-1.707l30-30a1 1 0 011.414 1.414l-30 30a1 1 0 01-.707.293zm5.104-18.683a7.213 7.213 0 01-5.1-12.315 7.216 7.216 0 115.1 12.315zm-3.688-10.9a5.217 5.217 0 107.377 0 5.223 5.223 0 00-7.377 0zm22.803 30.12a7.318 7.318 0 115.177-2.141 7.3 7.3 0 01-5.177 2.141zm0-12.636a5.318 5.318 0 103.763 1.556 5.306 5.306 0 00-3.763-1.556z"/></svg>