<svg xmlns="http://www.w3.org/2000/svg" viewBox="0 0 438.5 419.1"><path d="M5.4 136.2h94.2v282.9H5.4zM408.8 162c-19.8-21.6-46-32.4-78.5-32.4-12 0-22.9 1.5-32.7 4.4-9.8 3-18.1 7.1-24.8 12.4-6.8 5.3-12.1 10.3-16.1 14.8-3.8 4.3-7.5 9.4-11.1 15.1v-40.2h-93.9l.3 13.7c.2 9.1.3 37.3.3 84.5s-.2 108.8-.6 184.7h93.9V261.2c0-9.7 1-17.4 3.1-23.1 4-9.7 10-17.8 18.1-24.4 8.1-6.6 18.1-9.9 30.1-9.9 16.4 0 28.4 5.7 36.1 17 7.7 11.3 11.6 27 11.6 47v151.3h93.9V257c0-41.7-9.9-73.4-29.7-95zM53.1 0C37.3 0 24.5 4.6 14.7 13.8 4.9 23.1 0 34.7 0 48.8c0 13.9 4.8 25.5 14.3 34.8 9.5 9.3 22.1 14 37.7 14h.6c16 0 28.9-4.7 38.7-14 9.8-9.3 14.6-20.9 14.4-34.8-.2-14.1-5-25.7-14.6-35C81.6 4.6 68.9 0 53.1 0z"/></svg>