<svg xmlns="http://www.w3.org/2000/svg" viewBox="0 0 54 54"><path d="M49.217 0H4.783A4.789 4.789 0 000 4.783v44.434A4.789 4.789 0 004.783 54h44.435A4.789 4.789 0 0054 49.217V4.783A4.789 4.789 0 0049.217 0zM52 49.217A2.787 2.787 0 0149.217 52H4.783A2.787 2.787 0 012 49.217V4.783A2.787 2.787 0 014.783 2h44.435A2.787 2.787 0 0152 4.783v44.434z"/><path d="M40.043 25.293L18.957 13.118a1.957 1.957 0 00-1.971 0A1.952 1.952 0 0016 14.825v24.35c0 .713.369 1.351.986 1.707.309.178.647.268.985.268s.677-.09.985-.268l21.087-12.175c.617-.356.986-.995.986-1.707s-.368-1.351-.986-1.707zm-1 1.682L18 39.175l-.043-24.324 21.086 12.124.5.866-.5-.866z"/></svg>