<svg xmlns="http://www.w3.org/2000/svg" style="position:absolute; width: 0; height: 0"><symbol viewBox="0 0 480 480" id="icon-001-down-arrow"><path d="M240 0C107.452 0 0 107.452 0 240s107.452 240 240 240c132.486-.15 239.85-107.514 240-240C480 107.452 372.548 0 240 0zm0 464C116.288 464 16 363.712 16 240S116.288 16 240 16c123.653.141 223.859 100.347 224 224 0 123.712-100.288 224-224 224z"></path><path d="M370.112 170.576L240 300.688 109.888 170.576a8 8 0 0 0-11.312 11.312l135.768 135.768a8 8 0 0 0 11.312 0l135.768-135.768a8 8 0 1 0-11.312-11.312z"></path></symbol><symbol viewBox="0 0 512 512" id="icon-001-exchange"><path d="M256 0a10.678 10.678 0 0 0-10.063 7.135A10.667 10.667 0 0 0 249.333 19l53.333 42.667c4.625 3.677 11.313 2.948 15-1.667 3.666-4.604 2.938-11.313-1.667-15l-26.646-21.302C403.021 39.948 490.667 137.927 490.667 256c0 77.385-38.146 149.76-102.042 193.615-4.854 3.333-6.083 9.969-2.75 14.823a10.611 10.611 0 0 0 8.792 4.635c2.083 0 4.188-.604 6.042-1.875C470.396 419.375 512 340.417 512 256 512 114.844 397.167 0 256 0zM262.666 493l-53.333-42.667c-4.604-3.646-11.312-2.938-15 1.667-3.667 4.604-2.938 11.313 1.666 15l26.646 21.302C108.979 472.052 21.333 374.073 21.333 256c0-77.385 38.146-149.76 102.042-193.625 4.854-3.333 6.083-9.969 2.75-14.833-3.313-4.854-9.938-6.073-14.833-2.75C41.604 92.625 0 171.583 0 256c0 141.156 114.833 256 256 256 4.521 0 8.563-2.865 10.063-7.135 1.5-4.271.145-9.032-3.397-11.865z"></path><path d="M245.333 181.333h64A10.66 10.66 0 0 0 320 170.666a10.66 10.66 0 0 0-10.667-10.667h-42.667v-21.333c0-5.896-4.771-10.667-10.667-10.667s-10.667 4.771-10.667 10.667V160C215.917 160 192 183.927 192 213.333s23.917 53.333 53.333 53.333h21.333c17.646 0 32 14.354 32 32s-14.354 32-32 32h-64a10.66 10.66 0 0 0-10.667 10.667A10.66 10.66 0 0 0 202.666 352h42.667v21.333c0 5.896 4.771 10.667 10.667 10.667s10.667-4.771 10.667-10.667V352C296.083 352 320 328.073 320 298.667s-23.917-53.333-53.333-53.333h-21.333c-17.646 0-32-14.354-32-32-.001-17.646 14.354-32.001 31.999-32.001z"></path></symbol><symbol viewBox="0 0 512 512" id="icon-001-friends"><path d="M497 289.156h-30a44.79 44.79 0 0 0-14.228 2.319 131.745 131.745 0 0 0-28.988-21.525c33.211-20.822 55.342-57.751 55.342-99.758 0-64.879-52.783-117.663-117.663-117.663-49.927 0-92.685 31.26-109.744 75.233-16.098-45.821-59.794-78.764-111.046-78.764-64.88 0-117.663 52.783-117.663 117.663 0 41.254 21.346 77.612 53.568 98.625C31.475 285.782 0 331.545 0 384.583v63.414c0 8.284 6.716 15 15 15s15-6.716 15-15v-63.414c0-43.224 27.062-80.175 64.955-94.458v.517c0 25.209 20.509 45.718 45.718 45.718s45.718-20.509 45.718-45.718v-6.829h92.282c-29.597 24.417-47.778 61.208-47.778 100.771v63.395c0 8.284 6.716 15 15 15s15-6.716 15-15v-63.395c0-37.915 21.696-72.54 55.062-89.601 2.194 23.18 21.762 41.378 45.506 41.378 23.741 0 43.307-18.192 45.505-41.367a101.494 101.494 0 0 1 21.961 15.215A44.718 44.718 0 0 0 422 334.157c0 23.07 17.454 42.13 39.848 44.696.109 1.909.182 69.15.182 69.15 0 8.284 6.716 15 15 15s15-6.716 15-15c0 0-.045-67.037-.121-68.846H497c8.284 0 15-6.716 15-15v-60c0-8.286-6.716-15.001-15-15.001zm-135.537-31.302c-48.337 0-87.663-39.325-87.663-87.663 0-1.731.056-3.448.156-5.154h91.194c3.425 0 6.746-1.172 9.413-3.321l13.152-10.6 5.657 7.758a15 15 0 0 0 12.12 6.163h43.48c.099 1.706.156 3.424.156 5.154-.002 48.338-39.327 87.663-87.665 87.663zm-111.046-48.763c5.983 17.03 15.775 32.28 28.355 44.721h-59.129c13.462-12.21 24.089-27.49 30.774-44.721zM361.463 82.529c35.842 0 66.723 21.624 80.297 52.508h-28.642l-10.438-14.316a15.001 15.001 0 0 0-21.533-2.842l-21.289 17.158h-78.691c13.574-30.884 44.454-52.508 80.296-52.508zm-220.79-3.53c33.186 0 62.123 18.537 77.004 45.8H63.668c14.881-27.263 43.818-45.8 77.005-45.8zM53.01 166.661c0-4.023.278-7.982.806-11.863H227.53c.527 3.881.806 7.84.806 11.863 0 45.141-34.298 82.419-78.203 87.151h-18.918c-43.906-4.732-78.205-42.009-78.205-87.151zm103.38 123.98c0 8.667-7.051 15.718-15.718 15.718s-15.718-7.051-15.718-15.718v-6.713c1.566-.074 3.141-.116 4.725-.116h.068c3.599.333 7.241.512 10.925.512s7.328-.179 10.927-.512h4.791zm205.073 15.719c-8.667 0-15.718-7.051-15.718-15.718v-3.84c5.143.69 10.389 1.053 15.718 1.053s10.574-.363 15.718-1.053v3.84c0 8.666-7.051 15.718-15.718 15.718zM452 334.156c0-8.271 6.729-15 15-15h15v30h-15c-8.271-.001-15-6.729-15-15z"></path></symbol><symbol viewBox="0 0 611.997 611.997" id="icon-001-key-with-hole"><path d="M554.068 57.971C516.679 20.588 466.974 0 414.108 0c-52.869 0-102.575 20.588-139.956 57.971-37.39 37.385-57.98 87.092-57.98 139.963 0 27.181 5.481 53.51 15.849 77.773L13.939 493.789a23.845 23.845 0 0 0-6.897 14.754l-6.903 77.47a23.86 23.86 0 0 0 25.887 25.889l77.474-6.901a23.854 23.854 0 0 0 14.754-6.901l23.491-23.493c-.16-.652-.275-1.32-.323-2.011l-3.851-56.142a11.541 11.541 0 0 1 3.353-8.949c2.357-2.357 5.598-3.561 8.946-3.353L206.017 508c.691.045 1.362.162 2.013.325l18.438-18.438a11.699 11.699 0 0 1-.325-2.015l-3.851-56.142a11.548 11.548 0 0 1 3.353-8.949 11.552 11.552 0 0 1 8.949-3.353l56.146 3.851c.688.045 1.362.162 2.013.325l43.594-43.596c24.263 10.369 50.594 15.847 77.771 15.847 52.871 0 102.575-20.588 139.961-57.969 77.167-77.163 77.167-202.735-.011-279.915zm-82.327 197.598c-15.393 15.391-35.859 23.867-57.631 23.867-21.77 0-42.236-8.477-57.629-23.872-15.395-15.393-23.874-35.861-23.874-57.631 0-21.772 8.479-42.238 23.874-57.631 15.388-15.393 35.857-23.869 57.627-23.869 21.772 0 42.238 8.477 57.631 23.869 31.779 31.78 31.779 83.491.002 115.267z"></path></symbol><symbol viewBox="0 0 238.9 443.5" id="icon-001-right-arrow"><path d="M233.9 209.6L29.1 4.8C22.3-1.8 11.5-1.6 5 5.2c-6.4 6.6-6.4 17.1 0 23.7l192.7 192.7L5 414.4c-6.7 6.7-6.7 17.5 0 24.1 6.7 6.7 17.5 6.7 24.1 0l204.8-204.8c6.7-6.6 6.7-17.4 0-24.1z"></path></symbol><symbol viewBox="0 0 384 384" id="icon-001-tick"><path d="M192 0C85.961 0 0 85.961 0 192s85.961 192 192 192 192-85.961 192-192S298.039 0 192 0zm0 341.333c-82.475 0-149.333-66.859-149.333-149.333S109.525 42.667 192 42.667 341.333 109.525 341.333 192 274.475 341.333 192 341.333z"></path><path d="M258.059 113.783l-88.608 99.13-44.271-42.497-29.547 30.78 76.165 73.114L289.87 142.217z"></path></symbol><symbol viewBox="0 0 368 368" id="icon-002-cryptocurrency"><path d="M184 0C82.535 0 0 82.543 0 184s82.535 184 184 184 184-82.543 184-184S285.465 0 184 0zm0 352c-92.633 0-168-75.36-168-168S91.367 16 184 16s168 75.36 168 168-75.367 168-168 168zm0 0"></path><path d="M184 48c-17.84 0-34.848 3.543-50.48 9.824-.336.114-.665.207-.977.36C98.895 72 71.993 98.894 58.183 132.55c-.152.312-.246.64-.359.976C51.543 149.152 48 166.16 48 184c0 74.992 61.008 136 136 136s136-61.008 136-136S258.992 48 184 48zm-56 29.953V128H77.953A120.589 120.589 0 0 1 128 77.953zM184 304c-66.168 0-120-53.832-120-120 0-14.04 2.55-27.465 7-40h57v40c0 30.879 25.129 56 56 56s56-25.121 56-56-25.129-56-56-56h-40V71c12.535-4.45 25.96-7 40-7 66.168 0 120 53.832 120 120s-53.832 120-120 120zm0-160c22.055 0 40 17.945 40 40s-17.945 40-40 40-40-17.945-40-40v-40zm0 0"></path></symbol><symbol viewBox="0 0 477.808 477.808" id="icon-002-send"><path d="M213.96 117.128l29.049 13.421-13.421 29.05-29.05-13.421zM155.857 90.313l29.056 13.408-13.408 29.056-29.056-13.408z"></path><path d="M477.808 238.904l-205.728-94.96-13.408 29.072 108.112 49.888H84.128l-36.8-147.472 66.064 30.528L126.8 76.904 0 18.376l55.136 220.528L0 459.432l477.808-220.528zm-393.6 16h282.576L47.264 402.376l36.944-147.472z"></path></symbol><symbol viewBox="0 0 512 512" id="icon-002-user"><path d="M255.999 0c-74.443 0-135 60.557-135 135s60.557 135 135 135 135-60.557 135-135-60.557-135-135-135zM478.48 398.68C438.124 338.138 370.579 302 297.835 302h-83.672c-72.744 0-140.288 36.138-180.644 96.68l-2.52 3.779V512H481V402.459l-2.52-3.779z"></path></symbol><symbol viewBox="0 0 512 512" id="icon-003-chip"><path d="M477.899 128.257c-21.639-37.511-52.679-69.173-89.763-91.563l-7.8 12.919c15.644 9.445 29.932 20.414 42.735 32.653l-29.159 29.159c-34.199-32.638-79.925-53.283-130.366-55.166V15.215c33.523 1.015 65.771 8.795 95.964 23.182l6.492-13.623C331.506 8.335 294.496 0 256 0 187.619 0 123.332 26.628 74.981 74.981 26.629 123.333 0 187.62 0 256s26.628 132.668 74.981 181.019C123.333 485.372 187.62 512 256 512s132.668-26.628 181.019-74.981S512 324.38 512 256c0-44.899-11.792-89.072-34.101-127.743zm-44.252-35.226c38.724 41.972 61.358 96.582 63.144 155.423h-41.05c-1.807-48.424-20.911-92.498-51.313-126.204l29.219-29.219zm-185.193-77.81v41.038c-49.433 1.844-94.328 21.719-128.292 53.232L91.161 80.489c41.416-38.922 96.556-63.39 157.293-65.268zM80.489 91.16l29.003 29.002c-31.513 33.965-51.388 78.859-53.232 128.292H15.221c1.878-60.737 26.346-115.878 65.268-157.294zM15.221 263.546h41.037c1.882 50.441 22.528 96.167 55.166 130.366l-28.985 28.985c-40.055-41.639-65.308-97.604-67.218-159.351zm233.233 233.233c-59.727-1.847-114.044-25.536-155.219-63.336l29.016-29.016c33.706 30.402 77.78 49.507 126.204 51.313v41.039zM71.194 256c0-101.903 82.904-184.806 184.806-184.806S440.806 154.098 440.806 256c0 101.903-82.904 184.806-184.806 184.806S71.194 357.903 71.194 256zm192.352 240.779v-41.038c49.433-1.844 94.328-21.719 128.292-53.232l29.003 29.002c-41.417 38.921-96.558 63.39-157.295 65.268zm167.965-75.94l-29.003-29.002c31.513-33.964 51.388-78.859 53.232-128.291h41.038c-1.877 60.737-26.346 115.877-65.267 157.293z"></path><path d="M255.998 136.249c-66.031 0-119.75 53.72-119.75 119.751 0 31.518 12.151 61.277 34.214 83.795l10.779-10.562c-19.284-19.681-29.903-45.688-29.903-73.233 0-57.709 46.95-104.659 104.659-104.659S360.656 198.291 360.656 256s-46.95 104.659-104.659 104.659c-21.528 0-42.207-6.488-59.801-18.765l-8.635 12.377c20.139 14.052 43.804 21.479 68.436 21.479 66.031 0 119.751-53.72 119.751-119.751.001-66.03-53.719-119.75-119.75-119.75zM247.991 96.172h16.029v15.091h-16.029zM247.991 400.735h16.029v15.091h-16.029zM95.709 248.453h16.03v15.091h-16.03zM135.782 136.254h16.029v15.091h-16.029zM368.208 144.263h16.029v15.091h-16.029zM368.208 352.644h16.029v15.091h-16.029zM127.763 352.644h16.029v15.091h-16.029zM400.262 248.453h16.029v15.091h-16.029z"></path><path d="M184.337 256h15.091c0-31.194 25.378-56.571 56.571-56.571v-15.091c-39.514-.001-71.662 32.147-71.662 71.662zM256 327.663c39.515 0 71.663-32.148 71.663-71.663h-15.091c0 31.194-25.379 56.571-56.571 56.571v15.092z"></path></symbol><symbol viewBox="0 0 24 24" id="icon-003-coins"><path d="M17 24c-3.394 0-7-1.052-7-3a.5.5 0 0 1 1 0c0 .835 2.282 2 6 2s6-1.165 6-2a.5.5 0 0 1 1 0c0 1.948-3.606 3-7 3z"></path><path d="M17 21c-3.394 0-7-1.052-7-3a.5.5 0 0 1 1 0c0 .835 2.282 2 6 2s6-1.165 6-2a.5.5 0 0 1 1 0c0 1.948-3.606 3-7 3z"></path><path d="M17 18c-3.394 0-7-1.052-7-3s3.606-3 7-3 7 1.052 7 3-3.606 3-7 3zm0-5c-3.718 0-6 1.165-6 2s2.282 2 6 2 6-1.165 6-2-2.282-2-6-2z"></path><path d="M23.5 21.5a.5.5 0 0 1-.5-.5v-6a.5.5 0 0 1 1 0v6a.5.5 0 0 1-.5.5zM10.5 21.5a.5.5 0 0 1-.5-.5v-6a.5.5 0 0 1 1 0v6a.5.5 0 0 1-.5.5zM7 12c-3.394 0-7-1.052-7-3a.5.5 0 0 1 1 0c0 .835 2.282 2 6 2s6-1.165 6-2a.5.5 0 0 1 1 0c0 1.948-3.606 3-7 3z"></path><path d="M7 9C3.606 9 0 7.948 0 6a.5.5 0 0 1 1 0c0 .835 2.282 2 6 2s6-1.165 6-2a.5.5 0 0 1 1 0c0 1.948-3.606 3-7 3zM7 18c-3.394 0-7-1.052-7-3a.5.5 0 0 1 1 0c0 .835 2.282 2 6 2 .544 0 1.018-.022 1.447-.067a.5.5 0 0 1 .106.994C8.087 17.977 7.579 18 7 18zM7 21c-3.394 0-7-1.052-7-3a.5.5 0 0 1 1 0c0 .835 2.282 2 6 2 .544 0 1.018-.022 1.447-.067a.5.5 0 0 1 .106.994C8.087 20.977 7.579 21 7 21zM7 15c-3.394 0-7-1.052-7-3a.5.5 0 0 1 1 0c0 .835 2.282 2 6 2 .544 0 1.018-.022 1.447-.067a.5.5 0 1 1 .106.994C8.087 14.977 7.579 15 7 15z"></path><path d="M7 6C3.606 6 0 4.948 0 3s3.606-3 7-3 7 1.052 7 3-3.606 3-7 3zm0-5C3.282 1 1 2.165 1 3s2.282 2 6 2 6-1.165 6-2-2.282-2-6-2z"></path><path d="M.5 18.5A.5.5 0 0 1 0 18V3a.5.5 0 0 1 1 0v15a.5.5 0 0 1-.5.5zM13.5 9.5A.5.5 0 0 1 13 9V3a.5.5 0 0 1 1 0v6a.5.5 0 0 1-.5.5z"></path></symbol><symbol viewBox="0 0 74 74" id="icon-004-discount"><path d="M37 71a34 34 0 1 1 34-34 34.038 34.038 0 0 1-34 34zm0-66a32 32 0 1 0 32 32A32.036 32.036 0 0 0 37 5z"></path><path d="M22.056 53.056a1 1 0 0 1-.707-1.707l30-30a1 1 0 0 1 1.414 1.414l-30 30a1 1 0 0 1-.707.293zM27.16 34.373a7.213 7.213 0 0 1-5.1-12.315 7.216 7.216 0 1 1 5.1 12.315zm-3.688-10.9a5.217 5.217 0 1 0 7.377 0 5.223 5.223 0 0 0-7.377 0zM46.275 53.593a7.318 7.318 0 1 1 5.177-2.141 7.3 7.3 0 0 1-5.177 2.141zm0-12.636a5.318 5.318 0 1 0 3.763 1.556 5.306 5.306 0 0 0-3.763-1.556z"></path></symbol><symbol viewBox="0 0 289 492" id="icon-arrow-strong"><path d="M281.2 226.8L62.3 7.9C57.2 2.8 50.4 0 43.2 0s-14 2.8-19 7.9L8.1 24c-10.5 10.5-10.5 27.6 0 38L192 245.9 7.9 430C2.8 435 0 441.8 0 449c0 7.2 2.8 14 7.9 19L24 484.1c5.1 5.1 11.8 7.9 19 7.9s14-2.8 19-7.9L281.2 265c5.1-5.1 7.9-11.9 7.8-19.1.1-7.2-2.7-14-7.8-19.1z"></path></symbol><symbol viewBox="0 0 512 341.3" id="icon-arrow"><path d="M508.9 163.1l-160-160C344.7-1 338-1 333.8 3.1c-4.2 4.2-4.2 10.9 0 15.1L475.6 160H10.7C4.8 160 0 164.8 0 170.7s4.8 10.7 10.7 10.7h464.9L333.8 323.1c-4.2 4.2-4.2 10.9 0 15.1 2.1 2.1 4.8 3.1 7.5 3.1s5.5-1 7.5-3.1l160-160c4.2-4.2 4.2-10.9.1-15.1z"></path></symbol><symbol viewBox="0 0 330 330" id="icon-calendar"><path d="M15 330h300c8.3 0 15-6.7 15-15V45c0-8.3-6.7-15-15-15h-85V15c0-8.3-6.7-15-15-15s-15 6.7-15 15v15h-70V15c0-8.3-6.7-15-15-15s-15 6.7-15 15v15H15C6.7 30 0 36.7 0 45v270c0 8.3 6.7 15 15 15zm15-30V120h270v180H30zM300 60v30H30V60h270z"></path></symbol><symbol viewBox="0 0 18 13" id="icon-check"><path d="M6 13c-.3 0-.5-.1-.7-.3l-5-5c-.4-.4-.4-1 0-1.4s1-.4 1.4 0L6 10.6 16.3.3c.4-.4 1-.4 1.4 0s.4 1 0 1.4l-11 11c-.2.2-.4.3-.7.3z"></path></symbol><symbol viewBox="0 0 512 512" id="icon-clock"><path d="M256 512C114.836 512 0 397.164 0 256S114.836 0 256 0s256 114.836 256 256-114.836 256-256 256zm0-480C132.48 32 32 132.48 32 256s100.48 224 224 224 224-100.48 224-224S379.52 32 256 32zm0 0"></path><path d="M368 394.668a15.879 15.879 0 0 1-11.309-4.695l-112-112A16.002 16.002 0 0 1 240 266.668V117.332c0-8.832 7.168-16 16-16s16 7.168 16 16v142.7L379.309 367.34c6.25 6.25 6.25 16.383 0 22.633A15.879 15.879 0 0 1 368 394.668zm0 0"></path></symbol><symbol viewBox="0 0 477.867 477.867" id="icon-copy"><path d="M341.333 85.333H51.2c-28.277 0-51.2 22.923-51.2 51.2v290.133c0 28.277 22.923 51.2 51.2 51.2h290.133c28.277 0 51.2-22.923 51.2-51.2V136.533c0-28.277-22.923-51.2-51.2-51.2zM358.4 426.667c0 9.426-7.641 17.067-17.067 17.067H51.2c-9.426 0-17.067-7.641-17.067-17.067V136.533c0-9.426 7.641-17.067 17.067-17.067h290.133c9.426 0 17.067 7.641 17.067 17.067v290.134z"></path><path d="M426.667 0h-307.2c-28.277 0-51.2 22.923-51.2 51.2 0 9.426 7.641 17.067 17.067 17.067S102.4 60.626 102.4 51.2s7.641-17.067 17.067-17.067h307.2c9.426 0 17.067 7.641 17.067 17.067v307.2c0 9.426-7.641 17.067-17.067 17.067s-17.067 7.641-17.067 17.067 7.641 17.067 17.067 17.067c28.277 0 51.2-22.923 51.2-51.2V51.2c0-28.277-22.923-51.2-51.2-51.2z"></path></symbol><symbol viewBox="0 0 311 311.07733" id="icon-cross"><path d="M16.035 311.078c-4.097 0-8.195-1.558-11.308-4.695-6.25-6.25-6.25-16.383 0-22.633L283.789 4.687c6.25-6.25 16.383-6.25 22.633 0s6.25 16.383 0 22.637L27.363 306.383a16.045 16.045 0 0 1-11.328 4.695zm0 0"></path><path d="M295.117 311.078a15.879 15.879 0 0 1-11.308-4.695L4.727 27.324c-6.25-6.254-6.25-16.386 0-22.636s16.382-6.25 22.636 0L306.422 283.75c6.25 6.25 6.25 16.383 0 22.633-3.137 3.117-7.23 4.695-11.305 4.695zm0 0"></path></symbol><symbol viewBox="0 0 26 6" id="icon-dots"><circle class="st0" cx="3" cy="3" r="3"></circle><circle class="st0" cx="13" cy="3" r="3"></circle><circle class="st0" cx="23" cy="3" r="3"></circle></symbol><symbol viewBox="0 0 512 512" id="icon-email"><path d="M467 61H45C20.218 61 0 81.196 0 106v300c0 24.72 20.128 45 45 45h422c24.72 0 45-20.128 45-45V106c0-24.72-20.128-45-45-45zm-6.214 30L256.954 294.833 51.359 91h409.427zM30 399.788V112.069l144.479 143.24L30 399.788zM51.213 421l144.57-144.57 50.657 50.222c5.864 5.814 15.327 5.795 21.167-.046L317 277.213 460.787 421H51.213zM482 399.787L338.213 256 482 112.212v287.575z"></path></symbol><symbol viewBox="0 0 512 512" id="icon-linkedin-circle"><path d="M256 0C114.637 0 0 114.637 0 256s114.637 256 256 256 256-114.637 256-256S397.363 0 256 0zm-74.39 387h-62.348V199.426h62.347zm-31.173-213.188h-.406c-20.922 0-34.453-14.402-34.453-32.402 0-18.406 13.945-32.41 35.274-32.41 21.328 0 34.453 14.004 34.859 32.41 0 18-13.531 32.403-35.274 32.403zM406.423 387h-62.34V286.652c0-25.218-9.027-42.418-31.586-42.418-17.223 0-27.48 11.602-31.988 22.801-1.649 4.008-2.051 9.61-2.051 15.215V387h-62.344s.817-169.977 0-187.574h62.344v26.558c8.285-12.78 23.11-30.96 56.188-30.96 41.02 0 71.777 26.808 71.777 84.421zm0 0"></path></symbol><symbol viewBox="0 0 438.5 419.1" id="icon-lk"><path d="M5.4 136.2h94.2v282.9H5.4zM408.8 162c-19.8-21.6-46-32.4-78.5-32.4-12 0-22.9 1.5-32.7 4.4-9.8 3-18.1 7.1-24.8 12.4-6.8 5.3-12.1 10.3-16.1 14.8-3.8 4.3-7.5 9.4-11.1 15.1v-40.2h-93.9l.3 13.7c.2 9.1.3 37.3.3 84.5s-.2 108.8-.6 184.7h93.9V261.2c0-9.7 1-17.4 3.1-23.1 4-9.7 10-17.8 18.1-24.4 8.1-6.6 18.1-9.9 30.1-9.9 16.4 0 28.4 5.7 36.1 17 7.7 11.3 11.6 27 11.6 47v151.3h93.9V257c0-41.7-9.9-73.4-29.7-95zM53.1 0C37.3 0 24.5 4.6 14.7 13.8 4.9 23.1 0 34.7 0 48.8c0 13.9 4.8 25.5 14.3 34.8 9.5 9.3 22.1 14 37.7 14h.6c16 0 28.9-4.7 38.7-14 9.8-9.3 14.6-20.9 14.4-34.8-.2-14.1-5-25.7-14.6-35C81.6 4.6 68.9 0 53.1 0z"></path></symbol><symbol viewBox="0 0 24 24" id="icon-medium"><path d="M7.996 21.324c0 .695-.521.982-1.098.695L.67 18.906c-.188-.089-.346-.238-.475-.447S0 18.042 0 17.837V2.61c0-.568.341-.825 1.112-.441l6.844 3.42c.099.099.026-.581.04 15.735zm.857-14.32l7.152 11.568-7.152-3.553zM24 7.245v14.079c0 .223-.062.403-.188.541-.125.138-.295.207-.509.207s-.424-.058-.629-.174l-5.906-2.939zm-.04-1.603c0 .027-1.145 1.895-3.435 5.603s-3.632 5.88-4.025 6.512l-5.223-8.469 4.339-7.039c.236-.388.72-.456 1.045-.294l7.246 3.607c.035.017.053.044.053.08z"></path></symbol><symbol viewBox="0 0 54 54" id="icon-play"><path d="M49.217 0H4.783A4.789 4.789 0 0 0 0 4.783v44.434A4.789 4.789 0 0 0 4.783 54h44.435A4.789 4.789 0 0 0 54 49.217V4.783A4.789 4.789 0 0 0 49.217 0zM52 49.217A2.787 2.787 0 0 1 49.217 52H4.783A2.787 2.787 0 0 1 2 49.217V4.783A2.787 2.787 0 0 1 4.783 2h44.435A2.787 2.787 0 0 1 52 4.783v44.434z"></path><path d="M40.043 25.293L18.957 13.118a1.957 1.957 0 0 0-1.971 0A1.952 1.952 0 0 0 16 14.825v24.35c0 .713.369 1.351.986 1.707.309.178.647.268.985.268s.677-.09.985-.268l21.087-12.175c.617-.356.986-.995.986-1.707s-.368-1.351-.986-1.707zm-1 1.682L18 39.175l-.043-24.324 21.086 12.124.5.866-.5-.866z"></path></symbol><symbol viewBox="0 0 214.5 240.8" id="icon-sorting"><path d="M1.2 134.2l106.6 106.6 106.7-106.6zM213.3 106.7L106.7 0 0 106.7z"></path></symbol><symbol viewBox="0 -39 512.00011 512" id="icon-telegram-line"><path d="M504.094 11.86C497.84 4.21 488.473 0 477.714 0c-5.847 0-12.042 1.23-18.41 3.664L25.907 169.105c-23 8.778-26.097 21.95-25.898 29.02s4.039 20.047 27.5 27.512c.14.043.281.086.422.125l89.898 25.726 48.617 139.024c6.63 18.953 21.508 30.726 38.836 30.726 10.926 0 21.672-4.578 31.078-13.234l55.606-51.2 80.652 64.942c.008.008.02.012.028.02l.765.617.215.168c8.965 6.953 18.75 10.625 28.309 10.629h.003c18.676 0 33.547-13.825 37.88-35.215l71.011-350.64c2.852-14.075.461-26.669-6.734-35.466zM147.902 246.601l173.442-88.606L213.348 272.75a14.975 14.975 0 0 0-3.641 6.684l-20.824 84.351zm68.133 139.332c-.719.66-1.441 1.25-2.164 1.793l19.32-78.25 35.145 28.3zm265.39-344.567l-71.01 350.645c-.685 3.355-2.868 11.164-8.481 11.164-2.774 0-6.258-1.512-9.825-4.258l-91.39-73.586a.173.173 0 0 0-.043-.031l-54.38-43.79 156.177-165.949a15 15 0 0 0-17.746-23.636L127.859 223.152l-91.12-26.07 433.265-165.39c3.66-1.399 6.215-1.692 7.71-1.692.919 0 2.552.11 3.157.855.797.973 1.813 4.29.555 10.512zm0 0"></path></symbol><symbol viewBox="0 0 24 24" id="icon-telegram"><path d="M9.417 15.181l-.397 5.584c.568 0 .814-.244 1.109-.537l2.663-2.545 5.518 4.041c1.012.564 1.725.267 1.998-.931L23.93 3.821l.001-.001c.321-1.496-.541-2.081-1.527-1.714l-21.29 8.151c-1.453.564-1.431 1.374-.247 1.741l5.443 1.693L18.953 5.78c.595-.394 1.136-.176.691.218z"></path></symbol><symbol viewBox="0 0 24 24" id="icon-twitter-line"><path d="M.473 19.595a13.928 13.928 0 0 0 7.478 2.155c3.91 0 7.493-1.502 10.09-4.229 2.485-2.61 3.852-6.117 3.784-9.676.942-.806 2.05-2.345 2.05-3.845a.75.75 0 0 0-1.13-.647c-.885.52-1.692.656-2.522.423-1.695-1.652-4.218-2-6.344-.854-1.858 1-2.891 2.83-2.798 4.83A12.427 12.427 0 0 1 3.02 3.349a.75.75 0 0 0-1.226.1C.82 5.117.83 7.05 1.677 8.611a.78.78 0 0 0-.652.777 5.29 5.29 0 0 0 1.843 3.995.749.749 0 0 0-.192.777 5.384 5.384 0 0 0 3.047 3.264 8.732 8.732 0 0 1-4.756.794c-.784-.106-1.171.948-.494 1.377zm7.683-1.914c.561-.431.263-1.329-.441-1.344a3.912 3.912 0 0 1-3.072-1.598 5.29 5.29 0 0 0 1.024-.164c.761-.206.725-1.304-.048-1.459a3.85 3.85 0 0 1-2.917-2.62c.377.093.761.145 1.144.152.759.004 1.046-.969.427-1.376-1.395-.919-1.99-2.542-1.596-4.068a13.943 13.943 0 0 0 9.237 4.123.749.749 0 0 0 .767-.917c-.475-2.059.675-3.502 1.91-4.167 1.222-.66 3.184-.866 4.688.712.447.471 1.955.489 2.722.31-.344.648-.873 1.263-1.368 1.609a.75.75 0 0 0-.319.651c.161 3.285-1.063 6.551-3.358 8.96-2.312 2.427-5.509 3.764-9.004 3.764-1.39 0-2.753-.226-4.041-.662 1.54-.298 3.003-.95 4.245-1.906z"></path></symbol><symbol viewBox="0 0 512 512" id="icon-twitter"><path d="M512 97.248c-19.04 8.352-39.328 13.888-60.48 16.576 21.76-12.992 38.368-33.408 46.176-58.016-20.288 12.096-42.688 20.64-66.56 25.408C411.872 60.704 384.416 48 354.464 48c-58.112 0-104.896 47.168-104.896 104.992 0 8.32.704 16.32 2.432 23.936-87.264-4.256-164.48-46.08-216.352-109.792-9.056 15.712-14.368 33.696-14.368 53.056 0 36.352 18.72 68.576 46.624 87.232-16.864-.32-33.408-5.216-47.424-12.928v1.152c0 51.008 36.384 93.376 84.096 103.136-8.544 2.336-17.856 3.456-27.52 3.456-6.72 0-13.504-.384-19.872-1.792 13.6 41.568 52.192 72.128 98.08 73.12-35.712 27.936-81.056 44.768-130.144 44.768-8.608 0-16.864-.384-25.12-1.44C46.496 446.88 101.6 464 161.024 464c193.152 0 298.752-160 298.752-298.688 0-4.64-.16-9.12-.384-13.568 20.832-14.784 38.336-33.248 52.608-54.496z"></path></symbol><symbol viewBox="0 0 432 354" id="icon-wallet"><path d="M390.6 0H88.3C65.5.1 47 18.6 47 41.5v.5h-5.6C18.6 42 .1 60.4 0 83.2v229.3c.1 22.8 18.5 41.4 41.4 41.5h302.3c22.8-.1 41.3-18.6 41.3-41.5v-.5h5.6c22.8 0 41.3-18.4 41.4-41.2V41.5C431.9 18.6 413.5.1 390.6 0zm-46.9 334H41.4c-11.8-.1-21.3-9.7-21.4-21.5V83.2C20.1 71.5 29.6 62 41.4 62h302.3c11.7 0 21.3 9.4 21.3 21.2v57.2c-1.8.4-3.6.6-5.3.6H302c-31.4 0-56.9 25.5-56.9 56.9s25.5 56.9 56.9 57h57.6c1.8-.1 3.6-.3 5.3-.5l.1 58.1c0 11.8-9.5 21.4-21.3 21.5zm68.3-63.2c-.1 11.7-9.6 21.2-21.4 21.2H385v-44.8c4.3-2.9 8.2-6.5 11.5-10.5l15.5-20v54.1zm-31.3-46.2c-5 6.5-12.8 10.3-21 10.4H302c-20.4-.1-36.9-16.6-36.9-37s16.5-36.9 36.9-37h57.6c6.9 0 13.7-1.5 19.9-4.5 6.6-3.1 12.4-7.8 16.9-13.6l15.5-20 .1 61.1-31.3 40.6zM412 90.2L385 125V83.2c0-22.8-18.5-41.2-41.3-41.2H67v-.5c0-11.8 9.5-21.4 21.3-21.5h302.3c11.8.1 21.3 9.7 21.4 21.5v48.7z"></path><path d="M324.4 188h-24c-5.5 0-10 4.5-10 10s4.5 10 10 10h24c5.5 0 10-4.5 10-10s-4.5-10-10-10z"></path></symbol><symbol viewBox="0 0 24 24" id="icon-youtube-line"><path d="M9.939 7.856a.75.75 0 0 0-1.134.644v7c0 .585.638.939 1.134.645l5.869-3.495a.751.751 0 0 0 .001-1.289zm.366 6.325v-4.36l3.655 2.183z"></path><path d="M19.904 3.271c-4.653-.691-11.153-.691-15.808 0C2.234 3.547.767 5.009.447 6.907c-.596 3.523-.596 6.664 0 10.186.32 1.899 1.787 3.36 3.649 3.636 2.332.346 5.124.519 7.915.519 2.786 0 5.571-.172 7.894-.518 1.86-.276 3.326-1.737 3.648-3.636.596-3.523.596-6.665 0-10.188-.32-1.897-1.787-3.359-3.649-3.635zm2.17 13.573c-.213 1.256-1.173 2.222-2.39 2.402-4.518.671-10.838.671-15.368-.001-1.218-.181-2.179-1.146-2.391-2.402-.574-3.394-.574-6.291 0-9.687.213-1.256 1.173-2.22 2.392-2.402 2.262-.335 4.973-.503 7.682-.503 2.711 0 5.422.168 7.684.503 1.218.181 2.179 1.146 2.391 2.402.574 3.396.574 6.293 0 9.688z"></path></symbol><symbol viewBox="0 0 90.677 90.677" id="icon-youtube-text"><path d="M82.287 45.907c-.937-4.071-4.267-7.074-8.275-7.521-9.489-1.06-19.098-1.065-28.66-1.06-9.566-.005-19.173 0-28.665 1.06-4.006.448-7.334 3.451-8.27 7.521-1.334 5.797-1.35 12.125-1.35 18.094 0 5.969 0 12.296 1.334 18.093.936 4.07 4.264 7.073 8.272 7.521 9.49 1.061 19.097 1.065 28.662 1.061 9.566.005 19.171 0 28.664-1.061 4.006-.448 7.336-3.451 8.272-7.521 1.333-5.797 1.34-12.124 1.34-18.093-.001-5.97.009-12.297-1.324-18.094zM28.9 50.4h-5.54v29.438h-5.146V50.4h-5.439v-4.822H28.9V50.4zm13.977 29.439h-4.629v-2.785c-1.839 2.108-3.585 3.136-5.286 3.136-1.491 0-2.517-.604-2.98-1.897-.252-.772-.408-1.994-.408-3.796V54.311h4.625v18.795c0 1.084 0 1.647.042 1.799.111.718.462 1.082 1.082 1.082.928 0 1.898-.715 2.924-2.166v-19.51h4.629l.001 25.528zm17.573-7.662c0 2.361-.159 4.062-.468 5.144-.618 1.899-1.855 2.869-3.695 2.869-1.646 0-3.234-.914-4.781-2.824v2.474h-4.625V45.578h4.625v11.189c1.494-1.839 3.08-2.769 4.781-2.769 1.84 0 3.078.969 3.695 2.88.311 1.027.468 2.715.468 5.132v10.167zm17.457-4.259h-9.251v4.525c0 2.363.773 3.543 2.363 3.543 1.139 0 1.802-.619 2.066-1.855.043-.251.104-1.279.104-3.134h4.719v.675c0 1.491-.057 2.518-.099 2.98a6.591 6.591 0 0 1-1.08 2.771c-1.281 1.854-3.179 2.768-5.595 2.768-2.42 0-4.262-.871-5.599-2.614-.981-1.278-1.485-3.29-1.485-6.003v-8.941c0-2.729.447-4.725 1.43-6.015 1.336-1.747 3.177-2.617 5.54-2.617 2.321 0 4.161.87 5.457 2.617.969 1.29 1.432 3.286 1.432 6.015v5.285h-.002z"></path><path d="M70.978 58.163c-1.546 0-2.321 1.181-2.321 3.541v2.362h4.625v-2.362c-.001-2.36-.774-3.541-2.304-3.541zM53.812 58.163c-.762 0-1.534.36-2.307 1.125v15.559c.772.774 1.545 1.14 2.307 1.14 1.334 0 2.012-1.14 2.012-3.445V61.646c0-2.302-.678-3.483-2.012-3.483zM56.396 34.973c1.705 0 3.479-1.036 5.34-3.168v2.814h4.675V8.82h-4.675v19.718c-1.036 1.464-2.018 2.188-2.953 2.188-.626 0-.994-.37-1.096-1.095-.057-.153-.057-.722-.057-1.817V8.82h-4.66v20.4c0 1.822.156 3.055.414 3.836.47 1.307 1.507 1.917 3.012 1.917zM23.851 20.598v14.021h5.184V20.598L35.271 0h-5.242l-3.537 13.595L22.812 0h-5.455c1.093 3.209 2.23 6.434 3.323 9.646 1.663 4.828 2.701 8.468 3.171 10.952zM42.219 34.973c2.342 0 4.162-.881 5.453-2.641.981-1.291 1.451-3.325 1.451-6.067v-9.034c0-2.758-.469-4.774-1.451-6.077-1.291-1.765-3.11-2.646-5.453-2.646-2.33 0-4.149.881-5.443 2.646-.993 1.303-1.463 3.319-1.463 6.077v9.034c0 2.742.47 4.776 1.463 6.067 1.293 1.76 3.113 2.641 5.443 2.641zm-2.231-18.679c0-2.387.724-3.577 2.231-3.577s2.229 1.189 2.229 3.577v10.852c0 2.387-.722 3.581-2.229 3.581-1.507 0-2.231-1.194-2.231-3.581V16.294z"></path></symbol><symbol viewBox="-21 -117 682.66672 682" id="icon-youtube"><path d="M626.813 64.035c-7.375-27.418-28.993-49.031-56.407-56.414C520.324-6.082 319.992-6.082 319.992-6.082s-200.324 0-250.406 13.184c-26.887 7.375-49.031 29.52-56.406 56.933C0 114.113 0 217.97 0 217.97s0 104.379 13.18 153.933c7.382 27.414 28.992 49.028 56.41 56.41C120.195 442.02 320 442.02 320 442.02s200.324 0 250.406-13.184c27.418-7.379 49.032-28.992 56.414-56.406 13.176-50.082 13.176-153.934 13.176-153.934s.527-104.383-13.183-154.46zM256.21 313.915V122.022l166.586 95.946zm0 0"></path></symbol></svg>