<svg xmlns="http://www.w3.org/2000/svg" style="position:absolute; width: 0; height: 0"><symbol viewBox="0 0 480 480" id="icon-001-down-arrow"><path d="M240 0C107.452 0 0 107.452 0 240s107.452 240 240 240c132.486-.15 239.85-107.514 240-240C480 107.452 372.548 0 240 0zm0 464C116.288 464 16 363.712 16 240S116.288 16 240 16c123.653.141 223.859 100.347 224 224 0 123.712-100.288 224-224 224z"></path><path d="M370.112 170.576L240 300.688 109.888 170.576a8 8 0 0 0-11.312 11.312l135.768 135.768a8 8 0 0 0 11.312 0l135.768-135.768a8 8 0 1 0-11.312-11.312z"></path></symbol><symbol viewBox="0 0 512 512" id="icon-001-exchange"><path d="M256 0a10.678 10.678 0 0 0-10.063 7.135A10.667 10.667 0 0 0 249.333 19l53.333 42.667c4.625 3.677 11.313 2.948 15-1.667 3.666-4.604 2.938-11.313-1.667-15l-26.646-21.302C403.021 39.948 490.667 137.927 490.667 256c0 77.385-38.146 149.76-102.042 193.615-4.854 3.333-6.083 9.969-2.75 14.823a10.611 10.611 0 0 0 8.792 4.635c2.083 0 4.188-.604 6.042-1.875C470.396 419.375 512 340.417 512 256 512 114.844 397.167 0 256 0zM262.666 493l-53.333-42.667c-4.604-3.646-11.312-2.938-15 1.667-3.667 4.604-2.938 11.313 1.666 15l26.646 21.302C108.979 472.052 21.333 374.073 21.333 256c0-77.385 38.146-149.76 102.042-193.625 4.854-3.333 6.083-9.969 2.75-14.833-3.313-4.854-9.938-6.073-14.833-2.75C41.604 92.625 0 171.583 0 256c0 141.156 114.833 256 256 256 4.521 0 8.563-2.865 10.063-7.135 1.5-4.271.145-9.032-3.397-11.865z"></path><path d="M245.333 181.333h64A10.66 10.66 0 0 0 320 170.666a10.66 10.66 0 0 0-10.667-10.667h-42.667v-21.333c0-5.896-4.771-10.667-10.667-10.667s-10.667 4.771-10.667 10.667V160C215.917 160 192 183.927 192 213.333s23.917 53.333 53.333 53.333h21.333c17.646 0 32 14.354 32 32s-14.354 32-32 32h-64a10.66 10.66 0 0 0-10.667 10.667A10.66 10.66 0 0 0 202.666 352h42.667v21.333c0 5.896 4.771 10.667 10.667 10.667s10.667-4.771 10.667-10.667V352C296.083 352 320 328.073 320 298.667s-23.917-53.333-53.333-53.333h-21.333c-17.646 0-32-14.354-32-32-.001-17.646 14.354-32.001 31.999-32.001z"></path></symbol><symbol viewBox="0 0 611.997 611.997" id="icon-001-key-with-hole"><path d="M554.068 57.971C516.679 20.588 466.974 0 414.108 0c-52.869 0-102.575 20.588-139.956 57.971-37.39 37.385-57.98 87.092-57.98 139.963 0 27.181 5.481 53.51 15.849 77.773L13.939 493.789a23.845 23.845 0 0 0-6.897 14.754l-6.903 77.47a23.86 23.86 0 0 0 25.887 25.889l77.474-6.901a23.854 23.854 0 0 0 14.754-6.901l23.491-23.493c-.16-.652-.275-1.32-.323-2.011l-3.851-56.142a11.541 11.541 0 0 1 3.353-8.949c2.357-2.357 5.598-3.561 8.946-3.353L206.017 508c.691.045 1.362.162 2.013.325l18.438-18.438a11.699 11.699 0 0 1-.325-2.015l-3.851-56.142a11.548 11.548 0 0 1 3.353-8.949 11.552 11.552 0 0 1 8.949-3.353l56.146 3.851c.688.045 1.362.162 2.013.325l43.594-43.596c24.263 10.369 50.594 15.847 77.771 15.847 52.871 0 102.575-20.588 139.961-57.969 77.167-77.163 77.167-202.735-.011-279.915zm-82.327 197.598c-15.393 15.391-35.859 23.867-57.631 23.867-21.77 0-42.236-8.477-57.629-23.872-15.395-15.393-23.874-35.861-23.874-57.631 0-21.772 8.479-42.238 23.874-57.631 15.388-15.393 35.857-23.869 57.627-23.869 21.772 0 42.238 8.477 57.631 23.869 31.779 31.78 31.779 83.491.002 115.267z"></path></symbol><symbol viewBox="0 0 238.9 443.5" id="icon-001-right-arrow"><path d="M233.9 209.6L29.1 4.8C22.3-1.8 11.5-1.6 5 5.2c-6.4 6.6-6.4 17.1 0 23.7l192.7 192.7L5 414.4c-6.7 6.7-6.7 17.5 0 24.1 6.7 6.7 17.5 6.7 24.1 0l204.8-204.8c6.7-6.6 6.7-17.4 0-24.1z"></path></symbol><symbol viewBox="0 0 384 384" id="icon-001-tick"><path d="M192 0C85.961 0 0 85.961 0 192s85.961 192 192 192 192-85.961 192-192S298.039 0 192 0zm0 341.333c-82.475 0-149.333-66.859-149.333-149.333S109.525 42.667 192 42.667 341.333 109.525 341.333 192 274.475 341.333 192 341.333z"></path><path d="M258.059 113.783l-88.608 99.13-44.271-42.497-29.547 30.78 76.165 73.114L289.87 142.217z"></path></symbol><symbol viewBox="0 0 368 368" id="icon-002-cryptocurrency"><path d="M184 0C82.535 0 0 82.543 0 184s82.535 184 184 184 184-82.543 184-184S285.465 0 184 0zm0 352c-92.633 0-168-75.36-168-168S91.367 16 184 16s168 75.36 168 168-75.367 168-168 168zm0 0"></path><path d="M184 48c-17.84 0-34.848 3.543-50.48 9.824-.336.114-.665.207-.977.36C98.895 72 71.993 98.894 58.183 132.55c-.152.312-.246.64-.359.976C51.543 149.152 48 166.16 48 184c0 74.992 61.008 136 136 136s136-61.008 136-136S258.992 48 184 48zm-56 29.953V128H77.953A120.589 120.589 0 0 1 128 77.953zM184 304c-66.168 0-120-53.832-120-120 0-14.04 2.55-27.465 7-40h57v40c0 30.879 25.129 56 56 56s56-25.121 56-56-25.129-56-56-56h-40V71c12.535-4.45 25.96-7 40-7 66.168 0 120 53.832 120 120s-53.832 120-120 120zm0-160c22.055 0 40 17.945 40 40s-17.945 40-40 40-40-17.945-40-40v-40zm0 0"></path></symbol><symbol viewBox="0 0 512 512" id="icon-002-user"><path d="M255.999 0c-74.443 0-135 60.557-135 135s60.557 135 135 135 135-60.557 135-135-60.557-135-135-135zM478.48 398.68C438.124 338.138 370.579 302 297.835 302h-83.672c-72.744 0-140.288 36.138-180.644 96.68l-2.52 3.779V512H481V402.459l-2.52-3.779z"></path></symbol><symbol viewBox="0 0 512 512" id="icon-003-chip"><path d="M477.899 128.257c-21.639-37.511-52.679-69.173-89.763-91.563l-7.8 12.919c15.644 9.445 29.932 20.414 42.735 32.653l-29.159 29.159c-34.199-32.638-79.925-53.283-130.366-55.166V15.215c33.523 1.015 65.771 8.795 95.964 23.182l6.492-13.623C331.506 8.335 294.496 0 256 0 187.619 0 123.332 26.628 74.981 74.981 26.629 123.333 0 187.62 0 256s26.628 132.668 74.981 181.019C123.333 485.372 187.62 512 256 512s132.668-26.628 181.019-74.981S512 324.38 512 256c0-44.899-11.792-89.072-34.101-127.743zm-44.252-35.226c38.724 41.972 61.358 96.582 63.144 155.423h-41.05c-1.807-48.424-20.911-92.498-51.313-126.204l29.219-29.219zm-185.193-77.81v41.038c-49.433 1.844-94.328 21.719-128.292 53.232L91.161 80.489c41.416-38.922 96.556-63.39 157.293-65.268zM80.489 91.16l29.003 29.002c-31.513 33.965-51.388 78.859-53.232 128.292H15.221c1.878-60.737 26.346-115.878 65.268-157.294zM15.221 263.546h41.037c1.882 50.441 22.528 96.167 55.166 130.366l-28.985 28.985c-40.055-41.639-65.308-97.604-67.218-159.351zm233.233 233.233c-59.727-1.847-114.044-25.536-155.219-63.336l29.016-29.016c33.706 30.402 77.78 49.507 126.204 51.313v41.039zM71.194 256c0-101.903 82.904-184.806 184.806-184.806S440.806 154.098 440.806 256c0 101.903-82.904 184.806-184.806 184.806S71.194 357.903 71.194 256zm192.352 240.779v-41.038c49.433-1.844 94.328-21.719 128.292-53.232l29.003 29.002c-41.417 38.921-96.558 63.39-157.295 65.268zm167.965-75.94l-29.003-29.002c31.513-33.964 51.388-78.859 53.232-128.291h41.038c-1.877 60.737-26.346 115.877-65.267 157.293z"></path><path d="M255.998 136.249c-66.031 0-119.75 53.72-119.75 119.751 0 31.518 12.151 61.277 34.214 83.795l10.779-10.562c-19.284-19.681-29.903-45.688-29.903-73.233 0-57.709 46.95-104.659 104.659-104.659S360.656 198.291 360.656 256s-46.95 104.659-104.659 104.659c-21.528 0-42.207-6.488-59.801-18.765l-8.635 12.377c20.139 14.052 43.804 21.479 68.436 21.479 66.031 0 119.751-53.72 119.751-119.751.001-66.03-53.719-119.75-119.75-119.75zM247.991 96.172h16.029v15.091h-16.029zM247.991 400.735h16.029v15.091h-16.029zM95.709 248.453h16.03v15.091h-16.03zM135.782 136.254h16.029v15.091h-16.029zM368.208 144.263h16.029v15.091h-16.029zM368.208 352.644h16.029v15.091h-16.029zM127.763 352.644h16.029v15.091h-16.029zM400.262 248.453h16.029v15.091h-16.029z"></path><path d="M184.337 256h15.091c0-31.194 25.378-56.571 56.571-56.571v-15.091c-39.514-.001-71.662 32.147-71.662 71.662zM256 327.663c39.515 0 71.663-32.148 71.663-71.663h-15.091c0 31.194-25.379 56.571-56.571 56.571v15.092z"></path></symbol><symbol viewBox="0 0 74 74" id="icon-004-discount"><path d="M37 71a34 34 0 1 1 34-34 34.038 34.038 0 0 1-34 34zm0-66a32 32 0 1 0 32 32A32.036 32.036 0 0 0 37 5z"></path><path d="M22.056 53.056a1 1 0 0 1-.707-1.707l30-30a1 1 0 0 1 1.414 1.414l-30 30a1 1 0 0 1-.707.293zM27.16 34.373a7.213 7.213 0 0 1-5.1-12.315 7.216 7.216 0 1 1 5.1 12.315zm-3.688-10.9a5.217 5.217 0 1 0 7.377 0 5.223 5.223 0 0 0-7.377 0zM46.275 53.593a7.318 7.318 0 1 1 5.177-2.141 7.3 7.3 0 0 1-5.177 2.141zm0-12.636a5.318 5.318 0 1 0 3.763 1.556 5.306 5.306 0 0 0-3.763-1.556z"></path></symbol><symbol viewBox="0 0 330 330" id="icon-calendar"><path d="M15 330h300c8.3 0 15-6.7 15-15V45c0-8.3-6.7-15-15-15h-85V15c0-8.3-6.7-15-15-15s-15 6.7-15 15v15h-70V15c0-8.3-6.7-15-15-15s-15 6.7-15 15v15H15C6.7 30 0 36.7 0 45v270c0 8.3 6.7 15 15 15zm15-30V120h270v180H30zM300 60v30H30V60h270z"></path></symbol><symbol viewBox="0 0 18 13" id="icon-check"><path d="M6 13c-.3 0-.5-.1-.7-.3l-5-5c-.4-.4-.4-1 0-1.4s1-.4 1.4 0L6 10.6 16.3.3c.4-.4 1-.4 1.4 0s.4 1 0 1.4l-11 11c-.2.2-.4.3-.7.3z"></path></symbol><symbol viewBox="0 0 330 330" id="icon-copy"><path d="M315 60h-45V15c0-8.284-6.716-15-15-15H15C6.716 0 0 6.716 0 15v240c0 8.284 6.716 15 15 15h45v45c0 8.284 6.716 15 15 15h240c8.284 0 15-6.716 15-15V75c0-8.284-6.716-15-15-15zM30 240V30h210v30H75c-8.284 0-15 6.716-15 15v165H30zm270 60H90V90h164.99l.01.001.01-.001H300v210z"></path></symbol><symbol viewBox="0 0 438.5 419.1" id="icon-lk"><path d="M5.4 136.2h94.2v282.9H5.4zM408.8 162c-19.8-21.6-46-32.4-78.5-32.4-12 0-22.9 1.5-32.7 4.4-9.8 3-18.1 7.1-24.8 12.4-6.8 5.3-12.1 10.3-16.1 14.8-3.8 4.3-7.5 9.4-11.1 15.1v-40.2h-93.9l.3 13.7c.2 9.1.3 37.3.3 84.5s-.2 108.8-.6 184.7h93.9V261.2c0-9.7 1-17.4 3.1-23.1 4-9.7 10-17.8 18.1-24.4 8.1-6.6 18.1-9.9 30.1-9.9 16.4 0 28.4 5.7 36.1 17 7.7 11.3 11.6 27 11.6 47v151.3h93.9V257c0-41.7-9.9-73.4-29.7-95zM53.1 0C37.3 0 24.5 4.6 14.7 13.8 4.9 23.1 0 34.7 0 48.8c0 13.9 4.8 25.5 14.3 34.8 9.5 9.3 22.1 14 37.7 14h.6c16 0 28.9-4.7 38.7-14 9.8-9.3 14.6-20.9 14.4-34.8-.2-14.1-5-25.7-14.6-35C81.6 4.6 68.9 0 53.1 0z"></path></symbol><symbol viewBox="0 0 54 54" id="icon-play"><path d="M49.217 0H4.783A4.789 4.789 0 0 0 0 4.783v44.434A4.789 4.789 0 0 0 4.783 54h44.435A4.789 4.789 0 0 0 54 49.217V4.783A4.789 4.789 0 0 0 49.217 0zM52 49.217A2.787 2.787 0 0 1 49.217 52H4.783A2.787 2.787 0 0 1 2 49.217V4.783A2.787 2.787 0 0 1 4.783 2h44.435A2.787 2.787 0 0 1 52 4.783v44.434z"></path><path d="M40.043 25.293L18.957 13.118a1.957 1.957 0 0 0-1.971 0A1.952 1.952 0 0 0 16 14.825v24.35c0 .713.369 1.351.986 1.707.309.178.647.268.985.268s.677-.09.985-.268l21.087-12.175c.617-.356.986-.995.986-1.707s-.368-1.351-.986-1.707zm-1 1.682L18 39.175l-.043-24.324 21.086 12.124.5.866-.5-.866z"></path></symbol><symbol viewBox="0 0 24 24" id="icon-telegram"><path d="M9.417 15.181l-.397 5.584c.568 0 .814-.244 1.109-.537l2.663-2.545 5.518 4.041c1.012.564 1.725.267 1.998-.931L23.93 3.821l.001-.001c.321-1.496-.541-2.081-1.527-1.714l-21.29 8.151c-1.453.564-1.431 1.374-.247 1.741l5.443 1.693L18.953 5.78c.595-.394 1.136-.176.691.218z"></path></symbol><symbol viewBox="0 0 512 512" id="icon-twitter"><path d="M512 97.248c-19.04 8.352-39.328 13.888-60.48 16.576 21.76-12.992 38.368-33.408 46.176-58.016-20.288 12.096-42.688 20.64-66.56 25.408C411.872 60.704 384.416 48 354.464 48c-58.112 0-104.896 47.168-104.896 104.992 0 8.32.704 16.32 2.432 23.936-87.264-4.256-164.48-46.08-216.352-109.792-9.056 15.712-14.368 33.696-14.368 53.056 0 36.352 18.72 68.576 46.624 87.232-16.864-.32-33.408-5.216-47.424-12.928v1.152c0 51.008 36.384 93.376 84.096 103.136-8.544 2.336-17.856 3.456-27.52 3.456-6.72 0-13.504-.384-19.872-1.792 13.6 41.568 52.192 72.128 98.08 73.12-35.712 27.936-81.056 44.768-130.144 44.768-8.608 0-16.864-.384-25.12-1.44C46.496 446.88 101.6 464 161.024 464c193.152 0 298.752-160 298.752-298.688 0-4.64-.16-9.12-.384-13.568 20.832-14.784 38.336-33.248 52.608-54.496z"></path></symbol><symbol viewBox="-21 -117 682.66672 682" id="icon-youtube"><path d="M626.813 64.035c-7.375-27.418-28.993-49.031-56.407-56.414C520.324-6.082 319.992-6.082 319.992-6.082s-200.324 0-250.406 13.184c-26.887 7.375-49.031 29.52-56.406 56.933C0 114.113 0 217.97 0 217.97s0 104.379 13.18 153.933c7.382 27.414 28.992 49.028 56.41 56.41C120.195 442.02 320 442.02 320 442.02s200.324 0 250.406-13.184c27.418-7.379 49.032-28.992 56.414-56.406 13.176-50.082 13.176-153.934 13.176-153.934s.527-104.383-13.183-154.46zM256.21 313.915V122.022l166.586 95.946zm0 0"></path></symbol></svg>