<svg version="1.1" id="Слой_1" xmlns="http://www.w3.org/2000/svg" x="0" y="0" width="367.7" height="392.9" xml:space="preserve"><style>.st0{fill:#726b86}.st1{fill:#e14135}.st2{fill:#a8a3bc}.st5{fill:#58506c}.st6{fill:#e14135;stroke:#e14135;stroke-width:3;stroke-miterlimit:10}</style><path class="st0" d="M309.3 246.7c-.8 0-1.5-.7-1.5-1.5v-59.3l13-10.2V134c0-.8.7-1.5 1.5-1.5s1.5.7 1.5 1.5v43.1l-13 10.2v57.8c0 .9-.7 1.6-1.5 1.6z"/><path class="st0" d="M314.9 140.1l1.3 1.2 6-6.4 6 6.4 1.3-1.2-7.3-7.9z"/><path class="st1" d="M293.3 268.3c-.8 0-1.5-.7-1.5-1.5v-37.3c0-.8.7-1.5 1.5-1.5s1.5.7 1.5 1.5v37.3c0 .9-.7 1.5-1.5 1.5z"/><path class="st2" d="M342.3 234.3c-4.3 0-7.7-3.5-7.7-7.7 0-4.3 3.5-7.7 7.7-7.7 4.3 0 7.7 3.5 7.7 7.7s-3.5 7.7-7.7 7.7zm0-12.5c-2.6 0-4.7 2.1-4.7 4.7s2.1 4.7 4.7 4.7 4.7-2.1 4.7-4.7c0-2.5-2.1-4.7-4.7-4.7z"/><path class="st0" d="M30.3 243.7c-.8 0-1.5-.7-1.5-1.5v-74.6c0-.8.7-1.5 1.5-1.5s1.5.7 1.5 1.5v74.6c0 .8-.7 1.5-1.5 1.5z"/><path class="st0" d="M24.4 172.5l1.1 1 5-5.4 5 5.4 1.1-1-6.1-6.6z"/><path class="st2" d="M153.8 85.6c-.6 0-1.1-.5-1.1-1.1 0-.6.5-1.1 1.1-1.1h14.4c.6 0 1.1.5 1.1 1.1 0 .6-.5 1.1-1.1 1.1h-14.4z"/><path class="st2" d="M161 92.8c-.6 0-1.1-.5-1.1-1.1V77.3c0-.6.5-1.1 1.1-1.1.6 0 1.1.5 1.1 1.1v14.4c0 .6-.5 1.1-1.1 1.1z"/><path class="st0" d="M279.2 319.5c-.6 0-1.1-.5-1.1-1.1 0-.6.5-1.1 1.1-1.1h14.4c.6 0 1.1.5 1.1 1.1 0 .6-.5 1.1-1.1 1.1h-14.4z"/><path class="st0" d="M286.4 326.7c-.6 0-1.1-.5-1.1-1.1v-14.4c0-.6.5-1.1 1.1-1.1.6 0 1.1.5 1.1 1.1v14.4c.1.6-.4 1.1-1.1 1.1z"/><path class="st2" d="M120.3 128.1c-.8 0-1.5-.7-1.5-1.5V93l-14-10.4V59.5c0-.8.7-1.5 1.5-1.5s1.5.7 1.5 1.5v21.7l14 10.4v35c0 .8-.7 1.5-1.5 1.5z"/><path class="st2" d="M99.5 65.1l1.3 1.2 6-6.4 6 6.4 1.4-1.2-7.4-7.9z"/><path class="st0" d="M94 149.7l-9.9-9.9 9.9-9.9 9.9 9.9-9.9 9.9zm-6.8-9.9l6.7 6.7 6.7-6.7-6.7-6.7-6.7 6.7zm92.9 136v-58h-119l-.1 37.3h-3l.1-38.8c0-.8.7-1.5 1.5-1.5h122c.8 0 1.5.7 1.5 1.5v59.5h-3z"/><path class="st1" d="M83.6 252.3c0 2.3-1.9 4.2-4.2 4.2s-4.2-1.9-4.2-4.2c0-2.3 1.9-4.2 4.2-4.2s4.2 1.9 4.2 4.2zm78.3 1.1c0 2.3-1.9 4.2-4.2 4.2-2.3 0-4.2-1.9-4.2-4.2 0-2.3 1.9-4.2 4.2-4.2 2.3 0 4.2 1.9 4.2 4.2z"/><path class="st0" d="M60.6 238.9l-.2-2.9c.8-.1 18.9-2.2 18.9-20.2h3c-.1 21-21.5 23.1-21.7 23.1zM88.8 297h80v3h-80z"/><path transform="rotate(-89.875 136.565 285.66)" class="st0" d="M135.1 251.6h3v68.2h-3z"/><path class="st0" d="M88.8 309.8h74v3h-74zm-5.4 14.1h67.9v3H83.4z"/><path transform="rotate(-89.289 92.721 285.664) scale(.99998)" class="st0" d="M91.2 282h3v7.4h-3z"/><path class="st0" d="M59 284.8h3v42h-3zm122.7-42.9c-.2 0-21.7-2-21.7-23h3c0 18 18.1 20.1 18.9 20.2l-.2 2.8z"/><path fill="#c9c6dd" d="M222.4 36.1l59.7-7.1.9 64.4-19.2-16.1-41.8 45.9-51.5-1.5 65.6-72z"/><linearGradient id="SVGID_1_" gradientUnits="userSpaceOnUse" x1="185.234" y1="362.766" x2="185.234" y2="138.377"><stop offset="0" stop-color="#c9c6dd" stop-opacity="0"/><stop offset="1" stop-color="#c9c6dd"/></linearGradient><path d="M156.1 138.4c0 .5-.2 41.7-.2 41.7L264 268.7s-65.1 92.5-68.1 94-33.5-28-33.5-28l40.3-55-19.3-17.3-1.3-46.7-62.7.7-13.1-16.1 49.8-61.9z" fill="url(#SVGID_1_)"/><path class="st5" d="M186.3 107.2c-.4 0-.7-.1-1-.4-.6-.5-.7-1.5-.1-2.1l48.4-54.6L217.9 36c-.4-.4-.6-1-.4-1.6.2-.6.7-1 1.3-1l63.8-6.4c.4 0 .8.1 1.2.4.3.3.5.7.5 1.1l-.4 63.5c0 .6-.4 1.1-.9 1.4-.5.2-1.2.1-1.6-.3l-17.6-15.8-23.2 26.6c-.5.6-1.5.7-2.1.1-.6-.5-.7-1.5-.1-2.1l24.2-27.7c.3-.3.6-.5 1-.5s.8.1 1.1.4l16.2 14.6.3-58.5-58.8 5.9L236.7 49c.6.5.7 1.5.1 2.1l-49.4 55.7c-.3.3-.7.4-1.1.4zm14.6 252.7l-2.5-1.7 62.4-90-102.7-84.4 1.9-2.3 103.8 85.3c.6.5.7 1.4.3 2l-63.2 91.1zm-88.7-151.7c-.3 0-.6-.1-.9-.3l-8-6.2c-.3-.2-.5-.6-.6-1 0-.4.1-.8.3-1.1l26.8-31.7c.5-.6 1.5-.7 2.1-.2.6.5.7 1.5.2 2.1l-25.8 30.5 6.8 5.3c.7.5.8 1.4.3 2.1-.3.3-.7.5-1.2.5z"/><path class="st5" d="M169.7 326.9c-.3 0-.6-.1-.9-.3-.7-.5-.8-1.4-.4-2.1l33.1-46.6-6.8-6.2c-.6-.6-.7-1.5-.1-2.1.6-.6 1.5-.7 2.1-.1l7.8 7c.6.5.7 1.4.2 2l-33.8 47.7c-.3.5-.8.7-1.2.7z"/><path class="st0" d="M212.8 202.8h61v3h-61zm9 11h52v3h-52zm-27-23h66v3h-66zm83.4-1v-64.4l-119 .1-.1 37.3h-3l.1-38.7c0-.8.5-1.5 1.5-1.5h121.9c.8 0 1.5.5 1.5 1.3v65.9h-2.9z"/><path class="st6" d="M210.5 159.1c-2 0-3.6-.6-4.8-1.7-2-1.9-2.2-5-2.2-7.9v-.7c.3-5.6 2.9-8.2 8.4-8.2h16.5c.8 0 1.5.7 1.5 1.5s-.7 1.5-1.5 1.5h-16.5c-3.3 0-5.2.8-5.4 5.3v.6c0 3.1.4 4.8 1.3 5.7.6.6 1.6.9 3 .8h5.6c.8 0 1.5.7 1.5 1.5s-.7 1.5-1.5 1.5h-5.5c-.1.1-.2.1-.4.1z"/><path class="st6" d="M222.9 174.6h-16.8c-.8 0-1.5-.7-1.5-1.5s.7-1.5 1.5-1.5h16.8c3.4 0 5.4-1.8 5.4-4.9v-2.8c0-3.1-2-4.9-5.4-4.9h-6.5c-.8 0-1.5-.7-1.5-1.5s.7-1.5 1.5-1.5h6.5c5.1 0 8.4 3.1 8.4 7.8v2.8c0 4.8-3.4 8-8.4 8z"/><path class="st6" d="M216.3 173.4h3v7h-3zm0-39h3v8h-3z"/><path class="st0" d="M145.8 131h3v22.1h-3z"/><path class="st1" d="M181.7 160.1c0 2.3-1.9 4.2-4.2 4.2-2.3 0-4.2-1.9-4.2-4.2 0-2.3 1.9-4.2 4.2-4.2 2.3 0 4.2 1.9 4.2 4.2zm78.3 1.1c0 2.3-1.9 4.2-4.2 4.2-2.3 0-4.2-1.9-4.2-4.2 0-2.3 1.9-4.2 4.2-4.2 2.3 0 4.2 1.9 4.2 4.2z"/><path class="st0" d="M158.7 146.3l-.2-3.1c.8-.1 18.9-1.4 18.9-20.4h3c0 22-21.5 23.5-21.7 23.5zm121.2 3c-.2 0-21.7-1.4-21.7-23.4h3c0 19 18.1 20.3 18.9 20.4l-.2 3z"/><path class="st1" d="M132.2 250.6c2.1-1.9 3.5-4.7 3.5-7.7 0-4.3-2.7-8-6.4-9.6V230c0-1.4-1.2-2.6-2.6-2.6-1.4 0-2.6 1.2-2.6 2.6v2.6h-5.2V230c0-1.4-1.2-2.6-2.6-2.6-1.4 0-2.6 1.2-2.6 2.6v2.6h-5.2c-1.4 0-2.6 1.2-2.6 2.6s1.2 2.6 2.6 2.6h2.6v25.8h-2.6c-1.4 0-2.6 1.2-2.6 2.6s1.2 2.6 2.6 2.6h5.2v2.6c0 1.4 1.2 2.6 2.6 2.6 1.4 0 2.6-1.2 2.6-2.6v-2.6h5.2v2.6c0 1.4 1.2 2.6 2.6 2.6 1.4 0 2.6-1.2 2.6-2.6v-3.3c3.8-1.5 6.4-5.2 6.4-9.6 0-3.3-1.4-6-3.5-7.9zm-15.9-12.9h9c2.8 0 5.2 2.3 5.2 5.2 0 2.8-2.3 5.2-5.2 5.2h-9v-10.4zm9.1 25.8h-9v-10.3h9c2.8 0 5.2 2.3 5.2 5.2-.1 2.7-2.4 5.1-5.2 5.1z"/></svg>