<svg version="1.1" id="Слой_1" xmlns="http://www.w3.org/2000/svg" x="0" y="0" viewBox="0 0 300.2 288.1" xml:space="preserve"><style>.st2{opacity:.6}.st3,.st4{fill:#fff}.st4{opacity:.6}.st5{fill:#e14135}</style><linearGradient id="SVGID_1_" gradientUnits="userSpaceOnUse" x1="166.191" y1="191.515" x2="166.191" y2="12.239"><stop offset=".274" stop-color="#221837" stop-opacity="0"/><stop offset="1" stop-color="#221837" stop-opacity=".6"/></linearGradient><path d="M234.9 94l-67.4-81.2c-.7-.8-2-.8-2.7 0L97.4 94c-.4.5-.5 1-.2 1.6.3.6.9.8 1.6.8h34.6v94.7l64 .3v-95h36.2c.7 0 1.3-.2 1.6-.8.3-.6.2-1.1-.3-1.6z" opacity=".2" fill="url(#SVGID_1_)"/><linearGradient id="SVGID_2_" gradientUnits="userSpaceOnUse" x1="211.479" y1="288.084" x2="211.479" y2="143.239"><stop offset=".274" stop-color="#221837" stop-opacity="0"/><stop offset="1" stop-color="#221837" stop-opacity=".6"/></linearGradient><path d="M252.7 192.2l-40.4-48.6c-.4-.5-1.2-.5-1.6 0l-40.4 48.6c-.3.3-.3 1-.1 1.4.2.4.5.8.9.8h20.3v93.4l39 .2v-93.6h21.5c.4 0 .8-.5.9-.8.2-.4.1-1-.1-1.4z" opacity=".2" fill="url(#SVGID_2_)"/><g class="st2"><path class="st3" d="M278.7 236.8c-1 0-1.7-.8-1.7-1.7v-59.7l13.1-10.3v-41.7c0-1 .8-1.7 1.7-1.7 1 0 1.7.8 1.7 1.7v43.4l-13.1 10.3v58c0 .9-.8 1.7-1.7 1.7z"/><path class="st3" d="M283.1 129.5l1.5 1.5 7-7.6 7.1 7.6 1.5-1.5-8.6-9.2z"/></g><g class="st2"><path class="st3" d="M7.2 219.4c-1 0-1.7-.8-1.7-1.7v-25.3c0-1 .8-1.7 1.7-1.7 1 0 1.7.8 1.7 1.7v25.3c.1.9-.7 1.7-1.7 1.7z"/><path class="st3" d="M0 197.2l1.3 1.2 5.8-6.3 5.9 6.3 1.3-1.2-7.2-7.7z"/></g><g class="st2"><path class="st3" d="M64.8 156.5c-1 0-1.7-.8-1.7-1.7v-34l-12.2-10.5V86.7c0-1 .8-1.7 1.7-1.7 1 0 1.7.8 1.7 1.7v22.1l12.2 10.5v35.6c.1.8-.7 1.6-1.7 1.6z"/><path class="st3" d="M44.1 92.9l1.6 1.4 7-7.6 7 7.6 1.6-1.4-8.6-9.2z"/></g><path class="st4" d="M135.5 172.2c-1 0-1.7-.8-1.7-1.7V97.2H99.1c-.7 0-1.3-.4-1.6-1-.3-.6-.2-1.3.2-1.9l67.4-81.2c.7-.8 2-.8 2.7 0l67.4 81.2c.4.5.5 1.2.2 1.9-.3.6-.9 1-1.6 1h-36.5v43.6c0 1-.8 1.7-1.7 1.7-1 0-1.7-.8-1.7-1.7V95.4c0-1 .8-1.7 1.7-1.7h34.5L166.5 17l-63.7 76.7h32.7c1 0 1.7.8 1.7 1.7v75.1c.1 1-.7 1.7-1.7 1.7zm55.9 108.5c-1 0-1.7-.8-1.7-1.7v-84.9H169c-.7 0-1.3-.4-1.6-1-.3-.6-.2-1.4.3-1.9l43.6-47.8c.3-.4.8-.6 1.3-.6s1 .2 1.3.6l42.6 47.8c.5.5.6 1.2.3 1.9-.3.6-.9 1-1.6 1h-23.6v45.4c0 1-.8 1.7-1.7 1.7-1 0-1.7-.8-1.7-1.7v-47.1c0-1 .8-1.7 1.7-1.7h21.4l-38.7-43.5-39.6 43.5h18.5c1 0 1.7.8 1.7 1.7V279c-.1.9-.9 1.7-1.8 1.7z"/><path class="st5" d="M83.9 226.5c0 2.4-1.9 4.3-4.3 4.3s-4.3-1.9-4.3-4.3 1.9-4.3 4.3-4.3 4.3 1.9 4.3 4.3z"/><circle class="st5" cx="157.6" cy="227.5" r="4.3"/><path class="st4" d="M57.8 268.4h87.3v3.5H57.8zm18.4-10.6h86.4v3.5H76.2z"/><path transform="rotate(-89.94 105.24 280.65)" class="st4" d="M103.5 234.9h3.5v91.5h-3.5z"/><path class="st4" d="M46.5 206.3H50v62.8h-3.5z"/><g class="st2"><path class="st3" d="M218.4 37.8c-1 0-1.7-.8-1.7-1.7V2.9c0-1 .8-1.7 1.7-1.7 1 0 1.7.8 1.7 1.7v33.2c.1.9-.7 1.7-1.7 1.7z"/><path class="st3" d="M211.3 7.7l1.3 1.2 5.8-6.3 5.9 6.3 1.3-1.2-7.2-7.7z"/></g><path class="st4" d="M262.1 266.5c-1 0-1.7-.8-1.7-1.7v-37.5c0-1 .8-1.7 1.7-1.7 1 0 1.7.8 1.7 1.7v37.5c0 .9-.8 1.7-1.7 1.7zm1.8-190.1c-7.1 0-12.9-5.8-12.9-12.9 0-7.1 5.8-12.9 12.9-12.9 7.1 0 12.9 5.8 12.9 12.9 0 7.1-5.8 12.9-12.9 12.9zm0-22.3c-5.2 0-9.4 4.2-9.4 9.4s4.2 9.4 9.4 9.4 9.4-4.2 9.4-9.4-4.2-9.4-9.4-9.4z"/><g class="st2"><path class="st3" d="M87.2 153c-.7 0-1.3-.5-1.3-1.2s.6-1.3 1.3-1.3h14.5c.7 0 1.3.6 1.3 1.4 0 .7-.6 1.3-1.3 1.3l-14.5-.2z"/><path class="st3" d="M94.5 160c-.7 0-1.3-.4-1.3-1.1v-14.3c0-.7.6-1.1 1.3-1.1.7 0 1.3.5 1.3 1.2V159c0 .7-.6 1-1.3 1z"/></g><path class="st4" d="M29.4 166.2L19.2 156l10.2-10.2L39.6 156l-10.2 10.2zm-6.6-10.3l6.5 6.5 6.5-6.5-6.5-6.5-6.5 6.5zm36.9 58.8l-.3-3.4.1 1.8-.1-1.9c.8-.1 18.9-1.2 18.9-20.4h3.5c0 21.8-21.9 23.9-22.1 23.9zm20 43.3c-.1-.6-1.8-15.2-20.1-15.2v-3.5c21.8 0 23.5 18.2 23.6 18.4l-3.5.3 1.7-.2-1.7.2z"/><path class="st4" d="M67.9 261h-9.3c-1 0-1.7-.8-1.7-1.7l.1-69.1c0-1 .7-1.7 1.6-1.7h99.7v3.5H60.4v65.6H68l-.1 3.4z"/><path class="st5" d="M130 226.5c2.1-1.9 3.5-4.7 3.5-7.7 0-4.3-2.7-8-6.4-9.6v-3.3c0-1.4-1.2-2.6-2.6-2.6s-2.6 1.2-2.6 2.6v2.6h-5.2v-2.6c0-1.4-1.2-2.6-2.6-2.6s-2.6 1.2-2.6 2.6v2.6h-5.2c-1.4 0-2.6 1.2-2.6 2.6 0 1.4 1.2 2.6 2.6 2.6h2.6v25.8h-2.6c-1.4 0-2.6 1.2-2.6 2.6s1.2 2.6 2.6 2.6h5.2v2.6c0 1.4 1.2 2.6 2.6 2.6s2.6-1.2 2.6-2.6v-2.6h5.2v2.6c0 1.4 1.2 2.6 2.6 2.6s2.6-1.2 2.6-2.6V244c3.8-1.5 6.4-5.2 6.4-9.6 0-3.3-1.4-6.1-3.5-7.9zm-15.9-12.9h9c2.8 0 5.2 2.3 5.2 5.2 0 2.8-2.3 5.2-5.2 5.2h-9v-10.4zm9 25.7h-9V229h9c2.8 0 5.2 2.3 5.2 5.2 0 2.8-2.3 5.1-5.2 5.1z"/></svg>