<svg version="1.1" id="Слой_1" xmlns="http://www.w3.org/2000/svg" x="0" y="0" width="321.7" height="289.5" xml:space="preserve"><style>.st2{fill:#e14135}.st3{fill:#58506c}.st4{fill:#a8a3bc}</style><path d="M131.1 232.4H42.4c-4.7 0-8.5-3.8-8.5-8.5V89c0-4.7 3.8-8.5 8.5-8.5h88.7c4.7 0 8.5 3.8 8.5 8.5v134.9c0 4.7-3.8 8.5-8.5 8.5z" fill="#c9c6dd"/><path fill="#fff" d="M48.2 96.9h77v26h-77z"/><path class="st2" d="M284.5 146.9c-1 0-1.7-.8-1.7-1.7v-44.5c0-1 .8-1.7 1.7-1.7 1 0 1.7.8 1.7 1.7v44.5c0 .9-.8 1.7-1.7 1.7z"/><path class="st2" d="M277.3 105l1.3 1.2 5.8-6.3 5.9 6.3 1.3-1.2-7.2-7.6z"/><path class="st3" d="M63.6 265.6h-.5c-4.7-.3-8.3-4.3-8-9 .3-4.7 4.3-8.3 9-8 2.3.1 4.4 1.2 5.9 2.9s2.3 3.9 2.1 6.2c-.2 4.4-4 7.9-8.5 7.9zm0-13.5c-2.7 0-4.9 2.1-5 4.7-.2 2.8 2 5.2 4.7 5.3 2.8.2 5.2-2 5.3-4.7.1-1.3-.4-2.6-1.3-3.6s-2.1-1.6-3.5-1.7h-.2zM233.5 38.6c-.7 0-1.3-.6-1.3-1.3 0-.7.6-1.3 1.3-1.3h16.6c.7 0 1.3.6 1.3 1.3 0 .7-.6 1.3-1.3 1.3h-16.6z"/><path class="st3" d="M241.8 46.5c-.7 0-1.3-.4-1.3-1.1V28.7c0-.7.6-1.4 1.3-1.4.7 0 1.3.8 1.3 1.5v16.5c0 .7-.6 1.2-1.3 1.2z"/><path class="st2" d="M299 190l-11.4-11.4 11.4-11.4 11.4 11.4L299 190zm-7.7-11.5l7.7 7.7 7.7-7.7-7.7-7.7-7.7 7.7z"/><path class="st3" d="M253.9 185.3h-3.5v-97l-24.8-29.5H113.8c-4.7 0-8.3 3.5-8.3 8v8.6H102v-8.6c0-6.3 5.3-11.5 11.8-11.5h113.4L253.9 87v98.3zm-44.5 72.4h-95.6c-6.4 0-11.8-5.6-11.8-12.3v-7.8h3.5v7.8c0 4.7 3.9 8.8 8.3 8.8h95.6v3.5z"/><path class="st3" d="M243.4 90.1h-21.8V67.4c0-1 .8-1.7 1.7-1.7 1 0 1.7.8 1.7 1.7v19.2h18.3c1 0 1.7.8 1.7 1.7.2 1-.6 1.8-1.6 1.8zM131.1 232.4H42.4c-4.7 0-8.5-3.8-8.5-8.5V89c0-4.7 3.8-8.5 8.5-8.5h88.7c4.7 0 8.5 3.8 8.5 8.5v134.9c0 4.7-3.8 8.5-8.5 8.5zM42.4 84c-2.7 0-5 2.2-5 5v134.9c0 2.7 2.2 5 5 5h88.7c2.7 0 5-2.2 5-5V89c0-2.7-2.2-5-5-5H42.4z"/><path class="st4" d="M254.3 278c-19.7 0-35.8-16.1-35.8-35.8 0-19.7 16.1-35.8 35.8-35.8 19.7 0 35.8 16.1 35.8 35.8 0 19.8-16.1 35.8-35.8 35.8zm0-68.1c-17.8 0-32.3 14.5-32.3 32.3 0 17.8 14.5 32.3 32.3 32.3 17.8 0 32.3-14.5 32.3-32.3 0-17.8-14.5-32.3-32.3-32.3z"/><path class="st4" d="M252.2 251.9l-15.8-12.8c-.7-.6-.9-1.7-.3-2.5.6-.8 1.7-.9 2.5-.3l13.1 10.6 17.6-22.3c.6-.8 1.7-.9 2.5-.3.8.6.9 1.7.3 2.5l-19.9 25.1zm12.2-47.4h-20.9c-1 0-1.7-.8-1.7-1.7V194c0-1 .8-1.7 1.7-1.7h20.9c1 0 1.7.8 1.7 1.7v8.7c0 1-.8 1.8-1.7 1.8zm-19.2-3.5h17.5v-5.2h-17.5v5.2z"/><path class="st2" d="M168.6 153.2c-8.3 0-15.1-6.8-15.1-15.1s6.8-15.1 15.1-15.1 15.1 6.8 15.1 15.1-6.8 15.1-15.1 15.1zm0-26.7c-6.4 0-11.6 5.2-11.6 11.6 0 6.4 5.2 11.6 11.6 11.6 6.4 0 11.6-5.2 11.6-11.6 0-6.4-5.2-11.6-11.6-11.6zm40.4 67.1c-8.3 0-15.1-6.8-15.1-15.1s6.8-15.1 15.1-15.1 15.1 6.8 15.1 15.1c-.1 8.3-6.8 15.1-15.1 15.1zm0-26.7c-6.4 0-11.6 5.2-11.6 11.6 0 6.4 5.2 11.6 11.6 11.6 6.4 0 11.6-5.2 11.6-11.6 0-6.4-5.2-11.6-11.6-11.6z"/><path transform="rotate(-46.906 190.169 157.858)" class="st2" d="M151.2 156.1h78v3.5h-78z"/><path class="st2" d="M157.9 94.5c-1 0-1.7-.8-1.7-1.7V47.6l-14-11v-25c0-1 .8-1.7 1.7-1.7 1 0 1.7.8 1.7 1.7V35l14 11v46.8c0 .9-.7 1.7-1.7 1.7z"/><path class="st2" d="M135.3 17.8l1.5 1.5 7.1-7.6 7 7.6 1.5-1.5-8.5-9.2z"/><path class="st3" d="M98.5 118.1c-1 0-1.7-.8-1.7-1.7v-13.1c0-1 .8-1.7 1.7-1.7 1 0 1.7.8 1.7 1.7v13.1c.1.9-.7 1.7-1.7 1.7zm-13.9 0c-1 0-1.7-.8-1.7-1.7v-13.1c0-1 .8-1.7 1.7-1.7 1 0 1.7.8 1.7 1.7v13.1c0 .9-.8 1.7-1.7 1.7zm27.9 0c-1 0-1.7-.8-1.7-1.7v-13.1c0-1 .8-1.7 1.7-1.7 1 0 1.7.8 1.7 1.7v13.1c0 .9-.7 1.7-1.7 1.7zM15.6 252.5c-1 0-1.7-.8-1.7-1.7v-48c0-1 .8-1.7 1.7-1.7s1.7.8 1.7 1.7v48c.1.9-.7 1.7-1.7 1.7z"/><path class="st3" d="M8.5 207.6l1.3 1.1 5.8-6.3 5.9 6.3 1.3-1.1-7.2-7.7zm117.1 10.8H47v-81.2h78.6v81.2zm-75.1-3.5h71.6v-74.2H50.5v74.2z"/><path class="st3" d="M102 218.4H70.6v-81.2H102v81.2zm-27.9-3.5h24.4v-74.2H74.1v74.2z"/><path class="st3" d="M123 164.3H48.8c-1 0-1.7-.8-1.7-1.7 0-1 .8-1.7 1.7-1.7H123c1 0 1.7.8 1.7 1.7 0 .9-.8 1.7-1.7 1.7zm-23.6 27.1H48.8c-1 0-1.7-.8-1.7-1.7 0-1 .8-1.7 1.7-1.7h50.6c1 0 1.7.8 1.7 1.7.1.9-.7 1.7-1.7 1.7zm27.1-65.5H47V93.6h79.4v32.3zm-76-3.5H123V97.1H50.5v25.3z"/><path class="st3" d="M61.9 108.5c-1 0-1.7-.8-1.7-1.7v-48c0-1 .8-1.7 1.7-1.7 1 0 1.7.8 1.7 1.7v48c0 .9-.8 1.7-1.7 1.7z"/><path class="st3" d="M54.8 63.5l1.3 1.2 5.8-6.3 5.9 6.3 1.3-1.2-7.2-7.6z"/></svg>