<svg version="1.1" id="Слой_1" xmlns="http://www.w3.org/2000/svg" x="0" y="0" width="346.5" height="324.4" xml:space="preserve"><style>.st0{fill:#e14135}.st1{opacity:.6}.st1,.st2{fill:#fff}.st3{opacity:.6}</style><path class="st0" d="M167.6 152.5c0-20.3-16.5-36.9-36.9-36.9-20.3 0-36.9 16.5-36.9 36.9 0 11.9 5.6 22.4 14.3 29.2 1.4-.4 2.9-.6 4.3-.8-9.3-6-15.5-16.5-15.5-28.4 0-18.6 15.1-33.7 33.7-33.7s33.7 15.1 33.7 33.7c0 14.3-8.9 26.5-21.5 31.4 1.9.2 3.9.4 5.9.7 11.3-6.3 18.9-18.3 18.9-32.1z"/><path class="st1" d="M153.4 90.5c.9 0 1.6.7 1.6 1.6v4.4c6.6 5.1 23 7.8 38.6 7.8 20.2 0 41.6-4.5 41.6-12.8s-21.4-12.8-41.6-12.8c-20.2 0-41.6 4.5-41.6 12.8v.2c.1-.8.7-1.2 1.4-1.2zm40.1-8.9c23.9 0 38.5 5.7 38.5 9.7 0 4.1-14.6 9.7-38.5 9.7S155 95.4 155 91.3c0-4 14.7-9.7 38.5-9.7z"/><path class="st1" d="M153.4 102.1c.9 0 1.6-.8 1.6-1.6V92c0-.9-.7-1.6-1.6-1.6-.7 0-1.3.4-1.5 1.1-.1.2-.1.3-.1.5v8.6c.1.9.8 1.5 1.6 1.5zm80.8 7.3c-.4-.8-1.3-1.1-2.1-.8-7.9 3.7-22.2 6-36.4 6-.9 0-1.6.7-1.6 1.6 0 .9.7 1.6 1.6 1.6 14.6 0 29.4-2.5 37.7-6.3.8-.4 1.2-1.4.8-2.1zm-.3 14.3c-.4-.8-1.3-1.1-2.1-.8-7.3 3.4-21.1 5.5-36.1 5.5-.9 0-1.6.7-1.6 1.6 0 .9.7 1.6 1.6 1.6 15.3 0 29.7-2.2 37.4-5.8.8-.4 1.2-1.3.8-2.1zm0 27.3c-.4-.8-1.3-1.1-2.1-.8-7.3 3.4-21.2 5.5-36.1 5.5-.9 0-1.6.7-1.6 1.6 0 .9.7 1.6 1.6 1.6 15.3 0 29.6-2.2 37.4-5.8.8-.4 1.2-1.3.8-2.1zm0-13.4c-.4-.8-1.3-1.1-2.1-.8-5 2.3-13.1 4.1-22.7 4.9-.9.1-1.5.8-1.4 1.7.1.8.8 1.4 1.6 1.4h.1c10-.9 18.4-2.7 23.7-5.2.8-.3 1.2-1.3.8-2zm-3.1 38.9c-4.6 2.1-19.7 5.7-32.3 5-.8-.1-1.6.6-1.7 1.5 0 .9.6 1.6 1.5 1.7 1.2.1 2.4.1 3.7.1 12.4 0 25.7-3.3 30.2-5.3.8-.4 1.1-1.3.8-2.1-.5-.9-1.5-1.2-2.2-.9zm2.1-12.1c-.4-.8-1.3-1.1-2.1-.8-5 2.3-13.1 4.1-22.7 4.9-.9.1-1.5.8-1.4 1.7.1.8.8 1.4 1.6 1.4h.1c10-.9 18.4-2.7 23.7-5.2.8-.3 1.2-1.2.8-2z"/><path class="st0" d="M84.2 152.3c0-25.6 20.8-46.4 46.4-46.4 25.6 0 46.4 20.8 46.4 46.4 0 13.3-5.7 25.4-14.7 33.9 1.4.2 2.7.3 4 .4 8.6-8.9 13.8-21 13.8-34.3 0-27.3-22.2-49.6-49.6-49.6-27.3 0-49.6 22.2-49.6 49.6 0 13.7 5.6 26 14.5 35 .9-.6 1.9-1.1 2.8-1.6-8.5-8.5-14-20.3-14-33.4z"/><path class="st1" d="M224.4 295.1l-11-11 11-10.9 11 10.9-11 11zm-7.6-10.9l7.6 7.6 7.6-7.6-7.6-7.6-7.6 7.6z"/><path transform="rotate(-44.992 325.863 183.323)" class="st2" d="M317.8 175.3h16v16h-16z"/><path class="st1" d="M325.8 196.2c-.4 0-.8-.2-1.1-.5l-11.3-11.3c-.6-.6-.6-1.6 0-2.2l11.3-11.3c.6-.6 1.6-.6 2.2 0l11.3 11.3c.6.6.6 1.6 0 2.2L327 195.8c-.3.3-.7.4-1.2.4zm-9.1-12.9l9.1 9.1 9.1-9.1-9.1-9.1-9.1 9.1zm-219 101.5c-.5 0-.9-.2-1.2-.6-.5-.7-.4-1.7.2-2.2l19.3-15.7c.2-.2.5-.3.7-.3l108.4-19.4c3-3.8 24.1-30.7 41.4-56.3 1.2-5.2-1.3-10.5-6.3-13-5.4-2.7-14.1-2.1-22.1 8-10.3 12.9-18.1 23.8-18.2 23.9-.3.4-.6.6-1.1.6l-20.1 2.7c-.9.1-1.6-.5-1.8-1.3-.1-.9.5-1.6 1.3-1.8l19.4-2.6c1.7-2.4 8.9-12.2 17.9-23.5 9.2-11.5 19.4-12.1 26-8.8 6.4 3.2 9.6 10.1 7.9 16.8 0 .2-.1.3-.2.5-18.7 27.7-41.9 56.9-42.1 57.2-.2.3-.6.5-.9.6L117.7 269l-19 15.5c-.3.2-.6.3-1 .3zm-48.5-36.1c1.6 1.9 1.4 4.7-.5 6.3-1.9 1.6-4.7 1.4-6.3-.5-1.6-1.9-1.4-4.7.5-6.3 1.8-1.6 4.7-1.3 6.3.5z"/><path class="st1" d="M62.3 231.1c-.4 0-.9-.2-1.2-.5-.6-.7-.5-1.6.2-2.2l14.1-12c1.2-2.2 8.6-15.9 16.1-21 6.2-4.3 16.7-9.1 31.5-7.8 2.3.2 5.7 1 8.9 1.8 2.7.7 5.2 1.3 6.5 1.4 9.8.5 19.4.8 27.8 1 9.8.3 17.6.5 21 1 2.9 0 5.7 1.6 7.9 4.3 2.5 3.1 3.8 7.4 3.2 10.2-1 4.6-2.7 12.3-16.5 12.5-18 .3-38.2 1.3-38.4 1.3-.9.1-1.6-.6-1.6-1.5s.6-1.6 1.5-1.6c.2 0 20.5-1.1 38.5-1.3 11.3-.2 12.5-5.4 13.5-10 .4-1.7-.5-5-2.6-7.6-1.1-1.4-3-3.1-5.6-3.1h-.2c-3.1-.4-10.9-.7-20.8-.9-8.5-.2-18-.5-28-1-1.6-.1-4.1-.8-7-1.5-3-.7-6.3-1.6-8.4-1.8-13.8-1.2-23.6 3.3-29.4 7.2-7.4 5.1-15.2 20-15.2 20.2-.1.2-.2.3-.4.5l-14.3 12.2c-.4.1-.7.2-1.1.2zm-30.7-41.9c-5.7 0-10.4-4.7-10.4-10.4 0-5.8 4.7-10.4 10.4-10.4 5.8 0 10.4 4.7 10.4 10.4s-4.7 10.4-10.4 10.4zm0-17.7c-4 0-7.3 3.3-7.3 7.3s3.3 7.3 7.3 7.3 7.3-3.3 7.3-7.3-3.3-7.3-7.3-7.3z"/><g class="st3"><path class="st2" d="M85.9 98.7c-.9 0-1.6-.7-1.6-1.6V55.7c0-.9.7-1.6 1.6-1.6.9 0 1.6.7 1.6 1.6v41.5c-.1.8-.8 1.5-1.6 1.5z"/><path class="st2" d="M79.1 61.2l1.1 1.1 5.3-5.7 5.2 5.7 1.2-1.1-6.4-6.9z"/></g><g class="st3"><path class="st2" d="M302 137.1c-.9 0-1.6-.7-1.6-1.6v-18c0-.9.7-1.6 1.6-1.6.9 0 1.6.7 1.6 1.6v18c0 .9-.8 1.6-1.6 1.6z"/><path class="st2" d="M295.7 122.6l1.1 1.1 5.3-5.7 5.2 5.7 1.2-1.1-6.4-6.9z"/></g><g class="st3"><path class="st2" d="M278 255.4c-.6 0-1.2-.5-1.2-1.2 0-.6.5-1.2 1.2-1.2h17.8c.6 0 1.2.5 1.2 1.2s-.5 1.2-1.2 1.2H278z"/><path class="st2" d="M287 264.3c-.7 0-1.2-.5-1.2-1.2v-17.8c0-.6.5-1.2 1.2-1.2.6 0 1.2.5 1.2 1.2v17.8c-.1.7-.6 1.2-1.2 1.2z"/></g><g class="st3"><path class="st2" d="M129.7 44.8c-.6 0-1.2-.5-1.2-1.2 0-.6.5-1.2 1.2-1.2h17.8c.6 0 1.2.5 1.2 1.2 0 .6-.5 1.2-1.2 1.2h-17.8z"/><path class="st2" d="M138.6 53.7c-.6 0-1.2-.5-1.2-1.2V34.7c0-.6.5-1.2 1.2-1.2.6 0 1.2.5 1.2 1.2v17.8c0 .7-.5 1.2-1.2 1.2z"/></g><g class="st3"><path class="st2" d="M64.9 182.4c-.9 0-1.6-.7-1.6-1.6V145l-13.6-11.2V97.9c0-.9.7-1.6 1.6-1.6.9 0 1.6.7 1.6 1.6v34.3l13.6 11.2v37.4c0 .9-.7 1.6-1.6 1.6z"/><path class="st2" d="M43.1 104.1l1.4 1.3 6.3-6.8 6.3 6.8 1.4-1.3-7.7-8.2z"/></g><g class="st3"><path class="st2" d="M266.2 114.8c-.9 0-1.6-.7-1.6-1.6V69.5L251 56.6V21.7c0-.9.7-1.6 1.6-1.6.9 0 1.6.7 1.6 1.6v33.5l13.6 12.9v45.1c0 .9-.7 1.6-1.6 1.6z"/><path class="st2" d="M245.3 27.7l1.3 1.3 6.3-6.8 6.3 6.8 1.4-1.3-7.7-8.3z"/></g><path class="st1" d="M68.3 318.6l-2.1-2.4 28.5-25c2.1-1.8 2.3-4.9.5-7l-43.1-50c-1.8-2.1-4.9-2.3-7-.5l-17.6 16.7 44.1 49.7-2.3 2.1-46.1-52 19.9-18.8c3.4-3 8.6-2.6 11.5.8l43.1 50c2.9 3.4 2.5 8.5-.9 11.4l-28.5 25z"/><path transform="rotate(-41.481 17.623 260.257)" class="st1" d="M6.6 258.7h22v3.1h-22z"/><linearGradient id="SVGID_1_" gradientUnits="userSpaceOnUse" x1="152.728" y1="141.701" x2="234.567" y2="141.701"><stop offset=".274" stop-color="#221837" stop-opacity="0"/><stop offset="1" stop-color="#221837" stop-opacity=".6"/></linearGradient><path d="M186.1 150.9c0 14.7-5.9 26.8-15.6 36.4 2.7 0 6.6.4 9.3.7 4.3.5 11.1.9 14.9 3.3 5.5 3.4 7.9 8.4 7.9 14.2 7-.8 5.7-.5 13.1-2.6 2.8-3.2 6.5-8.3 9.3-11.5 2.8-3.4 9.6-10.6 9.7-10.7V91.8s1.8-13.3-34.7-13.9c-35.9-.5-47.1 13.4-47.1 13.4v10.5c19.4 7.8 33.2 26.8 33.2 49.1z" opacity=".2" fill="url(#SVGID_1_)"/><path class="st0" d="M142 153.6c2.1-1.9 3.5-4.7 3.5-7.7 0-4.3-2.7-8-6.4-9.6V133c0-1.4-1.2-2.6-2.6-2.6-1.4 0-2.6 1.2-2.6 2.6v2.6h-5.2V133c0-1.4-1.2-2.6-2.6-2.6s-2.6 1.2-2.6 2.6v2.6h-5.2c-1.4 0-2.6 1.2-2.6 2.6 0 1.4 1.2 2.6 2.6 2.6h2.6v25.8h-2.6c-1.4 0-2.6 1.2-2.6 2.6 0 1.4 1.2 2.6 2.6 2.6h5.2v2.6c0 1.4 1.2 2.6 2.6 2.6s2.6-1.2 2.6-2.6v-2.6h5.2v2.6c0 1.4 1.2 2.6 2.6 2.6 1.4 0 2.6-1.2 2.6-2.6v-3.3c3.8-1.5 6.4-5.2 6.4-9.6 0-3.3-1.3-6-3.5-7.9zm-15.8-12.9h9c2.8 0 5.2 2.3 5.2 5.2s-2.3 5.2-5.2 5.2h-9v-10.4zm9 25.8h-9v-10.3h9c2.8 0 5.2 2.3 5.2 5.2 0 2.8-2.3 5.1-5.2 5.1z"/></svg>