<svg version="1.1" id="Layer_1" xmlns="http://www.w3.org/2000/svg" x="0" y="0" viewBox="0 0 392.6 391.3" xml:space="preserve"><style>.st0{fill:#e14135}.st1{fill:#827d95}</style><path class="st0" d="M102.8 282.2c-3.6 0-6.6-2.9-6.6-6.6 0-3.6 2.9-6.6 6.6-6.6 3.6 0 6.6 2.9 6.6 6.6 0 3.7-2.9 6.6-6.6 6.6zm-5.7 1.1h1.3l4.4 4.4 4.4-4.4h1.3c3.1 0 5.6 2.5 5.6 5.6l-6.6 4.7-7.9 1-8.1-5.7c0-3.1 2.5-5.6 5.6-5.6z"/><path class="st1" d="M25.4 257.4c-3.9 0-7.1-3.2-7.1-7.1s3.2-7.1 7.1-7.1 7.1 3.2 7.1 7.1c.1 3.9-3.1 7.1-7.1 7.1zm-6.2 1.1h1.4l4.8 4.8 4.7-4.8h1.4c3.3 0 6.1 2.7 6.1 6.1l-8.8 6.2-8.6-1-7.2-5.1c.2-3.5 2.9-6.2 6.2-6.2zM259 318.7c-6.5 0-11.7-5.2-11.7-11.7s5.2-11.7 11.7-11.7c6.4 0 11.7 5.2 11.7 11.7s-5.3 11.7-11.7 11.7zm-10.2 1.8h2.4l7.8 7.8 7.8-7.8h2.4c5.5 0 9.9 4.5 9.9 9.9l-8.6 7.3-11.6 2.9-12.5-3.1-7.6-7c.1-5.5 4.5-10 10-10zM126.3 137.8c-4.5 0-8.2-3.7-8.2-8.2s3.7-8.2 8.2-8.2 8.2 3.7 8.2 8.2c0 4.5-3.7 8.2-8.2 8.2zm-7.2 1.3h1.7l5.5 5.5 5.5-5.5h1.7c3.9 0 7 3.1 7 7l-6.5 5.6-6.7 1.3-7.5-.7-7.5-6.2c-.1-3.9 3-7 6.8-7zm-33 62.5H88l6.3 6.3 6.3-6.3h1.9c4.5 0 8.1 3.6 8.1 8.1l-9.7 7.2H86.4l-8.5-7.2c.1-4.5 3.8-8.1 8.2-8.1zm8.3-1.5c-5.2 0-9.5-4.3-9.5-9.5 0-5.3 4.2-9.5 9.5-9.5s9.5 4.3 9.5 9.5c0 5.3-4.3 9.5-9.5 9.5z"/><path class="st0" d="M46.1 106.8c5.2 0 9.5-4.3 9.5-9.5 0-5.3-4.2-9.5-9.5-9.5s-9.5 4.3-9.5 9.5c-.1 5.3 4.2 9.5 9.5 9.5zm8.2 1.5h-1.9l-6.3 6.3-6.3-6.3h-1.9c-4.5 0-8.1 3.6-8.1 8.1l7.6 6.4 7.2 2 7-1.2 5.9-2.3 5-4.9c-.1-4.5-3.7-8.1-8.2-8.1z"/><path class="st1" d="M102.8 45.4c4.1 0 7.5-3.3 7.5-7.5 0-4.1-3.3-7.5-7.5-7.5-4.1 0-7.5 3.3-7.5 7.5s3.4 7.5 7.5 7.5zm6.5 1.2h-1.5l-5 5-5-5h-1.5c-3.5 0-6.4 2.8-6.4 6.4l6.8 5.1 10.9 1 8-6.1c.1-3.5-2.7-6.4-6.3-6.4z"/><path class="st0" d="M189.7 264c4.7 0 8.6-3.8 8.6-8.6 0-4.7-3.9-8.6-8.6-8.6-4.7 0-8.6 3.8-8.6 8.6s3.8 8.6 8.6 8.6zm7.4 1.3h-1.7l-5.7 5.7-5.7-5.7h-1.8c-4 0-7.3 3.3-7.3 7.3l8.6 6.6h12.7l8.2-6.6c0-4-3.2-7.3-7.3-7.3z"/><path class="st1" d="M286.6 236.9c4.8 0 8.6-3.8 8.6-8.6 0-4.7-3.9-8.6-8.6-8.6s-8.6 3.8-8.6 8.6c.1 4.8 3.9 8.6 8.6 8.6zm7.5 1.4h-1.7l-5.7 5.7-5.7-5.7h-1.8c-4 0-7.3 3.3-7.3 7.3l8.8 6.5 12.4.3 8.3-6.8c0-4-3.3-7.3-7.3-7.3zm10.4-183.7c4.1 0 7.4-3.3 7.4-7.4s-3.3-7.4-7.4-7.4-7.4 3.3-7.4 7.4 3.3 7.4 7.4 7.4zm6.5 1.2h-1.5l-5 4.9-4.9-4.9h-1.5c-3.5 0-6.3 2.8-6.3 6.3l9.1 6.4 8.9-1.1 7.5-5.3c0-3.5-2.8-6.3-6.3-6.3zm52.6 77.2c4.1 0 7.4-3.3 7.4-7.4 0-4.1-3.3-7.4-7.4-7.4s-7.4 3.3-7.4 7.4 3.3 7.4 7.4 7.4zm6.5 1.2h-1.5l-5 4.9-4.9-4.9h-1.5c-3.5 0-6.3 2.8-6.3 6.3l9.1 6.4 8.9-1.1 7.5-5.3c0-3.5-2.8-6.3-6.3-6.3zM330.6 179c3.3 0 6-2.7 6-6s-2.7-6-6-6-6 2.7-6 6 2.7 6 6 6zm5.2.9h-1.2l-4 4-4-4h-1.2c-2.8 0-5.1 2.3-5.1 5.1l7.3 5.2 7.2-.9 6-4.3c0-2.8-2.2-5.1-5-5.1zm6.6 124.7c4 0 7.3-3.2 7.3-7.2s-3.3-7.3-7.3-7.3-7.2 3.2-7.2 7.3c-.1 4 3.1 7.2 7.2 7.2zm6.3 1.1h-1.5l-4.8 4.8-4.8-4.8h-1.5c-3.4 0-6.2 2.8-6.2 6.2l8.9 6.3 8.7-1.1 7.3-5.2c0-3.4-2.7-6.2-6.1-6.2z"/><path class="st0" d="M161.5 194c2.8 0 5.2-2.3 5.2-5.1s-2.3-5.1-5.2-5.1c-2.8 0-5.1 2.3-5.1 5.1-.1 2.8 2.2 5.1 5.1 5.1zm4.4.8h-1l-3.4 3.4-3.4-3.4h-1c-2.4 0-4.4 2-4.4 4.4l6.3 4.5 6.2-.8 5.2-3.7c-.1-2.5-2-4.4-4.5-4.4zM211.2 381c2.8 0 5.2-2.3 5.2-5.1s-2.3-5.1-5.2-5.1c-2.8 0-5.1 2.3-5.1 5.1s2.3 5.1 5.1 5.1zm4.5.8h-1l-3.4 3.4-3.4-3.4h-1c-2.4 0-4.4 2-4.4 4.4l6.3 4.5 6.2-.8 5.2-3.7c-.2-2.4-2.1-4.4-4.5-4.4z"/><path class="st1" d="M250.3 21.7c2.8 0 5.2-2.3 5.2-5.1s-2.3-5.1-5.2-5.1c-2.8 0-5.1 2.3-5.1 5.1s2.3 5.1 5.1 5.1zm4.5.8h-1l-3.4 3.4-3.4-3.4h-1c-2.4 0-4.4 2-4.4 4.4l6.3 4.5 6.2-.8 5.2-3.7c-.1-2.5-2.1-4.4-4.5-4.4zM144.1 84.6c2.8 0 5.2-2.3 5.2-5.1s-2.3-5.1-5.2-5.1c-2.8 0-5.1 2.3-5.1 5.1-.1 2.8 2.2 5.1 5.1 5.1zm4.4.8h-1l-3.4 3.4-3.4-3.4h-1c-2.4 0-4.4 2-4.4 4.4l6.3 4.5 6.2-.8 5.2-3.7c-.1-2.4-2-4.4-4.5-4.4zm74.6 23.2c3.8 0 6.9-3.1 6.9-6.9 0-3.8-3.1-6.9-6.9-6.9-3.8 0-6.9 3.1-6.9 6.9s3.1 6.9 6.9 6.9zm6 1.1h-1.4l-4.6 4.6-4.6-4.6h-1.4c-3.2 0-5.9 2.6-5.9 5.9l6.3 4.7 10.1.8 7.4-5.5c0-3.3-2.7-5.9-5.9-5.9zm-12.9 76.8c5.2 0 9.5-4.3 9.5-9.5 0-5.3-4.3-9.5-9.5-9.5s-9.5 4.3-9.5 9.5 4.2 9.5 9.5 9.5zm8.2 1.5h-1.9l-6.3 6.3-6.3-6.3H208c-4.5 0-8.1 3.6-8.1 8.1l9.2 7.2h14.4l9.1-7.2c-.1-4.5-3.7-8.1-8.2-8.1z"/><path class="st0" d="M369.6 229.2c5.2 0 9.5-4.3 9.5-9.5 0-5.3-4.3-9.5-9.5-9.5s-9.5 4.3-9.5 9.5 4.2 9.5 9.5 9.5zm8.2 1.5h-1.9l-6.3 6.3-6.4-6.3h-1.9c-4.5 0-8.1 3.6-8.1 8.1l7.9 6.6 12.1 1.4 7.1-2.8 5.5-5.1c.1-4.6-3.5-8.2-8-8.2zM296.1 125c-5.2 0-9.5-4.3-9.5-9.5 0-5.3 4.3-9.5 9.5-9.5s9.5 4.3 9.5 9.5c.1 5.2-4.2 9.5-9.5 9.5zm-8.2 1.5h1.9l6.3 6.3 6.3-6.3h1.9c4.5 0 8.1 3.6 8.1 8.1l-8.8 7.2-14.2.3-9.7-7.4c.1-4.6 3.7-8.2 8.2-8.2z"/><path class="st1" d="M18.6 182.9c4.5 0 8.1-3.6 8.1-8.1 0-4.4-3.6-8.1-8.1-8.1-4.4 0-8.1 3.6-8.1 8.1.1 4.5 3.7 8.1 8.1 8.1zm7 1.2H24l-5.4 5.4-5.4-5.4h-1.6c-3.8 0-6.8 3.1-6.8 6.9l3.8 3.4 6.1 3.6 9.7-1.2 8.1-5.8c0-3.8-3.1-6.9-6.9-6.9z"/><path class="st0" d="M161.5 21.8c4.3 0 7.9-3.5 7.9-7.9 0-4.3-3.5-7.9-7.9-7.9-4.3 0-7.9 3.5-7.9 7.9s3.6 7.9 7.9 7.9zm6.8 1.3h-1.6l-5.2 5.2-5.2-5.2h-1.6c-3.7 0-6.7 3-6.7 6.7l8.1 6 11-.4 7.9-5.6c0-3.7-3-6.7-6.7-6.7z"/><path class="st1" d="M157.6 334.3c4.3 0 7.9-3.5 7.9-7.8s-3.5-7.9-7.9-7.9c-4.3 0-7.9 3.5-7.9 7.9 0 4.3 3.5 7.8 7.9 7.8zm6.8 1.2h-1.6l-5.2 5.2-5.2-5.2h-1.6c-3.7 0-6.7 3-6.7 6.7l8.3 6.2 10.8-.6 7.9-5.6c0-3.7-3-6.7-6.7-6.7zm-70.9 12.1c3.6 0 6.6-2.9 6.6-6.5s-2.9-6.5-6.6-6.5c-3.6 0-6.5 2.9-6.5 6.5-.1 3.5 2.9 6.5 6.5 6.5zm5.7 1h-1.3l-4.4 4.4-4.4-4.4h-1.3c-3.1 0-5.6 2.5-5.6 5.6l8 5.7 7.9-1 6.6-4.7c0-3.1-2.5-5.6-5.5-5.6zm3.7-53.5c-8.5 0-15.4-6.9-15.4-15.4s6.9-15.4 15.4-15.4 15.4 6.9 15.4 15.4c-.1 8.5-7 15.4-15.4 15.4zm0-29.2c-7.6 0-13.9 6.2-13.9 13.9 0 7.6 6.2 13.9 13.9 13.9 7.6 0 13.9-6.2 13.9-13.9-.1-7.7-6.3-13.9-13.9-13.9zm-77.4 5.4c-9.2 0-16.6-7.4-16.6-16.6 0-9.2 7.5-16.6 16.6-16.6 9.2 0 16.6 7.4 16.6 16.6-.1 9.1-7.5 16.6-16.6 16.6zm0-31.7c-8.3 0-15.1 6.8-15.1 15.1s6.8 15.1 15.1 15.1 15.1-6.8 15.1-15.1c-.1-8.4-6.8-15.1-15.1-15.1zM259 341c-14.8 0-26.8-12-26.8-26.7s12-26.7 26.8-26.7c14.7 0 26.7 12 26.7 26.7S273.7 341 259 341zm0-52c-13.9 0-25.3 11.3-25.3 25.2 0 13.9 11.3 25.2 25.3 25.2 13.9 0 25.2-11.3 25.2-25.2 0-13.9-11.3-25.2-25.2-25.2zM126.3 153.6c-10.5 0-19-8.5-19-19s8.5-19 19-19 19 8.5 19 19-8.5 19-19 19zm0-36.5c-9.7 0-17.5 7.9-17.5 17.5s7.9 17.5 17.5 17.5c9.7 0 17.5-7.9 17.5-17.5s-7.9-17.5-17.5-17.5zM94.4 218.4c-12.1 0-21.9-9.8-21.9-21.9 0-12.1 9.8-21.9 21.9-21.9 12.1 0 21.9 9.8 21.9 21.9 0 12.1-9.8 21.9-21.9 21.9zm0-42.3c-11.2 0-20.4 9.1-20.4 20.4 0 11.2 9.1 20.4 20.4 20.4 11.2 0 20.4-9.1 20.4-20.4 0-11.2-9.2-20.4-20.4-20.4zm-48.3-51c-12.1 0-21.9-9.8-21.9-21.9S34 81.3 46.1 81.3 68 91.1 68 103.2c0 12.1-9.9 21.9-21.9 21.9zm0-42.3c-11.2 0-20.4 9.1-20.4 20.4 0 11.2 9.2 20.4 20.4 20.4s20.4-9.1 20.4-20.4c0-11.2-9.2-20.4-20.4-20.4zM102.9 60c-9.6 0-17.4-7.8-17.4-17.4s7.8-17.4 17.4-17.4c9.6 0 17.4 7.8 17.4 17.4 0 9.6-7.9 17.4-17.4 17.4zm0-33.3c-8.8 0-15.9 7.1-15.9 15.9s7.1 15.9 15.9 15.9 15.9-7.1 15.9-15.9-7.2-15.9-15.9-15.9zm86.8 253.9c-10.9 0-19.8-8.9-19.8-19.8s8.9-19.9 19.8-19.9c11 0 19.9 8.9 19.9 19.9-.1 10.9-9 19.8-19.9 19.8zm0-38.2c-10.1 0-18.3 8.2-18.3 18.4 0 10.1 8.2 18.3 18.3 18.3s18.4-8.2 18.4-18.3c-.1-10.2-8.3-18.4-18.4-18.4zm97 11.1c-10.9 0-19.8-8.9-19.8-19.8s8.9-19.9 19.8-19.9c11 0 19.9 8.9 19.9 19.9-.1 10.9-9 19.8-19.9 19.8zm0-38.2c-10.1 0-18.3 8.2-18.3 18.4 0 10.1 8.2 18.3 18.3 18.3 10.1 0 18.4-8.2 18.4-18.3-.1-10.1-8.3-18.4-18.4-18.4zm17.9-146.2c-9.5 0-17.3-7.7-17.3-17.3 0-9.5 7.7-17.3 17.3-17.3 9.5 0 17.3 7.7 17.3 17.3-.1 9.5-7.8 17.3-17.3 17.3zm0-33.1c-8.7 0-15.8 7.1-15.8 15.8s7.1 15.8 15.8 15.8c8.7 0 15.8-7.1 15.8-15.8-.1-8.7-7.1-15.8-15.8-15.8zm59 111.5c-9.5 0-17.3-7.7-17.3-17.3 0-9.5 7.7-17.3 17.3-17.3 9.5 0 17.3 7.7 17.3 17.3 0 9.5-7.7 17.3-17.3 17.3zm0-33.1c-8.7 0-15.8 7.1-15.8 15.8s7.1 15.8 15.8 15.8c8.7 0 15.8-7.1 15.8-15.8 0-8.7-7.1-15.8-15.8-15.8zm-33 76.3c-7.7 0-14-6.3-14-14s6.3-14 14-14 14 6.3 14 14-6.3 14-14 14zm0-26.5c-6.9 0-12.5 5.6-12.5 12.5s5.6 12.5 12.5 12.5 12.5-5.6 12.5-12.5-5.6-12.5-12.5-12.5zm11.8 154.5c-9.3 0-16.9-7.6-16.9-16.9s7.6-16.9 16.9-16.9 16.9 7.6 16.9 16.9c-.1 9.3-7.6 16.9-16.9 16.9zm0-32.2c-8.5 0-15.4 6.9-15.4 15.4s6.9 15.4 15.4 15.4 15.4-6.9 15.4-15.4c-.1-8.5-7-15.4-15.4-15.4zm-180.9-82.3c-6.7 0-12.2-5.5-12.2-12.2s5.5-12.2 12.2-12.2 12.2 5.5 12.2 12.2-5.5 12.2-12.2 12.2zm0-22.9c-5.9 0-10.7 4.8-10.7 10.7s4.8 10.7 10.7 10.7 10.7-4.8 10.7-10.7c0-5.9-4.8-10.7-10.7-10.7zm49.7 210c-6.7 0-12.2-5.5-12.2-12.2s5.5-12.2 12.2-12.2 12.2 5.5 12.2 12.2-5.5 12.2-12.2 12.2zm0-22.9c-5.9 0-10.7 4.8-10.7 10.7 0 5.9 4.8 10.7 10.7 10.7s10.7-4.8 10.7-10.7-4.8-10.7-10.7-10.7zm39.1-336.5c-6.7 0-12.2-5.5-12.2-12.2s5.5-12.2 12.2-12.2c6.7 0 12.2 5.5 12.2 12.2 0 6.7-5.5 12.2-12.2 12.2zm0-22.9c-5.9 0-10.7 4.8-10.7 10.7s4.8 10.7 10.7 10.7c5.9 0 10.7-4.8 10.7-10.7 0-5.9-4.8-10.7-10.7-10.7zM144.1 94.9c-6.7 0-12.2-5.5-12.2-12.2s5.5-12.2 12.2-12.2 12.2 5.5 12.2 12.2c0 6.7-5.5 12.2-12.2 12.2zm0-22.9c-5.9 0-10.7 4.8-10.7 10.7 0 5.9 4.8 10.7 10.7 10.7s10.7-4.8 10.7-10.7c0-5.9-4.8-10.7-10.7-10.7zm79 50.1c-8.9 0-16.1-7.2-16.1-16.1 0-8.9 7.2-16.1 16.1-16.1 8.9 0 16.1 7.2 16.1 16.1 0 8.9-7.2 16.1-16.1 16.1zm0-30.7c-8.1 0-14.6 6.6-14.6 14.6 0 8.1 6.6 14.6 14.6 14.6 8.1 0 14.6-6.6 14.6-14.6 0-8.1-6.6-14.6-14.6-14.6zm-6.9 113.4c-12.1 0-21.9-9.8-21.9-21.9 0-12.1 9.8-21.9 21.9-21.9 12.1 0 21.9 9.8 21.9 21.9 0 12-9.8 21.9-21.9 21.9zm0-42.3c-11.2 0-20.4 9.1-20.4 20.4 0 11.2 9.1 20.4 20.4 20.4 11.2 0 20.4-9.1 20.4-20.4 0-11.3-9.2-20.4-20.4-20.4zm153.4 84.9c-12.1 0-21.9-9.8-21.9-21.9s9.8-21.9 21.9-21.9 21.9 9.8 21.9 21.9c0 12.1-9.8 21.9-21.9 21.9zm0-42.2c-11.2 0-20.4 9.1-20.4 20.4 0 11.2 9.1 20.4 20.4 20.4 11.2 0 20.4-9.1 20.4-20.4s-9.2-20.4-20.4-20.4zm-73.4-62c-12.1 0-21.9-9.8-21.9-21.9 0-12.1 9.8-21.9 21.9-21.9s21.9 9.8 21.9 21.9-9.9 21.9-21.9 21.9zm0-42.2c-11.2 0-20.4 9.1-20.4 20.4 0 11.2 9.1 20.4 20.4 20.4 11.2 0 20.4-9.1 20.4-20.4 0-11.3-9.2-20.4-20.4-20.4zM18.7 198.4C8.4 198.4 0 190 0 179.7S8.4 161 18.7 161s18.7 8.4 18.7 18.7c-.1 10.4-8.5 18.7-18.7 18.7zm0-35.8c-9.5 0-17.2 7.7-17.2 17.2S9.2 197 18.7 197s17.2-7.7 17.2-17.2c-.1-9.5-7.8-17.2-17.2-17.2zM161.5 37.1c-10 0-18.2-8.2-18.2-18.2S151.5.7 161.5.7s18.2 8.2 18.2 18.2-8.1 18.2-18.2 18.2zm0-35c-9.2 0-16.7 7.5-16.7 16.7s7.5 16.7 16.7 16.7 16.7-7.5 16.7-16.7-7.5-16.7-16.7-16.7z"/><path class="st1" d="M157.6 349.5c-10 0-18.2-8.2-18.2-18.2s8.2-18.2 18.2-18.2 18.2 8.2 18.2 18.2-8.2 18.2-18.2 18.2zm0-34.9c-9.2 0-16.7 7.5-16.7 16.7s7.5 16.7 16.7 16.7 16.7-7.5 16.7-16.7-7.5-16.7-16.7-16.7zm-64.1 45.8c-8.4 0-15.3-6.9-15.3-15.3s6.9-15.3 15.3-15.3 15.3 6.9 15.3 15.3-6.9 15.3-15.3 15.3zm0-29.1c-7.6 0-13.8 6.2-13.8 13.8 0 7.6 6.2 13.8 13.8 13.8s13.8-6.2 13.8-13.8c0-7.6-6.2-13.8-13.8-13.8z"/><path class="st1" d="M143.9 130.7c-.3 0-.6-.2-.7-.6-.1-.4.2-.8.6-.9l66.3-15.6c.4-.1.8.2.9.6.1.4-.2.8-.6.9l-66.3 15.6h-.2zm-31.8 138.4c-.1 0-.3 0-.4-.1-.3-.2-.4-.7-.2-1l22.7-34.2c.2-.3.7-.4 1-.2.3.2.4.7.2 1l-22.7 34.2c-.2.2-.4.3-.6.3zm29-43.7c-.1 0-.3 0-.4-.1-.3-.2-.4-.7-.2-1l15-22.6c.2-.3.7-.4 1-.2s.4.7.2 1l-15 22.6c-.1.2-.4.3-.6.3zm77.2-62.8c-.5 0-.8-.4-.7-.8l3.6-40.6c0-.4.4-.7.8-.7s.7.4.7.8l-3.6 40.6c-.1.4-.4.7-.8.7zm-49.2 21.6c-.2 0-.3 0-.4-.1-.3-.2-.4-.7-.2-1l18.5-25.7c.2-.3.7-.4 1-.2s.4.7.2 1l-18.5 25.7c-.2.2-.4.3-.6.3zm23.4-32.3c-.2 0-.3 0-.4-.1-.3-.2-.4-.7-.2-1l23-31.8c.2-.3.7-.4 1-.2s.4.7.2 1l-23 31.8c-.2.1-.4.3-.6.3zM51.3 191.1h-.2L35 187.4c-.4-.1-.7-.5-.6-.9.1-.4.5-.7.9-.6l16.1 3.7c.4.1.7.5.6.9-.1.3-.4.6-.7.6zm22 5h-.2l-17.4-4c-.4-.1-.7-.5-.6-.9s.5-.7.9-.6l17.4 4c.4.1.7.5.6.9-.1.3-.4.6-.7.6zm27.8 69.9c-.4 0-.7-.3-.7-.7l-4.9-47.7c0-.4.3-.8.7-.8s.8.3.8.7l4.9 47.7c0 .4-.3.7-.8.8.1 0 0 0 0 0zm-12.5 11.5h-.2L39 263.4c-.3-.1-.6-.4-.6-.7 0-.5.5-.9 1-.7l49.4 14.1c.3.1.6.4.6.7-.1.4-.4.7-.8.7zm196.3 36c-.4 0-.7-.3-.7-.7 0-.4.3-.8.7-.8l42.6-4.7c.4-.1.8.3.8.7 0 .4-.3.8-.7.8l-42.7 4.7c.1 0 .1 0 0 0zm53.6-146.7c-.2 0-.3-.1-.5-.2-.3-.3-.4-.7-.1-1.1l17.7-21.1c.3-.3.7-.4 1.1-.1.3.3.4.7.1 1.1l-17.7 21.1c-.1.2-.3.3-.6.3zm-16.1.2c-.2 0-.5-.1-.6-.3l-16.6-26.2c-.2-.3-.1-.8.2-1 .3-.2.8-.1 1 .2l16.6 26.1c.2.3.1.8-.2 1-.1.1-.2.2-.4.2zm-113.7 92.4c-.3 0-.6-.2-.7-.5-.1-.4.1-.8.5-.9l22-6.1c.4-.1.8.1.9.5s-.1.8-.5.9l-22 6.1h-.2zm31.4-8.7c-.3 0-.6-.2-.7-.5-.1-.4.1-.8.5-.9l29.3-8.2c.4-.1.8.1.9.5s-.1.8-.5.9l-29.3 8.2h-.2zm65.5-14.2c-.4 0-.7-.3-.7-.7-.1-.4.2-.8.7-.8l43.4-5.3c.4-.1.8.2.8.7.1.4-.2.8-.7.8l-43.5 5.3c.1 0 .1 0 0 0zm-108.8 7.3h-.2c-.4-.1-.6-.6-.5-1l13.6-39.8c.1-.4.6-.6 1-.5s.6.6.5 1l-13.6 39.8c-.1.3-.4.5-.8.5zM57.9 86.4c-.2 0-.5-.1-.6-.3-.2-.3-.2-.8.2-1l38.1-27.9c.3-.2.8-.2 1 .2.2.3.2.8-.2 1L58.3 86.3c-.1.1-.3.1-.4.1zm50.9 43.8h-.2l-45.4-14.3c-.4-.1-.6-.5-.5-.9s.5-.6.9-.5l45.3 14.2c.4.1.6.5.5.9 0 .4-.3.6-.6.6zm119.6-37.9h-.2c-.4-.1-.6-.5-.5-.9l19-60.6c.1-.4.5-.6.9-.5s.6.5.5.9l-19 60.6c-.1.3-.4.5-.7.5zm-29.2-40.7c-.2 0-.3 0-.4-.1l-26.4-18.8c-.3-.2-.4-.7-.2-1s.7-.4 1-.2l26.4 18.8c.3.2.4.7.2 1-.1.2-.3.3-.6.3zm16.2 41.9c-.3 0-.6-.2-.7-.5l-12.5-34.3c-.1-.4.1-.8.4-1 .4-.1.8.1 1 .4l12.5 34.3c.1.4-.1.8-.4 1-.2 0-.2.1-.3.1zm81 7.5h-.2c-.4-.1-.6-.5-.5-.9l8.1-31.9c.1-.4.5-.6.9-.5.4.1.6.5.5.9l-8.1 31.9c-.1.2-.4.5-.7.5zm-6.5-56c-.1 0-.2 0-.4-.1l-31.3-16.6c-.4-.2-.5-.6-.3-1s.6-.5 1-.3l31.3 16.6c.4.2.5.6.3 1-.1.2-.3.4-.6.4zm-155 31.6c-.2 0-.4-.1-.5-.2l-21.5-20.5c-.3-.3-.3-.8 0-1.1.3-.3.8-.3 1.1 0l21.5 20.5c.3.3.3.8 0 1.1-.2.2-.4.2-.6.2zm11.3-4.6h-.2c-.4-.1-.6-.6-.5-.9L157 36.4c.1-.4.6-.6.9-.5.4.1.6.6.5.9l-11.5 34.7c-.1.3-.4.5-.7.5zm9.3 111c-.2 0-.5-.1-.6-.3l-22.3-30.8c-.2-.3-.2-.8.2-1 .3-.2.8-.2 1 .2l22.3 30.8c.2.3.2.8-.2 1-.1.1-.2.1-.4.1zm17.4 10.2c-.4 0-.7-.3-.7-.6-.1-.4.2-.8.6-.8l23.1-3.2c.4-.1.8.2.8.6.1.4-.2.8-.6.8l-23.1 3.2h-.1zm175.9 94.6h-.3c-.4-.1-.6-.6-.5-1l14.7-41.3c.1-.4.6-.6 1-.5s.6.6.5 1l-14.7 41.3c-.1.3-.4.5-.7.5zm-129.6 83.8c-.2 0-.3 0-.5-.2-.3-.2-.4-.7-.1-1.1l26.1-34.6c.2-.3.7-.4 1.1-.1.3.2.4.7.1 1.1l-26.1 34.6c-.2.2-.4.3-.6.3zm-17.6 2.1c-.2 0-.4-.1-.5-.2l-32.3-28.7c-.3-.3-.3-.7-.1-1.1.3-.3.7-.3 1.1-.1l32.3 28.7c.3.3.3.7.1 1.1-.2.2-.4.3-.6.3zM108 345.3c-.3 0-.7-.2-.7-.6-.1-.4.2-.8.6-.9l33.3-6.9c.4-.1.8.2.9.6.1.4-.2.8-.6.9l-33.3 6.9h-.2zm-68.7-42.2c-.4 0-.7-.2-.7-.6l-6.4-33.7c-.1-.4.2-.8.6-.9.4-.1.8.2.9.6l6.4 33.7c.1.4-.2.8-.6.9h-.2zm45.1 31.4c-.1 0-.3 0-.4-.1l-39.8-23.2c-.4-.2-.5-.7-.3-1 .2-.4.7-.5 1-.3l39.8 23.2c.4.2.5.7.3 1-.1.2-.3.4-.6.4zm-46.2-88.4c-.2 0-.4-.1-.6-.3-.3-.3-.2-.8.1-1.1L79 210.8c.3-.3.8-.2 1.1.1s.2.8-.1 1.1l-41.3 33.9c-.1.1-.3.2-.5.2zM21.9 240c-.4 0-.7-.3-.8-.7l-.4-41.8c0-.4.3-.8.7-.8.5 0 .8.3.8.7l.4 41.8c0 .4-.3.8-.7.8zm186-135.8h-.2l-52.7-18c-.4-.1-.6-.6-.5-1 .1-.4.6-.6 1-.5l52.7 18c.4.1.6.6.5 1-.2.3-.4.5-.8.5zm28.7-4.7c-.2 0-.5-.1-.6-.3-.2-.4-.1-.8.2-1l56.1-35.5c.3-.2.8-.1 1 .2.2.4.1.8-.2 1L237 99.3c-.1.1-.2.2-.4.2zm-103.4 17.8c-.1 0-.2 0-.3-.1-.4-.2-.6-.6-.4-1l9.6-22.4c.2-.4.6-.6 1-.4s.6.6.4 1l-9.6 22.4c-.1.3-.4.5-.7.5zm-23.8 65h-.2c-.4-.1-.7-.5-.6-.9l7.1-31.6c.1-.4.5-.7.9-.6.4.1.7.5.6.9l-7.1 31.6c-.1.4-.4.6-.7.6zm-79.5-15.7c-.5-.1-.8-.4-.7-.8l6.2-44.1c.1-.4.4-.7.8-.6.4.1.7.4.6.8L30.6 166c0 .4-.3.6-.7.6zm56.8 10.9c-.2 0-.5-.1-.6-.3L50.9 124c-.2-.3-.1-.8.2-1 .3-.2.8-.1 1 .2l35.2 53.2c.2.3.1.8-.2 1-.1.1-.2.1-.4.1zm9.2 154c-.5-.1-.8-.4-.7-.8l2-14c.1-.4.4-.7.8-.6.4.1.7.4.6.8l-2 14c0 .3-.3.6-.7.6zm3.4-23.7h-.1c-.4-.1-.7-.4-.6-.8l1.8-12.7c.1-.4.4-.7.8-.6.4.1.7.4.6.8l-1.8 12.7c0 .3-.3.6-.7.6zm247.9-176.1c-.1 0-.1 0 0 0l-30.9-3.4c-.4 0-.7-.4-.7-.8s.4-.7.8-.7l30.8 3.4c.4 0 .7.4.7.8s-.4.7-.7.7zm-112.7 41.4c-.4 0-.8-.3-.8-.8 0-.3.2-.5.4-.7l46.7-35.9c.3-.3.8-.2 1.1.1.3.3.2.8-.1 1.1l-46.8 36c-.1.2-.3.2-.5.2zm35.2 52.5c-.2 0-.3 0-.4-.1L231 198.1c-.3-.2-.4-.7-.2-1 .2-.3.7-.4 1-.2l38.3 27.4c.3.2.4.7.2 1-.1.2-.3.3-.6.3zm-1 65.3h-.2c-.4-.1-.6-.6-.5-1l12.8-37.8c.1-.4.6-.6 1-.5s.6.6.5 1l-12.8 37.8c-.2.3-.5.5-.8.5zM175 332.3c-.4 0-.7-.3-.7-.6-.1-.4.2-.8.6-.9l27.2-4.2c.4-.1.8.2.9.6.1.4-.2.8-.6.9l-27.2 4.2h-.2zm35.4-5.4c-.4 0-.7-.3-.7-.6-.1-.4.2-.8.6-.9l23.9-3.7c.4-.1.8.2.9.6s-.2.8-.6.9l-23.9 3.7h-.2zm-93-47c-.3 0-.7-.2-.7-.6-.1-.4.2-.8.6-.9l54.5-11.5c.5-.1.9.3.9.7 0 .4-.3.7-.7.7l-54.4 11.4c0 .2-.1.2-.2.2zm48.6 36.8c-.1 0-.2 0-.3-.1-.4-.2-.5-.6-.4-1l17.1-37.4c.2-.4.6-.5 1-.4.4.2.5.6.4 1l-17.1 37.4c-.2.3-.5.5-.7.5zM280.9 301c-.2 0-.4-.1-.6-.3-.3-.3-.2-.8.1-1.1l32.3-27.1c.3-.3.8-.2 1.1.1.3.3.2.8-.1 1.1l-32.3 27.1c-.2.2-.3.2-.5.2zm38.6-32.5c-.2 0-.5-.1-.6-.3-.2-.3-.2-.8.2-1l35.8-26.7c.3-.2.8-.2 1 .2.2.3.2.8-.2 1l-35.8 26.7c-.1.1-.2.1-.4.1zm-82.6-80.7c-.4 0-.7-.3-.7-.7s.3-.8.7-.8l38.5-3.3c.4 0 .8.3.8.7s-.3.8-.7.8l-38.6 3.3c.1 0 0 0 0 0zm47.3-4.1c-.4 0-.7-.3-.7-.7s.3-.8.7-.8l33.6-2.9c.4 0 .8.3.8.7s-.3.8-.7.8l-33.7 2.9zm73.2 25.4c-.2 0-.4-.1-.5-.2l-21.1-19.6c-.3-.3-.3-.8 0-1.1s.8-.3 1.1 0l21.1 19.6c.3.3.3.8 0 1.1-.2.1-.4.2-.6.2zm-120.8 92.7c-.2 0-.3-.1-.5-.2L202.4 275c-.3-.3-.4-.7-.1-1.1.3-.3.7-.4 1.1-.1l33.7 26.6c.3.3.4.7.1 1.1-.2.2-.4.3-.6.3zM133.3 227c-.1 0-.3 0-.4-.1l-23.3-15.6c-.3-.2-.4-.7-.2-1s.7-.4 1-.2l23.3 15.6c.3.2.4.7.2 1-.1.2-.3.3-.6.3zm39.2 26.2c-.2 0-.4-.1-.5-.2l-29.5-19.8c-.3-.2-.4-.7-.2-1s.7-.4 1-.2l29.6 19.8c.2.1.3.4.3.6 0 .5-.3.8-.7.8zm213.2-73.9c-3.3 0-6.2-2.4-6.8-5.6-.7-3.7 1.8-7.4 5.5-8.1.4-.1.9-.1 1.3-.1 3.3 0 6.2 2.4 6.8 5.6.3 1.8 0 3.7-1.1 5.2-1 1.5-2.6 2.5-4.4 2.9-.4 0-.9.1-1.3.1zm0-12.4c-.3 0-.7 0-1 .1-2.9.6-4.9 3.4-4.3 6.3.5 2.6 2.7 4.4 5.3 4.4.3 0 .7 0 1-.1 1.4-.3 2.7-1.1 3.5-2.3s1.1-2.6.8-4c-.5-2.5-2.7-4.4-5.3-4.4z"/><path class="st1" d="M343.6 176.8c-.4 0-.7-.3-.7-.7s.3-.8.7-.8l36-2.6c.4 0 .8.3.8.7s-.3.8-.7.8l-36.1 2.6c.1 0 .1 0 0 0zm-49.3 187.4c-1.7 0-3.3-.6-4.5-1.7-2.9-2.5-3.2-6.9-.7-9.7 1.3-1.5 3.2-2.4 5.2-2.4 1.7 0 3.2.6 4.5 1.7 1.4 1.2 2.2 2.9 2.4 4.7.1 1.8-.5 3.6-1.7 5-1.3 1.5-3.2 2.4-5.2 2.4zm0-12.3c-1.6 0-3.1.7-4.1 1.9-1.9 2.3-1.7 5.7.6 7.6 1 .8 2.2 1.3 3.5 1.3 1.6 0 3.1-.7 4.1-1.9.9-1.1 1.4-2.5 1.3-3.9s-.8-2.8-1.9-3.7c-1-.8-2.2-1.3-3.5-1.3z"/><path class="st1" d="M289.6 354c-.2 0-.4-.1-.6-.2l-16.3-17.7c-.3-.3-.3-.8 0-1.1.3-.3.8-.3 1.1 0l16.3 17.7c.3.3.3.8 0 1.1-.1.2-.3.2-.5.2zm-148.3 30.5c-1.4 0-2.9-.4-4.1-1.1a8.23 8.23 0 01-2.9-11.1c1.5-2.5 4.1-4 7-4 1.4 0 2.9.4 4.1 1.1 3.8 2.3 5.1 7.2 2.9 11.1-1.5 2.5-4.2 4-7 4zm0-14.6c-2.3 0-4.5 1.2-5.7 3.2-1.8 3.1-.8 7.2 2.3 9 1 .6 2.2.9 3.3.9 2.3 0 4.5-1.2 5.7-3.2 1.8-3.1.8-7.2-2.3-9-1-.6-2.2-.9-3.3-.9zm-81.2-77.3c-.6 0-1.3-.2-1.8-.5-1.7-1-2.3-3.2-1.3-4.9.6-1.1 1.8-1.7 3.1-1.7.6 0 1.3.2 1.8.5.8.5 1.4 1.3 1.6 2.2.2.9.1 1.9-.4 2.7-.6 1-1.8 1.7-3 1.7zm0-5.6c-.7 0-1.4.4-1.8 1-.6 1-.2 2.2.7 2.8.9.6 2.3.2 2.8-.7.3-.5.4-1 .2-1.6-.1-.5-.5-1-.9-1.3-.3-.1-.7-.2-1-.2z"/><path class="st1" d="M143.3 369.3h-.2c-.3-.1-.5-.5-.3-.8l8.3-20.4c.1-.3.5-.5.8-.3.3.1.5.5.3.8l-8.3 20.4c-.1.2-.4.3-.6.3zm-98.9-63.8c-.2 0-.4-.1-.5-.2-.3-.3-.3-.8 0-1.1L57 291.1c.3-.3.8-.3 1.1 0 .3.3.3.8 0 1.1L45 305.3c-.2.1-.4.2-.6.2zM138 236c-3.6 0-6.5-2.9-6.5-6.5s2.9-6.5 6.5-6.5 6.5 2.9 6.5 6.5-2.9 6.5-6.5 6.5zm0-11.5c-2.7 0-5 2.2-5 5 0 2.7 2.2 5 5 5 2.7 0 5-2.2 5-5 0-2.7-2.2-5-5-5zm97.4 32.5c-3.1 0-5.6-2.5-5.6-5.6s2.5-5.6 5.6-5.6 5.6 2.5 5.6 5.6c0 3-2.5 5.6-5.6 5.6zm0-9.8c-2.3 0-4.1 1.9-4.1 4.1 0 2.3 1.9 4.1 4.1 4.1 2.3 0 4.1-1.9 4.1-4.1 0-2.3-1.8-4.1-4.1-4.1zM98.5 317.5c-3.1 0-5.6-2.5-5.6-5.6s2.5-5.6 5.6-5.6c3.1 0 5.6 2.5 5.6 5.6 0 3.1-2.5 5.6-5.6 5.6zm0-9.8c-2.3 0-4.1 1.9-4.1 4.1 0 2.3 1.9 4.1 4.1 4.1 2.3 0 4.1-1.9 4.1-4.1 0-2.2-1.8-4.1-4.1-4.1z"/><path class="st1" d="M40.5 313.6c-3.1 0-5.6-2.5-5.6-5.6s2.5-5.6 5.6-5.6 5.6 2.5 5.6 5.6-2.5 5.6-5.6 5.6zm0-9.8c-2.3 0-4.1 1.9-4.1 4.1 0 2.3 1.9 4.1 4.1 4.1s4.1-1.9 4.1-4.1-1.8-4.1-4.1-4.1zm60.4-207.2h-.3c-1.3-.1-2.5-.6-3.4-1.6-.9-1-1.3-2.2-1.3-3.5.1-2.7 2.4-4.8 5.2-4.7 2.7.1 4.8 2.4 4.7 5.2-.1 2.5-2.3 4.6-4.9 4.6zm0-8.4a3.4 3.4 0 00-3.4 3.2c0 .9.3 1.8.9 2.5.6.7 1.4 1.1 2.4 1.1h.2c1.8 0 3.3-1.4 3.4-3.2 0-.9-.3-1.8-.9-2.5-.6-.7-1.4-1.1-2.4-1.1h-.2zM201 59.5c-2.7 0-4.9-2.2-4.9-4.9s2.2-4.9 4.9-4.9 4.9 2.2 4.9 4.9-2.2 4.9-4.9 4.9zm0-8.3c-1.9 0-3.4 1.5-3.4 3.4s1.5 3.4 3.4 3.4 3.4-1.5 3.4-3.4c0-1.8-1.5-3.4-3.4-3.4zm-11.1 108.1c-2.7 0-4.9-2.2-4.9-4.9s2.2-4.9 4.9-4.9 4.9 2.2 4.9 4.9-2.2 4.9-4.9 4.9zm0-8.3c-1.9 0-3.4 1.5-3.4 3.4s1.5 3.4 3.4 3.4 3.4-1.5 3.4-3.4-1.5-3.4-3.4-3.4zm16.4 180.3c-2.7 0-4.9-2.2-4.9-4.9s2.2-4.9 4.9-4.9 4.9 2.2 4.9 4.9-2.2 4.9-4.9 4.9zm0-8.3c-1.9 0-3.4 1.5-3.4 3.4s1.5 3.4 3.4 3.4 3.4-1.5 3.4-3.4-1.6-3.4-3.4-3.4z"/><path class="st1" d="M67.2 97.1c-.4 0-.7-.3-.7-.7 0-.4.3-.8.7-.8l29.4-3.3c.4 0 .8.3.8.7s-.3.8-.7.8l-29.5 3.3c.1 0 0 0 0 0zm37.9-5.5c-.4 0-.7-.3-.7-.6-.1-.4.2-.8.6-.9l27.6-4.2c.4-.1.8.2.9.6.1.4-.2.8-.6.9l-27.6 4.2h-.2zm148.5 42.8c-3.8 0-6.9-3.1-6.9-6.9 0-3.8 3.1-6.9 6.9-6.9 3.8 0 6.9 3.1 6.9 6.9 0 3.8-3.1 6.9-6.9 6.9zm0-12.3c-3 0-5.4 2.4-5.4 5.4s2.4 5.4 5.4 5.4c3 0 5.4-2.4 5.4-5.4 0-3-2.5-5.4-5.4-5.4z"/><path class="st1" d="M253.6 134.4c-3.8 0-6.9-3.1-6.9-6.9 0-3.8 3.1-6.9 6.9-6.9 3.8 0 6.9 3.1 6.9 6.9 0 3.8-3.1 6.9-6.9 6.9zm0-12.3c-3 0-5.4 2.4-5.4 5.4s2.4 5.4 5.4 5.4c3 0 5.4-2.4 5.4-5.4 0-3-2.5-5.4-5.4-5.4zm26.2 66.6c-2.8 0-5.2-2.3-5.2-5.2 0-2.8 2.3-5.2 5.2-5.2 2.8 0 5.2 2.3 5.2 5.2 0 2.9-2.3 5.2-5.2 5.2zm0-8.8c-2 0-3.7 1.6-3.7 3.7 0 2 1.6 3.7 3.7 3.7 2 0 3.7-1.6 3.7-3.7s-1.7-3.7-3.7-3.7z"/><path class="st1" d="M259.7 128.2c-.3 0-.7-.2-.7-.6-.1-.4.2-.8.6-.9l15.3-3.3c.4-.1.8.2.9.6.1.4-.2.8-.6.9l-15.3 3.3h-.2zm-11.4-3.2c-.1 0-.3 0-.4-.1l-13.2-8.5c-.3-.2-.4-.7-.2-1 .2-.3.7-.4 1-.2l13.2 8.5c.3.2.4.7.2 1-.1.2-.3.3-.6.3zm67.9 150.2c-2.7 0-4.9-2.2-4.9-4.9s2.2-4.9 4.9-4.9 4.9 2.2 4.9 4.9-2.2 4.9-4.9 4.9zm0-8.4c-1.9 0-3.4 1.5-3.4 3.4s1.5 3.4 3.4 3.4 3.4-1.5 3.4-3.4c0-1.8-1.5-3.4-3.4-3.4zM53.6 193.9c-1.7 0-3.1-1.4-3.1-3.1s1.4-3.1 3.1-3.1 3.1 1.4 3.1 3.1-1.4 3.1-3.1 3.1zm0-4.7c-.9 0-1.6.7-1.6 1.6s.7 1.6 1.6 1.6 1.6-.7 1.6-1.6-.7-1.6-1.6-1.6zm296.1-101c-1.8 0-3.5-.7-4.8-2-2.7-2.7-2.7-7 0-9.7 1.3-1.3 3-2 4.8-2s3.5.7 4.8 2 2 3 2 4.8-.7 3.5-2 4.8c-1.3 1.4-3 2.1-4.8 2.1zm-.1-12.2c-1.4 0-2.8.6-3.8 1.6-2.1 2.1-2.1 5.5 0 7.5 1 1 2.3 1.6 3.8 1.6 1.4 0 2.8-.6 3.8-1.6s1.6-2.3 1.6-3.8-.6-2.8-1.6-3.8c-1-.9-2.3-1.5-3.8-1.5z"/><path class="st1" d="M313.3 109.1c-.2 0-.5-.1-.6-.3-.2-.3-.2-.8.2-1L345 85.1c.3-.2.8-.2 1 .2.2.3.2.8-.2 1L313.7 109c-.1.1-.3.1-.4.1zM220 6c-1.6 0-3-1.3-3-3 0-1.6 1.3-3 3-3s3 1.3 3 3c-.1 1.7-1.4 3-3 3zm0-4.4c-.8 0-1.5.7-1.5 1.5s.7 1.5 1.5 1.5 1.5-.7 1.5-1.5c-.1-.8-.7-1.5-1.5-1.5z"/><path class="st1" d="M203 51.8h-.2c-.4-.1-.6-.6-.5-1l15.8-46c.1-.4.6-.6 1-.5s.6.6.5 1l-15.8 46c-.2.3-.5.5-.8.5z"/></svg>