<svg id="Layer_1" enable-background="new 0 0 512 512" height="512" viewBox="0 0 512 512" width="512" xmlns="http://www.w3.org/2000/svg"><path d="m497 289.156h-30c-4.972 0-9.753.823-14.228 2.319-8.656-8.49-18.416-15.74-28.988-21.525 33.211-20.822 55.342-57.751 55.342-99.758 0-64.879-52.783-117.663-117.663-117.663-49.927 0-92.685 31.26-109.744 75.233-16.098-45.821-59.794-78.764-111.046-78.764-64.88 0-117.663 52.783-117.663 117.663 0 41.254 21.346 77.612 53.568 98.625-45.103 20.496-76.578 66.259-76.578 119.297v63.414c0 8.284 6.716 15 15 15s15-6.716 15-15v-63.414c0-43.224 27.062-80.175 64.955-94.458v.517c0 25.209 20.509 45.718 45.718 45.718s45.718-20.509 45.718-45.718v-6.829h92.282c-29.597 24.417-47.778 61.208-47.778 100.771v63.395c0 8.284 6.716 15 15 15s15-6.716 15-15v-63.395c0-37.915 21.696-72.54 55.062-89.601 2.194 23.18 21.762 41.378 45.506 41.378 23.741 0 43.307-18.192 45.505-41.367 7.937 4.066 15.325 9.186 21.961 15.215-4.382 6.941-6.929 15.151-6.929 23.948 0 23.07 17.454 42.13 39.848 44.696.109 1.909.182 69.15.182 69.15 0 8.284 6.716 15 15 15s15-6.716 15-15c0 0-.045-67.037-.121-68.846h5.091c8.284 0 15-6.716 15-15v-60c0-8.286-6.716-15.001-15-15.001zm-135.537-31.302c-48.337 0-87.663-39.325-87.663-87.663 0-1.731.056-3.448.156-5.154h91.194c3.425 0 6.746-1.172 9.413-3.321l13.152-10.6 5.657 7.758c2.824 3.873 7.328 6.163 12.12 6.163h43.48c.099 1.706.156 3.424.156 5.154-.002 48.338-39.327 87.663-87.665 87.663zm-111.046-48.763c5.983 17.03 15.775 32.28 28.355 44.721h-59.129c13.462-12.21 24.089-27.49 30.774-44.721zm111.046-126.562c35.842 0 66.723 21.624 80.297 52.508h-28.642l-10.438-14.316c-2.418-3.316-6.089-5.497-10.158-6.034-4.068-.539-8.18.617-11.375 3.192l-21.289 17.158h-78.691c13.574-30.884 44.454-52.508 80.296-52.508zm-220.79-3.53c33.186 0 62.123 18.537 77.004 45.8h-154.009c14.881-27.263 43.818-45.8 77.005-45.8zm-87.663 87.662c0-4.023.278-7.982.806-11.863h173.714c.527 3.881.806 7.84.806 11.863 0 45.141-34.298 82.419-78.203 87.151h-18.918c-43.906-4.732-78.205-42.009-78.205-87.151zm103.38 123.98c0 8.667-7.051 15.718-15.718 15.718s-15.718-7.051-15.718-15.718v-6.713c1.566-.074 3.141-.116 4.725-.116h.068c3.599.333 7.241.512 10.925.512s7.328-.179 10.927-.512h4.791zm205.073 15.719c-8.667 0-15.718-7.051-15.718-15.718v-3.84c5.143.69 10.389 1.053 15.718 1.053s10.574-.363 15.718-1.053v3.84c0 8.666-7.051 15.718-15.718 15.718zm90.537 27.796c0-8.271 6.729-15 15-15h15v30h-15c-8.271-.001-15-6.729-15-15z"/></svg>