<svg height="368pt" viewBox="0 0 368 368" width="368pt" xmlns="http://www.w3.org/2000/svg"><path d="m184 0c-101.464844 0-184 82.542969-184 184s82.535156 184 184 184 184-82.542969 184-184-82.535156-184-184-184zm0 352c-92.632812 0-168-75.359375-168-168s75.367188-168 168-168 168 75.359375 168 168-75.367188 168-168 168zm0 0"/><path d="m184 48c-17.839844 0-34.847656 3.542969-50.480469 9.824219-.335937.113281-.664062.207031-.976562.359375-33.648438 13.816406-60.550781 40.710937-74.359375 74.367187-.152344.3125-.246094.640625-.359375.976563-6.28125 15.625-9.824219 32.632812-9.824219 50.472656 0 74.992188 61.007812 136 136 136s136-61.007812 136-136-61.007812-136-136-136zm-56 29.953125v50.046875h-50.046875c11.277344-21.289062 28.757813-38.769531 50.046875-50.046875zm56 226.046875c-66.167969 0-120-53.832031-120-120 0-14.039062 2.550781-27.464844 7-40h57v40c0 30.878906 25.128906 56 56 56s56-25.121094 56-56-25.128906-56-56-56h-40v-57c12.535156-4.449219 25.960938-7 40-7 66.167969 0 120 53.832031 120 120s-53.832031 120-120 120zm0-160c22.054688 0 40 17.945312 40 40s-17.945312 40-40 40-40-17.945312-40-40v-40zm0 0"/></svg>