<svg id="Icons" height="512" viewBox="0 0 74 74" width="512" xmlns="http://www.w3.org/2000/svg"><path d="m37 71a34 34 0 1 1 34-34 34.038 34.038 0 0 1 -34 34zm0-66a32 32 0 1 0 32 32 32.036 32.036 0 0 0 -32-32z"/><path d="m22.056 53.056a1 1 0 0 1 -.707-1.707l30-30a1 1 0 0 1 1.414 1.414l-30 30a1 1 0 0 1 -.707.293z"/><path d="m27.16 34.373a7.213 7.213 0 0 1 -5.1-12.315 7.216 7.216 0 1 1 5.1 12.315zm-3.688-10.9a5.217 5.217 0 1 0 7.377 0 5.223 5.223 0 0 0 -7.377 0z"/><path d="m46.275 53.593a7.318 7.318 0 1 1 5.177-2.141 7.3 7.3 0 0 1 -5.177 2.141zm0-12.636a5.318 5.318 0 1 0 3.763 1.556 5.306 5.306 0 0 0 -3.763-1.556z"/></svg>