<?xml version="1.0" encoding="utf-8"?>
<!-- Generator: Adobe Illustrator 25.1.0, SVG Export Plug-In . SVG Version: 6.00 Build 0)  -->
<svg version="1.1" id="Layer_1" xmlns="http://www.w3.org/2000/svg" xmlns:xlink="http://www.w3.org/1999/xlink" x="0px" y="0px"
	 viewBox="0 0 330 330" style="enable-background:new 0 0 330 330;" xml:space="preserve">
<g id="XMLID_14_">
	<path id="XMLID_15_" d="M15,330h300c8.3,0,15-6.7,15-15V45c0-8.3-6.7-15-15-15h-85V15c0-8.3-6.7-15-15-15s-15,6.7-15,15v15h-70V15
		c0-8.3-6.7-15-15-15s-15,6.7-15,15v15H15C6.7,30,0,36.7,0,45v270C0,323.3,6.7,330,15,330z M30,300V120h270v180H30z M300,60v30H30
		V60H300z"/>
</g>
</svg>
