<?xml version="1.0" encoding="iso-8859-1"?>
<!-- Generator: Adobe Illustrator 19.0.0, SVG Export Plug-In . SVG Version: 6.00 Build 0)  -->
<svg version="1.1" id="Layer_1" xmlns="http://www.w3.org/2000/svg" xmlns:xlink="http://www.w3.org/1999/xlink" x="0px" y="0px"
	 viewBox="0 0 330 330" style="enable-background:new 0 0 330 330;" xml:space="preserve">
<path id="XMLID_444_" d="M315,60h-45V15c0-8.284-6.716-15-15-15H15C6.716,0,0,6.716,0,15v240c0,8.284,6.716,15,15,15h45v45
	c0,8.284,6.716,15,15,15h240c8.284,0,15-6.716,15-15V75C330,66.716,323.284,60,315,60z M30,240V30h210v30H75
	c-8.284,0-15,6.716-15,15v165H30z M300,300H90V90h164.99c0.004,0,0.006,0.001,0.01,0.001c0.003,0,0.006-0.001,0.01-0.001H300V300z"
	/>
<g>
</g>
<g>
</g>
<g>
</g>
<g>
</g>
<g>
</g>
<g>
</g>
<g>
</g>
<g>
</g>
<g>
</g>
<g>
</g>
<g>
</g>
<g>
</g>
<g>
</g>
<g>
</g>
<g>
</g>
</svg>
