<?xml version="1.0" encoding="utf-8"?>
<!-- Generator: Adobe Illustrator 25.1.0, SVG Export Plug-In . SVG Version: 6.00 Build 0)  -->
<svg version="1.1" id="Capa_1" xmlns="http://www.w3.org/2000/svg" xmlns:xlink="http://www.w3.org/1999/xlink" x="0px" y="0px"
	 viewBox="0 0 432 354" style="enable-background:new 0 0 432 354;" xml:space="preserve">
<g>
	<g>
		<path d="M390.6,0H88.3C65.5,0.1,47,18.6,47,41.5V42h-5.6C18.6,42,0.1,60.4,0,83.2v229.3c0.1,22.8,18.5,41.4,41.4,41.5h302.3
			c22.8-0.1,41.3-18.6,41.3-41.5V312h5.6c22.8,0,41.3-18.4,41.4-41.2V41.5C431.9,18.6,413.5,0.1,390.6,0z M343.7,334H41.4
			c-11.8-0.1-21.3-9.7-21.4-21.5V83.2C20.1,71.5,29.6,62,41.4,62h302.3c11.7,0,21.3,9.4,21.3,21.2v57.2c-1.8,0.4-3.6,0.6-5.3,0.6
			H302c-31.4,0-56.9,25.5-56.9,56.9s25.5,56.9,56.9,57h57.6c1.8-0.1,3.6-0.3,5.3-0.5l0.1,58.1C365,324.3,355.5,333.9,343.7,334z
			 M412,270.8c-0.1,11.7-9.6,21.2-21.4,21.2H385v-44.8c4.3-2.9,8.2-6.5,11.5-10.5l15.5-20V270.8z M380.7,224.6
			c-5,6.5-12.8,10.3-21,10.4H302c-20.4-0.1-36.9-16.6-36.9-37s16.5-36.9,36.9-37h57.6c6.9,0,13.7-1.5,19.9-4.5
			c6.6-3.1,12.4-7.8,16.9-13.6l15.5-20L412,184L380.7,224.6z M412,90.2L385,125V83.2c0-22.8-18.5-41.2-41.3-41.2H67v-0.5
			c0-11.8,9.5-21.4,21.3-21.5h302.3c11.8,0.1,21.3,9.7,21.4,21.5L412,90.2L412,90.2z"/>
	</g>
</g>
<g>
	<g>
		<path d="M324.4,188h-24c-5.5,0-10,4.5-10,10s4.5,10,10,10h24c5.5,0,10-4.5,10-10S329.9,188,324.4,188z"/>
	</g>
</g>
</svg>
