<svg fill="#fff" xmlns="http://www.w3.org/2000/svg" width="153" height="32"><path d="M53.8 23.5c-1.5 0-2.7-.3-3.8-.8-1-.5-1.8-1.3-2.3-2.2-.5-1-.8-2.1-.9-3.5v-4.2c.1-1.3.4-2.5.9-3.5S49 7.6 50 7.1c1-.5 2.3-.8 3.7-.8 1.1 0 2.1.1 2.9.4s1.6.7 2.2 1.2c.6.5 1.1 1.1 1.4 1.8.3.7.5 1.4.5 2.2 0 .1 0 .3-.1.4-.1.1-.2.1-.4.1H58c-.2 0-.3 0-.4-.1-.1-.1-.2-.2-.2-.4-.3-1-.7-1.8-1.3-2.1-.6-.4-1.4-.6-2.3-.6-1.1 0-1.9.3-2.6.9-.6.6-1 1.6-1 2.9v4c0 1.4.4 2.3 1 2.9.6.6 1.5.9 2.6.9.9 0 1.7-.2 2.3-.6s1.1-1.1 1.3-2.1c0-.2.1-.4.2-.5.1-.1.3-.1.4-.1h2.3c.1 0 .3 0 .4.1.1.1.1.2.1.4 0 .8-.2 1.5-.5 2.2-.3.7-.8 1.3-1.4 1.8-.6.5-1.3.9-2.2 1.2s-1.9.3-2.9.3zm15 0c-1.3 0-2.3-.2-3.2-.7-.9-.4-1.5-1.1-2-1.9-.5-.8-.7-1.8-.8-2.8v-2c.1-1.1.3-2 .8-2.9.5-.8 1.1-1.4 2-1.9.9-.4 1.9-.7 3.2-.7 1.2 0 2.3.2 3.2.7.9.4 1.5 1.1 2 1.9.5.8.7 1.8.8 2.9v2c-.1 1.1-.3 2-.8 2.8-.5.8-1.1 1.4-2 1.9-.8.5-1.9.7-3.2.7zm0-2.4c.8 0 1.5-.3 2-.8s.7-1.3.8-2.3v-1.8c0-1-.3-1.8-.8-2.3-.5-.5-1.1-.8-2-.8-.8 0-1.5.3-2 .8s-.7 1.3-.8 2.3V18c0 1 .3 1.8.8 2.3.5.6 1.2.8 2 .8zm9.1-12.3c-.2 0-.3-.1-.4-.2s-.2-.2-.2-.4V6.5c0-.2.1-.3.2-.4.1-.1.3-.1.4-.1h2.2c.2 0 .3.1.4.2.1.1.2.2.2.4v1.7c0 .2-.1.3-.2.4s-.3.2-.4.2h-2.2zm.1 14.5c-.2 0-.3-.1-.4-.2-.1-.1-.2-.2-.2-.4V11.4c0-.2.1-.3.2-.4.1-.1.2-.2.4-.2h2c.2 0 .3.1.4.2.1.1.2.2.2.4v11.3c0 .2-.1.3-.2.4-.1.1-.2.2-.4.2h-2zm6.3 0c-.2 0-.3-.1-.4-.2-.1-.1-.2-.2-.2-.4V11.4c0-.2.1-.3.2-.4.1-.1.2-.2.4-.2h2c.2 0 .3.1.4.2s.2.2.2.4v1c.4-.5.9-.9 1.6-1.3.6-.3 1.4-.5 2.4-.5s1.8.2 2.5.7c.7.4 1.3 1.1 1.7 1.8.4.8.6 1.7.6 2.9v6.7c0 .2-.1.3-.2.4-.1.1-.2.2-.4.2H93c-.2 0-.3-.1-.4-.2s-.2-.2-.2-.4v-6.6c0-.9-.2-1.6-.7-2.2-.5-.5-1.1-.8-2-.8-.8 0-1.5.3-2 .8s-.7 1.2-.7 2.2v6.6c0 .2-.1.3-.2.4s-.2.2-.4.2h-2.1zm18.9.2c-.8 0-1.6-.1-2.2-.4-.6-.3-1.1-.7-1.6-1.2-.4-.5-.7-1.1-1-1.8s-.3-1.5-.4-2.3v-1.6c0-.8.2-1.5.4-2.2.2-.7.5-1.3 1-1.8s.9-.9 1.6-1.2 1.4-.4 2.2-.4c.9 0 1.6.1 2.2.4.6.3 1.1.7 1.5 1.1V6.9c0-.2.1-.3.2-.4.1-.1.2-.2.4-.2h2c.2 0 .3.1.4.2s.2.2.2.4v15.8c0 .2-.1.3-.2.4s-.2.2-.4.2h-1.9c-.2 0-.3-.1-.4-.2s-.2-.2-.2-.4v-.9c-.4.5-.9.9-1.5 1.2-.6.3-1.3.5-2.3.5zm.9-2.5c.7 0 1.2-.2 1.6-.5s.7-.7.9-1.2c.2-.5.3-1 .3-1.4v-1.8c0-.5-.1-.9-.3-1.4-.2-.4-.5-.8-.9-1.1s-.9-.4-1.5-.4c-.7 0-1.2.1-1.6.4-.4.3-.7.7-.8 1.2-.2.5-.3 1-.3 1.6v1.4c0 .6.1 1.1.3 1.6.2.5.5.9.8 1.2.3.2.9.4 1.5.4zm14.5 2.5c-1.8 0-3.2-.5-4.2-1.5s-1.6-2.5-1.7-4.3v-1.2c.1-1.2.3-2.2.8-3.1.5-.9 1.2-1.5 2-2 .9-.5 1.9-.7 3-.7 1.3 0 2.4.3 3.2.8s1.5 1.3 2 2.2c.4.9.7 2 .7 3.3v.5c0 .2-.1.3-.2.4-.1.1-.3.2-.4.2H116v.2c0 .6.1 1.1.3 1.5.2.5.5.8.9 1.1s.9.4 1.4.4c.4 0 .8-.1 1.1-.2.3-.1.5-.3.7-.5l.4-.4c.1-.2.3-.3.3-.3.1 0 .2-.1.4-.1h2.1c.2 0 .3 0 .4.1.1.1.1.2.1.4 0 .3-.1.6-.4.9-.2.4-.6.7-1.1 1.1s-1 .6-1.7.9-1.4.3-2.3.3zM116 16h5.3v-.1c0-.6-.1-1.2-.3-1.6-.2-.5-.5-.8-.9-1.1-.4-.3-.9-.4-1.4-.4-.6 0-1 .1-1.4.4-.4.3-.7.6-.9 1.1-.3.5-.4 1-.4 1.7zm11.6 7.3c-.2 0-.3-.1-.4-.2-.1-.1-.2-.2-.2-.4V6.9c0-.2.1-.3.2-.4.1-.1.2-.2.4-.2h1.9c.2 0 .3.1.4.2s.2.2.2.4v8.2l4-3.8c.2-.1.3-.2.4-.3.1-.1.3-.1.5-.1h2.2c.2 0 .3 0 .4.1.1.1.1.2.1.4v.2c0 .1-.1.2-.2.2l-4.9 4.6 5.5 5.9c.2.2.2.3.2.4 0 .2-.1.3-.2.4-.1.1-.2.1-.4.1h-2.3c-.2 0-.4 0-.5-.1-.1-.1-.2-.2-.4-.3l-4.6-4.8v4.6c0 .2-.1.3-.2.4s-.2.2-.4.2h-1.7zm17 .2c-1 0-1.8-.1-2.4-.3-.7-.2-1.2-.5-1.7-.8-.4-.3-.7-.7-1-1s-.3-.6-.3-.8c0-.2 0-.3.2-.4.1-.1.2-.2.4-.2h2.1s.1.1.2.1c.2.2.4.4.7.5.2.2.5.4.8.5.3.1.7.2 1.2.2.6 0 1.1-.1 1.6-.4s.6-.6.6-1.1c0-.3-.1-.6-.3-.8-.2-.2-.5-.4-1-.6-.5-.2-1.2-.3-2.1-.5-.9-.2-1.6-.5-2.2-.8-.6-.3-1-.7-1.3-1.2-.3-.5-.4-1-.4-1.7 0-.6.2-1.2.6-1.8.4-.6.9-1 1.7-1.4s1.7-.5 2.8-.5c.9 0 1.6.1 2.2.3.6.2 1.2.5 1.6.8.4.3.7.6 1 1 .2.3.3.6.4.8 0 .2 0 .3-.1.4s-.2.2-.4.2h-2c-.1 0-.1-.1-.2-.1-.2-.2-.4-.3-.6-.5-.2-.2-.5-.3-.8-.5-.3-.1-.7-.2-1.2-.2-.6 0-1.1.1-1.4.4s-.5.6-.5 1c0 .3.1.5.2.7.2.2.5.4.9.6.5.2 1.2.4 2.1.5 1.1.2 1.9.5 2.5.8s1.1.8 1.3 1.3c.3.5.4 1 .4 1.6 0 .7-.2 1.4-.6 1.9s-1 1-1.9 1.3c-.9.5-1.9.7-3.1.7zM6 5.9C10.4 1.6 17.6.8 22.9 4.1c1.2.7 1.6 2.3.9 3.5-.7 1.3-2.1 1.8-3.6.9-2.1-1.2-4.2-1.6-6.5-1-4.9 1.2-7.7 6.4-6 11.1 1.7 4.8 7 7 11.6 4.9.5-.2.9-.5 1.4-.7 1.3-.5 2.7.2 3.2 1.4.5 1.1 0 2.6-1 3.3-5.3 3.3-12.7 2.4-17.1-2.1-4.4-4.5-5.1-11.7-1.7-17 .6-.9 1.2-1.7 1.9-2.5z"/><path d="M13.3 13.4c1.3-1.3 3.2-1.3 4.8 0 2.5 2 4.8 1.9 7.3-.1 1.4-1.2 3.4-1.1 4.7.2 1.2 1.3 1.2 3.4 0 4.7-1.2 1.3-3.3 1.3-4.7.2-2.5-2.1-4.7-2.1-7.4-.1-1.7 1.3-3.7 1.1-4.9-.3-1.1-1.4-1-3.5.2-4.6z"/></svg>